{"accessors":[{"bufferView":0,"byteOffset":0,"componentType":5126,"count":100002,"max":[2629.25],"min":[0],"type":"SCALAR"},{"bufferView":1,"byteOffset":0,"componentType":5126,"count":100002,"max":[21.124613,3.93659,10.258903],"min":[-21.210604,-98.336655,-12.291526],"type":"VEC3"},{"bufferView":2,"byteOffset":0,"componentType":5126,"count":100002,"max":[2629.25],"min":[0],"type":"SCALAR"},{"bufferView":3,"byteOffset":0,"componentType":5126,"count":100002,"max":[0,1,0,1],"min":[0,-0.865765,0,-0.498491],"type":"VEC4"},{"bufferView":4,"byteOffset":0,"componentType":5126,"count":100002,"max":[2629.25],"min":[0],"type":"SCALAR"},{"bufferView":5,"byteOffset":0,"componentType":5126,"count":100002,"max":[1,1,1],"min":[1,1,1],"type":"VEC3"},{"bufferView":6,"byteOffset":0,"componentType":5126,"count":100002,"max":[2629.25],"min":[0],"type":"SCALAR"},{"bufferView":7,"byteOffset":0,"componentType":5126,"count":100002,"max":[0.000008,1.639996,0.000006],"min":[-0.000008,0,-0.000006],"type":"VEC3"},{"bufferView":8,"byteOffset":0,"componentType":5126,"count":100002,"max":[2629.25],"min":[0],"type":"SCALAR"},{"bufferView":9,"byteOffset":0,"componentType":5126,"count":100002,"max":[0.569164,0,0,1],"min":[-0.704015,0,0,0.710185],"type":"VEC4"},{"bufferView":10,"byteOffset":0,"componentType":5126,"count":100002,"max":[2629.25],"min":[0],"type":"SCALAR"},{"bufferView":11,"byteOffset":0,"componentType":5126,"count":100002,"max":[1,1,1],"min":[1,1,1],"type":"VEC3"},{"bufferView":12,"byteOffset":0,"componentType":5126,"count":100002,"max":[2629.25],"min":[0],"type":"SCALAR"},{"bufferView":13,"byteOffset":0,"componentType":5126,"count":100002,"max":[0.508139,1.781963,0.4127],"min":[-0.471862,0,-0.414544],"type":"VEC3"},{"bufferView":14,"byteOffset":0,"componentType":5126,"count":100002,"max":[2629.25],"min":[0],"type":"SCALAR"},{"bufferView":15,"byteOffset":0,"componentType":5126,"count":100002,"max":[0.961288,0.926591,0.683911,1],"min":[-0.595089,-0.628908,-0.635009,-0.499352],"type":"VEC4"},{"bufferView":16,"byteOffset":0,"componentType":5126,"count":100002,"max":[2629.25],"min":[0],"type":"SCALAR"},{"bufferView":17,"byteOffset":0,"componentType":5126,"count":100002,"max":[1,1,1],"min":[1,1,1],"type":"VEC3"},{"bufferView":18,"byteOffset":0,"componentType":5126,"count":100002,"max":[2629.25],"min":[0],"type":"SCALAR"},{"bufferView":19,"byteOffset":0,"componentType":5126,"count":100002,"max":[0.414318,1.77831,0.329854],"min":[-0.508982,0,-0.360689],"type":"VEC3"},{"bufferView":20,"byteOffset":0,"componentType":5126,"count":100002,"max":[2629.25],"min":[0],"type":"SCALAR"},{"bufferView":21,"byteOffset":0,"componentType":5126,"count":100002,"max":[0.926591,0.961288,0.70401,1],"min":[-0.756787,-0.742221,-0.534335,-0.499975],"type":"VEC4"},{"bufferView":22,"byteOffset":0,"componentType":5126,"count":100002,"max":[2629.25],"min":[0],"type":"SCALAR"},{"bufferView":23,"byteOffset":0,"componentType":5126,"count":100002,"max":[1,1,1],"min":[1,1,1],"type":"VEC3"},{"bufferView":24,"byteOffset":0,"componentType":5126,"count":100002,"max":[2629.25],"min":[0],"type":"SCALAR"},{"bufferView":25,"byteOffset":0,"componentType":5126,"count":100002,"max":[0.727819,2.486351,0.47636],"min":[-0.685804,0,-0.832797],"type":"VEC3"},{"bufferView":26,"byteOffset":0,"componentType":5126,"count":100002,"max":[2629.25],"min":[0],"type":"SCALAR"},{"bufferView":27,"byteOffset":0,"componentType":5126,"count":100002,"max":[0.989478,0.829719,1,1],"min":[-0.542657,-0.703433,-0.703386,-0.292747],"type":"VEC4"},{"bufferView":28,"byteOffset":0,"componentType":5126,"count":100002,"max":[2629.25],"min":[0],"type":"SCALAR"},{"bufferView":29,"byteOffset":0,"componentType":5126,"count":100002,"max":[1,1,1],"min":[1,1,1],"type":"VEC3"},{"bufferView":30,"byteOffset":0,"componentType":5126,"count":100002,"max":[2629.25],"min":[0],"type":"SCALAR"},{"bufferView":31,"byteOffset":0,"componentType":5126,"count":100002,"max":[0.557725,2.482643,0.476357],"min":[-0.755985,0,-0.819023],"type":"VEC3"},{"bufferView":32,"byteOffset":0,"componentType":5126,"count":100002,"max":[2629.25],"min":[0],"type":"SCALAR"},{"bufferView":33,"byteOffset":0,"componentType":5126,"count":100002,"max":[0.989478,0.811879,1,1],"min":[-0.592839,-0.704233,-0.701756,-0.319248],"type":"VEC4"},{"bufferView":34,"byteOffset":0,"componentType":5126,"count":100002,"max":[2629.25],"min":[0],"type":"SCALAR"},{"bufferView":35,"byteOffset":0,"componentType":5126,"count":100002,"max":[1,1,1],"min":[1,1,1],"type":"VEC3"},{"bufferView":36,"byteOffset":0,"componentType":5126,"count":100002,"max":[2629.25],"min":[0],"type":"SCALAR"},{"bufferView":37,"byteOffset":0,"componentType":5126,"count":100002,"max":[0.174255,1.736259,0.214683],"min":[-0.231348,0,-0.361025],"type":"VEC3"},{"bufferView":38,"byteOffset":0,"componentType":5126,"count":100002,"max":[2629.25],"min":[0],"type":"SCALAR"},{"bufferView":39,"byteOffset":0,"componentType":5126,"count":100002,"max":[0.232511,0.98885,0.132376,1],"min":[-0.532665,-0.464018,-0.149329,-0.144592],"type":"VEC4"},{"bufferView":40,"byteOffset":0,"componentType":5126,"count":100002,"max":[2629.25],"min":[0],"type":"SCALAR"},{"bufferView":41,"byteOffset":0,"componentType":5126,"count":100002,"max":[1,1,1],"min":[1,1,1],"type":"VEC3"}],"animations":[{"channels":[{"sampler":0,"target":{"node":0,"path":"translation"}},{"sampler":1,"target":{"node":0,"path":"rotation"}},{"sampler":2,"target":{"node":0,"path":"scale"}},{"sampler":3,"target":{"node":1,"path":"translation"}},{"sampler":4,"target":{"node":1,"path":"rotation"}},{"sampler":5,"target":{"node":1,"path":"scale"}},{"sampler":6,"target":{"node":2,"path":"translation"}},{"sampler":7,"target":{"node":2,"path":"rotation"}},{"sampler":8,"target":{"node":2,"path":"scale"}},{"sampler":9,"target":{"node":3,"path":"translation"}},{"sampler":10,"target":{"node":3,"path":"rotation"}},{"sampler":11,"target":{"node":3,"path":"scale"}},{"sampler":12,"target":{"node":4,"path":"translation"}},{"sampler":13,"target":{"node":4,"path":"rotation"}},{"sampler":14,"target":{"node":4,"path":"scale"}},{"sampler":15,"target":{"node":5,"path":"translation"}},{"sampler":16,"target":{"node":5,"path":"rotation"}},{"sampler":17,"target":{"node":5,"path":"scale"}},{"sampler":18,"target":{"node":6,"path":"translation"}},{"sampler":19,"target":{"node":6,"path":"rotation"}},{"sampler":20,"target":{"node":6,"path":"scale"}}],"name":"MocapAnimation","samplers":[{"input":0,"interpolation":"LINEAR","output":1},{"input":2,"interpolation":"LINEAR","output":3},{"input":4,"interpolation":"LINEAR","output":5},{"input":6,"interpolation":"LINEAR","output":7},{"input":8,"interpolation":"LINEAR","output":9},{"input":10,"interpolation":"LINEAR","output":11},{"input":12,"interpolation":"LINEAR","output":13},{"input":14,"interpolation":"LINEAR","output":15},{"input":16,"interpolation":"LINEAR","output":17},{"input":18,"interpolation":"LINEAR","output":19},{"input":20,"interpolation":"LINEAR","output":21},{"input":22,"interpolation":"LINEAR","output":23},{"input":24,"interpolation":"LINEAR","output":25},{"input":26,"interpolation":"LINEAR","output":27},{"input":28,"interpolation":"LINEAR","output":29},{"input":30,"interpolation":"LINEAR","output":31},{"input":32,"interpolation":"LINEAR","output":33},{"input":34,"interpolation":"LINEAR","output":35},{"input":36,"interpolation":"LINEAR","output":37},{"input":38,"interpolation":"LINEAR","output":39},{"input":40,"interpolation":"LINEAR","output":41}]}],"asset":{"generator":"Godot Engine v3.3.rc.custom_build@b64b668eda7851b6d51e9f3ff3f5bb98f79189a7","version":"2.0"},"bufferViews":[{"buffer":0,"byteLength":400008,"byteOffset":0},{"buffer":0,"byteLength":1200024,"byteOffset":400008},{"buffer":0,"byteLength":400008,"byteOffset":1600032},{"buffer":0,"byteLength":1600032,"byteOffset":2000040},{"buffer":0,"byteLength":400008,"byteOffset":3600072},{"buffer":0,"byteLength":1200024,"byteOffset":4000080},{"buffer":0,"byteLength":400008,"byteOffset":5200104},{"buffer":0,"byteLength":1200024,"byteOffset":5600112},{"buffer":0,"byteLength":400008,"byteOffset":6800136},{"buffer":0,"byteLength":1600032,"byteOffset":7200144},{"buffer":0,"byteLength":400008,"byteOffset":8800176},{"buffer":0,"byteLength":1200024,"byteOffset":9200184},{"buffer":0,"byteLength":400008,"byteOffset":10400208},{"buffer":0,"byteLength":1200024,"byteOffset":10800216},{"buffer":0,"byteLength":400008,"byteOffset":12000240},{"buffer":0,"byteLength":1600032,"byteOffset":12400248},{"buffer":0,"byteLength":400008,"byteOffset":14000280},{"buffer":0,"byteLength":1200024,"byteOffset":14400288},{"buffer":0,"byteLength":400008,"byteOffset":15600312},{"buffer":0,"byteLength":1200024,"byteOffset":16000320},{"buffer":0,"byteLength":400008,"byteOffset":17200344},{"buffer":0,"byteLength":1600032,"byteOffset":17600352},{"buffer":0,"byteLength":400008,"byteOffset":19200384},{"buffer":0,"byteLength":1200024,"byteOffset":19600392},{"buffer":0,"byteLength":400008,"byteOffset":20800416},{"buffer":0,"byteLength":1200024,"byteOffset":21200424},{"buffer":0,"byteLength":400008,"byteOffset":22400448},{"buffer":0,"byteLength":1600032,"byteOffset":22800456},{"buffer":0,"byteLength":400008,"byteOffset":24400488},{"buffer":0,"byteLength":1200024,"byteOffset":24800496},{"buffer":0,"byteLength":400008,"byteOffset":26000520},{"buffer":0,"byteLength":1200024,"byteOffset":26400528},{"buffer":0,"byteLength":400008,"byteOffset":27600552},{"buffer":0,"byteLength":1600032,"byteOffset":28000560},{"buffer":0,"byteLength":400008,"byteOffset":29600592},{"buffer":0,"byteLength":1200024,"byteOffset":30000600},{"buffer":0,"byteLength":400008,"byteOffset":31200624},{"buffer":0,"byteLength":1200024,"byteOffset":31600632},{"buffer":0,"byteLength":400008,"byteOffset":32800656},{"buffer":0,"byteLength":1600032,"byteOffset":33200664},{"buffer":0,"byteLength":400008,"byteOffset":34800696},{"buffer":0,"byteLength":1200024,"byteOffset":35200704}],"buffers":[{"byteLength":36400728,"uri":"MocapScene1730.bin"}],"extensionsRequired":["KHR_texture_transform"],"extensionsUsed":["KHR_lights_punctual","KHR_texture_transform"],"materials":[],"meshes":[],"nodes":[{"children":[1,2,3,4,5,6],"extensions":{},"name":"Root","rotation":[0,0.117548,0,0.993067],"translation":[19.406477,1.564948,-6.444768]},{"extensions":{},"name":"head","rotation":[-0.077757,0,0,0.996972],"translation":[0,1.37859,-0]},{"extensions":{},"name":"left_hand","rotation":[0.51393,0.527351,-0.478606,0.47824],"translation":[0.498184,1.306473,-0.073602]},{"extensions":{},"name":"right_hand","rotation":[0.527351,-0.51393,0.47824,0.478606],"translation":[-0.499062,1.292884,-0.060417]},{"extensions":{},"name":"left_foot","rotation":[0.103651,-0.622481,0.764438,-0.131939],"translation":[-0.022329,0.638196,-0.399463]},{"extensions":{},"name":"right_foot","rotation":[-0.002909,0.007768,0.987867,-0.155083],"translation":[-0.066524,0.067812,-0.023697]},{"extensions":{},"name":"hips","rotation":[0.02039,0.020279,-0.023053,0.999321],"translation":[0.000141,0.935694,-0.042416]}],"scene":0,"scenes":[{"nodes":[0]}]}