{"accessors":[{"bufferView":0,"byteOffset":0,"componentType":5126,"count":94713,"max":[1578.533325],"min":[0],"type":"SCALAR"},{"bufferView":1,"byteOffset":0,"componentType":5126,"count":94713,"max":[-10.687324,1.785036,9.399751],"min":[-16.955132,-0.5,-2.999095],"type":"VEC3"},{"bufferView":2,"byteOffset":0,"componentType":5126,"count":94713,"max":[1578.533325],"min":[0],"type":"SCALAR"},{"bufferView":3,"byteOffset":0,"componentType":5126,"count":94713,"max":[0,0.916628,0,0.999997],"min":[0,-0.144911,0,0.399741],"type":"VEC4"},{"bufferView":4,"byteOffset":0,"componentType":5126,"count":94713,"max":[1578.533325],"min":[0],"type":"SCALAR"},{"bufferView":5,"byteOffset":0,"componentType":5126,"count":94713,"max":[1,1,1],"min":[1,1,1],"type":"VEC3"},{"bufferView":6,"byteOffset":0,"componentType":5126,"count":94713,"max":[1578.533325],"min":[0],"type":"SCALAR"},{"bufferView":7,"byteOffset":0,"componentType":5126,"count":94713,"max":[0.000003,1.640001,0.000003],"min":[-0.000003,0,-0.000002],"type":"VEC3"},{"bufferView":8,"byteOffset":0,"componentType":5126,"count":94713,"max":[1578.533325],"min":[0],"type":"SCALAR"},{"bufferView":9,"byteOffset":0,"componentType":5126,"count":94713,"max":[0.704015,0,0,1],"min":[-0.005946,0,0,0.710185],"type":"VEC4"},{"bufferView":10,"byteOffset":0,"componentType":5126,"count":94713,"max":[1578.533325],"min":[0],"type":"SCALAR"},{"bufferView":11,"byteOffset":0,"componentType":5126,"count":94713,"max":[1,1,1],"min":[1,1,1],"type":"VEC3"},{"bufferView":12,"byteOffset":0,"componentType":5126,"count":94713,"max":[1578.533325],"min":[0],"type":"SCALAR"},{"bufferView":13,"byteOffset":0,"componentType":5126,"count":94713,"max":[0.529564,1.563294,0.028335],"min":[0,0,-0.464996],"type":"VEC3"},{"bufferView":14,"byteOffset":0,"componentType":5126,"count":94713,"max":[1578.533325],"min":[0],"type":"SCALAR"},{"bufferView":15,"byteOffset":0,"componentType":5126,"count":94713,"max":[0.766398,0.722189,0.639283,1],"min":[-0.580407,-0.527509,-0.696432,-0.499854],"type":"VEC4"},{"bufferView":16,"byteOffset":0,"componentType":5126,"count":94713,"max":[1578.533325],"min":[0],"type":"SCALAR"},{"bufferView":17,"byteOffset":0,"componentType":5126,"count":94713,"max":[1,1,1],"min":[1,1,1],"type":"VEC3"},{"bufferView":18,"byteOffset":0,"componentType":5126,"count":94713,"max":[1578.533325],"min":[0],"type":"SCALAR"},{"bufferView":19,"byteOffset":0,"componentType":5126,"count":94713,"max":[0,1.55018,0.385731],"min":[-0.534691,0,-0.185816],"type":"VEC3"},{"bufferView":20,"byteOffset":0,"componentType":5126,"count":94713,"max":[1578.533325],"min":[0],"type":"SCALAR"},{"bufferView":21,"byteOffset":0,"componentType":5126,"count":94713,"max":[0.722189,0.766398,0.706111,1],"min":[-0.690275,-0.694913,-0.50571,-0.492743],"type":"VEC4"},{"bufferView":22,"byteOffset":0,"componentType":5126,"count":94713,"max":[1578.533325],"min":[0],"type":"SCALAR"},{"bufferView":23,"byteOffset":0,"componentType":5126,"count":94713,"max":[1,1,1],"min":[1,1,1],"type":"VEC3"},{"bufferView":24,"byteOffset":0,"componentType":5126,"count":94713,"max":[1578.533325],"min":[0],"type":"SCALAR"},{"bufferView":25,"byteOffset":0,"componentType":5126,"count":94713,"max":[0.658616,0.887574,0.368404],"min":[-0.946616,0,-1.071276],"type":"VEC3"},{"bufferView":26,"byteOffset":0,"componentType":5126,"count":94713,"max":[1578.533325],"min":[0],"type":"SCALAR"},{"bufferView":27,"byteOffset":0,"componentType":5126,"count":94713,"max":[0.612108,0.007389,1,1],"min":[-0.111919,-0.553755,0,-0.046579],"type":"VEC4"},{"bufferView":28,"byteOffset":0,"componentType":5126,"count":94713,"max":[1578.533325],"min":[0],"type":"SCALAR"},{"bufferView":29,"byteOffset":0,"componentType":5126,"count":94713,"max":[1,1,1],"min":[1,1,1],"type":"VEC3"},{"bufferView":30,"byteOffset":0,"componentType":5126,"count":94713,"max":[1578.533325],"min":[0],"type":"SCALAR"},{"bufferView":31,"byteOffset":0,"componentType":5126,"count":94713,"max":[0.415626,0.88771,0.368432],"min":[-0.933482,0,-1.067976],"type":"VEC3"},{"bufferView":32,"byteOffset":0,"componentType":5126,"count":94713,"max":[1578.533325],"min":[0],"type":"SCALAR"},{"bufferView":33,"byteOffset":0,"componentType":5126,"count":94713,"max":[0.612108,0.010955,1,1],"min":[-0.111919,-0.553755,0,-0.046579],"type":"VEC4"},{"bufferView":34,"byteOffset":0,"componentType":5126,"count":94713,"max":[1578.533325],"min":[0],"type":"SCALAR"},{"bufferView":35,"byteOffset":0,"componentType":5126,"count":94713,"max":[1,1,1],"min":[1,1,1],"type":"VEC3"},{"bufferView":36,"byteOffset":0,"componentType":5126,"count":94713,"max":[1578.533325],"min":[0],"type":"SCALAR"},{"bufferView":37,"byteOffset":0,"componentType":5126,"count":94713,"max":[0.198069,1.64,0.17659],"min":[-0.414641,0,-0.443289],"type":"VEC3"},{"bufferView":38,"byteOffset":0,"componentType":5126,"count":94713,"max":[1578.533325],"min":[0],"type":"SCALAR"},{"bufferView":39,"byteOffset":0,"componentType":5126,"count":94713,"max":[0.414637,0.706361,0.099031,1],"min":[-0.063874,-0.097616,-0.256949,0.640126],"type":"VEC4"},{"bufferView":40,"byteOffset":0,"componentType":5126,"count":94713,"max":[1578.533325],"min":[0],"type":"SCALAR"},{"bufferView":41,"byteOffset":0,"componentType":5126,"count":94713,"max":[1,1,1],"min":[1,1,1],"type":"VEC3"}],"animations":[{"channels":[{"sampler":0,"target":{"node":0,"path":"translation"}},{"sampler":1,"target":{"node":0,"path":"rotation"}},{"sampler":2,"target":{"node":0,"path":"scale"}},{"sampler":3,"target":{"node":1,"path":"translation"}},{"sampler":4,"target":{"node":1,"path":"rotation"}},{"sampler":5,"target":{"node":1,"path":"scale"}},{"sampler":6,"target":{"node":2,"path":"translation"}},{"sampler":7,"target":{"node":2,"path":"rotation"}},{"sampler":8,"target":{"node":2,"path":"scale"}},{"sampler":9,"target":{"node":3,"path":"translation"}},{"sampler":10,"target":{"node":3,"path":"rotation"}},{"sampler":11,"target":{"node":3,"path":"scale"}},{"sampler":12,"target":{"node":4,"path":"translation"}},{"sampler":13,"target":{"node":4,"path":"rotation"}},{"sampler":14,"target":{"node":4,"path":"scale"}},{"sampler":15,"target":{"node":5,"path":"translation"}},{"sampler":16,"target":{"node":5,"path":"rotation"}},{"sampler":17,"target":{"node":5,"path":"scale"}},{"sampler":18,"target":{"node":6,"path":"translation"}},{"sampler":19,"target":{"node":6,"path":"rotation"}},{"sampler":20,"target":{"node":6,"path":"scale"}}],"name":"MocapAnimation","samplers":[{"input":0,"interpolation":"LINEAR","output":1},{"input":2,"interpolation":"LINEAR","output":3},{"input":4,"interpolation":"LINEAR","output":5},{"input":6,"interpolation":"LINEAR","output":7},{"input":8,"interpolation":"LINEAR","output":9},{"input":10,"interpolation":"LINEAR","output":11},{"input":12,"interpolation":"LINEAR","output":13},{"input":14,"interpolation":"LINEAR","output":15},{"input":16,"interpolation":"LINEAR","output":17},{"input":18,"interpolation":"LINEAR","output":19},{"input":20,"interpolation":"LINEAR","output":21},{"input":22,"interpolation":"LINEAR","output":23},{"input":24,"interpolation":"LINEAR","output":25},{"input":26,"interpolation":"LINEAR","output":27},{"input":28,"interpolation":"LINEAR","output":29},{"input":30,"interpolation":"LINEAR","output":31},{"input":32,"interpolation":"LINEAR","output":33},{"input":34,"interpolation":"LINEAR","output":35},{"input":36,"interpolation":"LINEAR","output":37},{"input":38,"interpolation":"LINEAR","output":39},{"input":40,"interpolation":"LINEAR","output":41}]}],"asset":{"generator":"Godot Engine v3.3.rc.custom_build@b64b668eda7851b6d51e9f3ff3f5bb98f79189a7","version":"2.0"},"bufferViews":[{"buffer":0,"byteLength":378852,"byteOffset":0},{"buffer":0,"byteLength":1136556,"byteOffset":378852},{"buffer":0,"byteLength":378852,"byteOffset":1515408},{"buffer":0,"byteLength":1515408,"byteOffset":1894260},{"buffer":0,"byteLength":378852,"byteOffset":3409668},{"buffer":0,"byteLength":1136556,"byteOffset":3788520},{"buffer":0,"byteLength":378852,"byteOffset":4925076},{"buffer":0,"byteLength":1136556,"byteOffset":5303928},{"buffer":0,"byteLength":378852,"byteOffset":6440484},{"buffer":0,"byteLength":1515408,"byteOffset":6819336},{"buffer":0,"byteLength":378852,"byteOffset":8334744},{"buffer":0,"byteLength":1136556,"byteOffset":8713596},{"buffer":0,"byteLength":378852,"byteOffset":9850152},{"buffer":0,"byteLength":1136556,"byteOffset":10229004},{"buffer":0,"byteLength":378852,"byteOffset":11365560},{"buffer":0,"byteLength":1515408,"byteOffset":11744412},{"buffer":0,"byteLength":378852,"byteOffset":13259820},{"buffer":0,"byteLength":1136556,"byteOffset":13638672},{"buffer":0,"byteLength":378852,"byteOffset":14775228},{"buffer":0,"byteLength":1136556,"byteOffset":15154080},{"buffer":0,"byteLength":378852,"byteOffset":16290636},{"buffer":0,"byteLength":1515408,"byteOffset":16669488},{"buffer":0,"byteLength":378852,"byteOffset":18184896},{"buffer":0,"byteLength":1136556,"byteOffset":18563748},{"buffer":0,"byteLength":378852,"byteOffset":19700304},{"buffer":0,"byteLength":1136556,"byteOffset":20079156},{"buffer":0,"byteLength":378852,"byteOffset":21215712},{"buffer":0,"byteLength":1515408,"byteOffset":21594564},{"buffer":0,"byteLength":378852,"byteOffset":23109972},{"buffer":0,"byteLength":1136556,"byteOffset":23488824},{"buffer":0,"byteLength":378852,"byteOffset":24625380},{"buffer":0,"byteLength":1136556,"byteOffset":25004232},{"buffer":0,"byteLength":378852,"byteOffset":26140788},{"buffer":0,"byteLength":1515408,"byteOffset":26519640},{"buffer":0,"byteLength":378852,"byteOffset":28035048},{"buffer":0,"byteLength":1136556,"byteOffset":28413900},{"buffer":0,"byteLength":378852,"byteOffset":29550456},{"buffer":0,"byteLength":1136556,"byteOffset":29929308},{"buffer":0,"byteLength":378852,"byteOffset":31065864},{"buffer":0,"byteLength":1515408,"byteOffset":31444716},{"buffer":0,"byteLength":378852,"byteOffset":32960124},{"buffer":0,"byteLength":1136556,"byteOffset":33338976}],"buffers":[{"byteLength":34475532,"uri":"mocap_001080.bin"}],"extensionsRequired":["KHR_texture_transform"],"extensionsUsed":["KHR_lights_punctual","KHR_texture_transform"],"materials":[],"meshes":[],"nodes":[{"children":[1,2,3,4,5,6],"extensions":{},"name":"Root"},{"extensions":{},"name":"head"},{"extensions":{},"name":"left_hand"},{"extensions":{},"name":"right_hand"},{"extensions":{},"name":"left_foot"},{"extensions":{},"name":"right_foot"},{"extensions":{},"name":"hips"}],"scene":0,"scenes":[{"nodes":[0]}]}