{
    "asset" : {
        "copyright" : "Creative Commons Attribution 4.0 International Public License 2021 V-Sekai. 2019 Wonder Unit. See https://github.com/V-Sekai/blue-tin-fox-models for attributed files.",
        "generator" : "Khronos glTF Blender I/O v1.6.16",
        "version" : "2.0"
    },
    "scene" : 0,
    "scenes" : [
        {
            "name" : "Scene",
            "nodes" : [
                0,
                1,
                2,
                3,
                4
            ]
        }
    ],
    "nodes" : [
        {
            "mesh" : 0,
            "name" : "Cube",
            "scale" : [
                1.4349441528320312,
                1,
                1.0682414770126343
            ]
        },
        {
            "mesh" : 1,
            "name" : "Cube.001"
        },
        {
            "mesh" : 2,
            "name" : "Cube.002"
        },
        {
            "mesh" : 3,
            "name" : "Cube.003"
        },
        {
            "mesh" : 4,
            "name" : "Cube.007",
            "scale" : [
                1.4349441528320312,
                1,
                1.0682414770126343
            ]
        }
    ],
    "materials" : [
        {
            "doubleSided" : true,
            "name" : "Material",
            "pbrMetallicRoughness" : {
                "baseColorFactor" : [
                    0.800000011920929,
                    0.800000011920929,
                    0.800000011920929,
                    1
                ],
                "metallicFactor" : 0,
                "roughnessFactor" : 0.5
            }
        },
        {
            "doubleSided" : true,
            "name" : "Material.001",
            "pbrMetallicRoughness" : {
                "baseColorFactor" : [
                    0.800000011920929,
                    0.800000011920929,
                    0.800000011920929,
                    1
                ],
                "metallicFactor" : 0,
                "roughnessFactor" : 0.5
            }
        }
    ],
    "meshes" : [
        {
            "name" : "Cube",
            "primitives" : [
                {
                    "attributes" : {
                        "POSITION" : 0,
                        "NORMAL" : 1,
                        "TEXCOORD_0" : 2
                    },
                    "indices" : 3,
                    "material" : 0
                }
            ]
        },
        {
            "name" : "Cube.001",
            "primitives" : [
                {
                    "attributes" : {
                        "POSITION" : 4,
                        "NORMAL" : 5,
                        "TEXCOORD_0" : 6
                    },
                    "indices" : 7
                }
            ]
        },
        {
            "name" : "Cube.002",
            "primitives" : [
                {
                    "attributes" : {
                        "POSITION" : 8,
                        "NORMAL" : 9,
                        "TEXCOORD_0" : 10
                    },
                    "indices" : 7
                }
            ]
        },
        {
            "name" : "Cube.003",
            "primitives" : [
                {
                    "attributes" : {
                        "POSITION" : 11,
                        "NORMAL" : 12,
                        "TEXCOORD_0" : 13
                    },
                    "indices" : 7
                }
            ]
        },
        {
            "name" : "Cube.007",
            "primitives" : [
                {
                    "attributes" : {
                        "POSITION" : 14,
                        "NORMAL" : 15,
                        "TEXCOORD_0" : 16
                    },
                    "indices" : 17,
                    "material" : 1
                }
            ]
        }
    ],
    "accessors" : [
        {
            "bufferView" : 0,
            "componentType" : 5126,
            "count" : 20,
            "max" : [
                0.6725000143051147,
                0.5108692646026611,
                0.9524999856948853
            ],
            "min" : [
                -0.6725000143051147,
                0.2108692228794098,
                -0.9524999856948853
            ],
            "type" : "VEC3"
        },
        {
            "bufferView" : 1,
            "componentType" : 5126,
            "count" : 20,
            "type" : "VEC3"
        },
        {
            "bufferView" : 2,
            "componentType" : 5126,
            "count" : 20,
            "type" : "VEC2"
        },
        {
            "bufferView" : 3,
            "componentType" : 5123,
            "count" : 36,
            "type" : "SCALAR"
        },
        {
            "bufferView" : 4,
            "componentType" : 5126,
            "count" : 14,
            "max" : [
                1.006093144416809,
                0.9996651411056519,
                -1.0182138681411743
            ],
            "min" : [
                -1.0062588453292847,
                -0.0003348886966705322,
                -1.0682138204574585
            ],
            "type" : "VEC3"
        },
        {
            "bufferView" : 5,
            "componentType" : 5126,
            "count" : 14,
            "type" : "VEC3"
        },
        {
            "bufferView" : 6,
            "componentType" : 5126,
            "count" : 14,
            "type" : "VEC2"
        },
        {
            "bufferView" : 7,
            "componentType" : 5123,
            "count" : 36,
            "type" : "SCALAR"
        },
        {
            "bufferView" : 8,
            "componentType" : 5126,
            "count" : 14,
            "max" : [
                0.9999978542327881,
                0.37968766689300537,
                1.0377428531646729
            ],
            "min" : [
                -1.0001635551452637,
                0.17241144180297852,
                -1.0454257726669312
            ],
            "type" : "VEC3"
        },
        {
            "bufferView" : 9,
            "componentType" : 5126,
            "count" : 14,
            "type" : "VEC3"
        },
        {
            "bufferView" : 10,
            "componentType" : 5126,
            "count" : 14,
            "type" : "VEC2"
        },
        {
            "bufferView" : 11,
            "componentType" : 5126,
            "count" : 14,
            "max" : [
                1.006093144416809,
                0.3812524974346161,
                1.068242073059082
            ],
            "min" : [
                -1.0062588453292847,
                -0.0003348886966705322,
                1.0182421207427979
            ],
            "type" : "VEC3"
        },
        {
            "bufferView" : 12,
            "componentType" : 5126,
            "count" : 14,
            "type" : "VEC3"
        },
        {
            "bufferView" : 13,
            "componentType" : 5126,
            "count" : 14,
            "type" : "VEC2"
        },
        {
            "bufferView" : 14,
            "componentType" : 5126,
            "count" : 341,
            "max" : [
                0.7011374235153198,
                0.9996650815010071,
                1.0000004768371582
            ],
            "min" : [
                -0.7012529373168945,
                -0.00033488866756670177,
                -0.9999740719795227
            ],
            "type" : "VEC3"
        },
        {
            "bufferView" : 15,
            "componentType" : 5126,
            "count" : 341,
            "type" : "VEC3"
        },
        {
            "bufferView" : 16,
            "componentType" : 5126,
            "count" : 341,
            "type" : "VEC2"
        },
        {
            "bufferView" : 17,
            "componentType" : 5123,
            "count" : 1296,
            "type" : "SCALAR"
        }
    ],
    "bufferViews" : [
        {
            "buffer" : 0,
            "byteLength" : 240,
            "byteOffset" : 0
        },
        {
            "buffer" : 0,
            "byteLength" : 240,
            "byteOffset" : 240
        },
        {
            "buffer" : 0,
            "byteLength" : 160,
            "byteOffset" : 480
        },
        {
            "buffer" : 0,
            "byteLength" : 72,
            "byteOffset" : 640
        },
        {
            "buffer" : 0,
            "byteLength" : 168,
            "byteOffset" : 712
        },
        {
            "buffer" : 0,
            "byteLength" : 168,
            "byteOffset" : 880
        },
        {
            "buffer" : 0,
            "byteLength" : 112,
            "byteOffset" : 1048
        },
        {
            "buffer" : 0,
            "byteLength" : 72,
            "byteOffset" : 1160
        },
        {
            "buffer" : 0,
            "byteLength" : 168,
            "byteOffset" : 1232
        },
        {
            "buffer" : 0,
            "byteLength" : 168,
            "byteOffset" : 1400
        },
        {
            "buffer" : 0,
            "byteLength" : 112,
            "byteOffset" : 1568
        },
        {
            "buffer" : 0,
            "byteLength" : 168,
            "byteOffset" : 1680
        },
        {
            "buffer" : 0,
            "byteLength" : 168,
            "byteOffset" : 1848
        },
        {
            "buffer" : 0,
            "byteLength" : 112,
            "byteOffset" : 2016
        },
        {
            "buffer" : 0,
            "byteLength" : 4092,
            "byteOffset" : 2128
        },
        {
            "buffer" : 0,
            "byteLength" : 4092,
            "byteOffset" : 6220
        },
        {
            "buffer" : 0,
            "byteLength" : 2728,
            "byteOffset" : 10312
        },
        {
            "buffer" : 0,
            "byteLength" : 2592,
            "byteOffset" : 13040
        }
    ],
    "buffers" : [
        {
            "byteLength" : 15632,
            "uri" : "bed-king.bin"
        }
    ]
}
