{
    "asset" : {
        "copyright" : "Creative Commons Attribution 4.0 International Public License 2021 V-Sekai. 2019 Wonder Unit. See https://github.com/V-Sekai/blue-tin-fox-models for attributed files.",
        "generator" : "Khronos glTF Blender I/O v1.6.16",
        "version" : "2.0"
    },
    "scene" : 0,
    "scenes" : [
        {
            "name" : "Scene",
            "nodes" : [
                0,
                1,
                2,
                3
            ]
        }
    ],
    "nodes" : [
        {
            "mesh" : 0,
            "name" : "Cube"
        },
        {
            "mesh" : 1,
            "name" : "Cube.001"
        },
        {
            "mesh" : 2,
            "name" : "Cube.002"
        },
        {
            "mesh" : 3,
            "name" : "Cube.003"
        }
    ],
    "materials" : [
        {
            "doubleSided" : true,
            "name" : "Material",
            "pbrMetallicRoughness" : {
                "baseColorFactor" : [
                    0.800000011920929,
                    0.800000011920929,
                    0.800000011920929,
                    1
                ],
                "metallicFactor" : 0,
                "roughnessFactor" : 0.5
            }
        }
    ],
    "meshes" : [
        {
            "name" : "Cube",
            "primitives" : [
                {
                    "attributes" : {
                        "POSITION" : 0,
                        "NORMAL" : 1,
                        "TEXCOORD_0" : 2
                    },
                    "indices" : 3,
                    "material" : 0
                }
            ]
        },
        {
            "name" : "Cube.001",
            "primitives" : [
                {
                    "attributes" : {
                        "POSITION" : 4,
                        "NORMAL" : 5,
                        "TEXCOORD_0" : 6
                    },
                    "indices" : 7
                }
            ]
        },
        {
            "name" : "Cube.002",
            "primitives" : [
                {
                    "attributes" : {
                        "POSITION" : 8,
                        "NORMAL" : 9,
                        "TEXCOORD_0" : 10
                    },
                    "indices" : 7
                }
            ]
        },
        {
            "name" : "Cube.003",
            "primitives" : [
                {
                    "attributes" : {
                        "POSITION" : 11,
                        "NORMAL" : 12,
                        "TEXCOORD_0" : 13
                    },
                    "indices" : 7
                }
            ]
        }
    ],
    "accessors" : [
        {
            "bufferView" : 0,
            "componentType" : 5126,
            "count" : 20,
            "max" : [
                0.6725000143051147,
                0.5108692646026611,
                0.9524999856948853
            ],
            "min" : [
                -0.6725000143051147,
                0.2108692228794098,
                -0.9524999856948853
            ],
            "type" : "VEC3"
        },
        {
            "bufferView" : 1,
            "componentType" : 5126,
            "count" : 20,
            "type" : "VEC3"
        },
        {
            "bufferView" : 2,
            "componentType" : 5126,
            "count" : 20,
            "type" : "VEC2"
        },
        {
            "bufferView" : 3,
            "componentType" : 5123,
            "count" : 36,
            "type" : "SCALAR"
        },
        {
            "bufferView" : 4,
            "componentType" : 5126,
            "count" : 14,
            "max" : [
                0.7297121286392212,
                0.9996651411056519,
                -0.9589084982872009
            ],
            "min" : [
                -0.7198929190635681,
                -0.0003348886966705322,
                -1.0089085102081299
            ],
            "type" : "VEC3"
        },
        {
            "bufferView" : 5,
            "componentType" : 5126,
            "count" : 14,
            "type" : "VEC3"
        },
        {
            "bufferView" : 6,
            "componentType" : 5126,
            "count" : 14,
            "type" : "VEC2"
        },
        {
            "bufferView" : 7,
            "componentType" : 5123,
            "count" : 36,
            "type" : "SCALAR"
        },
        {
            "bufferView" : 8,
            "componentType" : 5126,
            "count" : 14,
            "max" : [
                0.7236167788505554,
                0.37968766689300537,
                0.973783016204834
            ],
            "min" : [
                -0.7137975692749023,
                0.17241144180297852,
                -0.9861204028129578
            ],
            "type" : "VEC3"
        },
        {
            "bufferView" : 9,
            "componentType" : 5126,
            "count" : 14,
            "type" : "VEC3"
        },
        {
            "bufferView" : 10,
            "componentType" : 5126,
            "count" : 14,
            "type" : "VEC2"
        },
        {
            "bufferView" : 11,
            "componentType" : 5126,
            "count" : 14,
            "max" : [
                0.7297121286392212,
                0.3812524974346161,
                1.0042822360992432
            ],
            "min" : [
                -0.7198929190635681,
                -0.0003348886966705322,
                0.9542822241783142
            ],
            "type" : "VEC3"
        },
        {
            "bufferView" : 12,
            "componentType" : 5126,
            "count" : 14,
            "type" : "VEC3"
        },
        {
            "bufferView" : 13,
            "componentType" : 5126,
            "count" : 14,
            "type" : "VEC2"
        }
    ],
    "bufferViews" : [
        {
            "buffer" : 0,
            "byteLength" : 240,
            "byteOffset" : 0
        },
        {
            "buffer" : 0,
            "byteLength" : 240,
            "byteOffset" : 240
        },
        {
            "buffer" : 0,
            "byteLength" : 160,
            "byteOffset" : 480
        },
        {
            "buffer" : 0,
            "byteLength" : 72,
            "byteOffset" : 640
        },
        {
            "buffer" : 0,
            "byteLength" : 168,
            "byteOffset" : 712
        },
        {
            "buffer" : 0,
            "byteLength" : 168,
            "byteOffset" : 880
        },
        {
            "buffer" : 0,
            "byteLength" : 112,
            "byteOffset" : 1048
        },
        {
            "buffer" : 0,
            "byteLength" : 72,
            "byteOffset" : 1160
        },
        {
            "buffer" : 0,
            "byteLength" : 168,
            "byteOffset" : 1232
        },
        {
            "buffer" : 0,
            "byteLength" : 168,
            "byteOffset" : 1400
        },
        {
            "buffer" : 0,
            "byteLength" : 112,
            "byteOffset" : 1568
        },
        {
            "buffer" : 0,
            "byteLength" : 168,
            "byteOffset" : 1680
        },
        {
            "buffer" : 0,
            "byteLength" : 168,
            "byteOffset" : 1848
        },
        {
            "buffer" : 0,
            "byteLength" : 112,
            "byteOffset" : 2016
        }
    ],
    "buffers" : [
        {
            "byteLength" : 2128,
            "uri" : "bed-full.bin"
        }
    ]
}
