{
    "asset" : {
        "copyright" : "Creative Commons Attribution 4.0 International Public License 2021 V-Sekai. 2019 Wonder Unit. See https://github.com/V-Sekai/blue-tin-fox-models for attributed files.",
        "generator" : "Khronos glTF Blender I/O v1.6.16",
        "version" : "2.0"
    },
    "scene" : 0,
    "scenes" : [
        {
            "extras" : {
                "M3" : {
                    "pass_through" : 0,
                    "show_edit_mesh_wire" : 0
                },
                "flip_fluid" : {
                    "is_custom_icons_loaded" : 1
                },
                "flip_fluid_material_library" : {
                    "library_path" : "C:\\Users\\ferre\\AppData\\Roaming\\Blender Foundation\\Blender\\2.80\\scripts\\addons\\flip_fluids_addon\\materials\\material_library",
                    "material_list" : [
                        {
                            "name" : "FF Apple Juice",
                            "description" : "",
                            "path" : "C:\\Users\\ferre\\AppData\\Roaming\\Blender Foundation\\Blender\\2.80\\scripts\\addons\\flip_fluids_addon\\materials\\material_library\\surface\\FF Apple Juice.blend",
                            "type" : 0,
                            "icon_id" : 1396,
                            "imported_icon_id" : 1397
                        },
                        {
                            "name" : "FF Beer",
                            "description" : "",
                            "path" : "C:\\Users\\ferre\\AppData\\Roaming\\Blender Foundation\\Blender\\2.80\\scripts\\addons\\flip_fluids_addon\\materials\\material_library\\surface\\FF Beer.blend",
                            "type" : 0,
                            "icon_id" : 1398,
                            "imported_icon_id" : 1399
                        },
                        {
                            "name" : "FF Blood",
                            "description" : "",
                            "path" : "C:\\Users\\ferre\\AppData\\Roaming\\Blender Foundation\\Blender\\2.80\\scripts\\addons\\flip_fluids_addon\\materials\\material_library\\surface\\FF Blood.blend",
                            "type" : 0,
                            "icon_id" : 1400,
                            "imported_icon_id" : 1401
                        },
                        {
                            "name" : "FF Caramel",
                            "description" : "",
                            "path" : "C:\\Users\\ferre\\AppData\\Roaming\\Blender Foundation\\Blender\\2.80\\scripts\\addons\\flip_fluids_addon\\materials\\material_library\\surface\\FF Caramel.blend",
                            "type" : 0,
                            "icon_id" : 1402,
                            "imported_icon_id" : 1403
                        },
                        {
                            "name" : "FF Chocolate",
                            "description" : "",
                            "path" : "C:\\Users\\ferre\\AppData\\Roaming\\Blender Foundation\\Blender\\2.80\\scripts\\addons\\flip_fluids_addon\\materials\\material_library\\surface\\FF Chocolate.blend",
                            "type" : 0,
                            "icon_id" : 1404,
                            "imported_icon_id" : 1405
                        },
                        {
                            "name" : "FF Coffee",
                            "description" : "",
                            "path" : "C:\\Users\\ferre\\AppData\\Roaming\\Blender Foundation\\Blender\\2.80\\scripts\\addons\\flip_fluids_addon\\materials\\material_library\\surface\\FF Coffee.blend",
                            "type" : 0,
                            "icon_id" : 1406,
                            "imported_icon_id" : 1407
                        },
                        {
                            "name" : "FF Copper",
                            "description" : "",
                            "path" : "C:\\Users\\ferre\\AppData\\Roaming\\Blender Foundation\\Blender\\2.80\\scripts\\addons\\flip_fluids_addon\\materials\\material_library\\surface\\FF Copper.blend",
                            "type" : 0,
                            "icon_id" : 1408,
                            "imported_icon_id" : 1409
                        },
                        {
                            "name" : "FF Milk",
                            "description" : "",
                            "path" : "C:\\Users\\ferre\\AppData\\Roaming\\Blender Foundation\\Blender\\2.80\\scripts\\addons\\flip_fluids_addon\\materials\\material_library\\surface\\FF Milk.blend",
                            "type" : 0,
                            "icon_id" : 1410,
                            "imported_icon_id" : 1411
                        },
                        {
                            "name" : "FF Orange Juice",
                            "description" : "",
                            "path" : "C:\\Users\\ferre\\AppData\\Roaming\\Blender Foundation\\Blender\\2.80\\scripts\\addons\\flip_fluids_addon\\materials\\material_library\\surface\\FF Orange Juice.blend",
                            "type" : 0,
                            "icon_id" : 1412,
                            "imported_icon_id" : 1413
                        },
                        {
                            "name" : "FF Water (clear)",
                            "description" : "",
                            "path" : "C:\\Users\\ferre\\AppData\\Roaming\\Blender Foundation\\Blender\\2.80\\scripts\\addons\\flip_fluids_addon\\materials\\material_library\\surface\\FF Water (clear).blend",
                            "type" : 0,
                            "icon_id" : 1414,
                            "imported_icon_id" : 1415
                        },
                        {
                            "name" : "FF Water (iced)",
                            "description" : "",
                            "path" : "C:\\Users\\ferre\\AppData\\Roaming\\Blender Foundation\\Blender\\2.80\\scripts\\addons\\flip_fluids_addon\\materials\\material_library\\surface\\FF Water (iced).blend",
                            "type" : 0,
                            "icon_id" : 1416,
                            "imported_icon_id" : 1417
                        },
                        {
                            "name" : "FF Water (ocean 1)",
                            "description" : "",
                            "path" : "C:\\Users\\ferre\\AppData\\Roaming\\Blender Foundation\\Blender\\2.80\\scripts\\addons\\flip_fluids_addon\\materials\\material_library\\surface\\FF Water (ocean 1).blend",
                            "type" : 0,
                            "icon_id" : 1418,
                            "imported_icon_id" : 1419
                        },
                        {
                            "name" : "FF Water (ocean 2)",
                            "description" : "",
                            "path" : "C:\\Users\\ferre\\AppData\\Roaming\\Blender Foundation\\Blender\\2.80\\scripts\\addons\\flip_fluids_addon\\materials\\material_library\\surface\\FF Water (ocean 2).blend",
                            "type" : 0,
                            "icon_id" : 1420,
                            "imported_icon_id" : 1421
                        },
                        {
                            "name" : "FF Water (ocean volumetric)",
                            "description" : "",
                            "path" : "C:\\Users\\ferre\\AppData\\Roaming\\Blender Foundation\\Blender\\2.80\\scripts\\addons\\flip_fluids_addon\\materials\\material_library\\surface\\FF Water (ocean volumetric).blend",
                            "type" : 0,
                            "icon_id" : 1422,
                            "imported_icon_id" : 1423
                        },
                        {
                            "name" : "FF Wax",
                            "description" : "",
                            "path" : "C:\\Users\\ferre\\AppData\\Roaming\\Blender Foundation\\Blender\\2.80\\scripts\\addons\\flip_fluids_addon\\materials\\material_library\\surface\\FF Wax.blend",
                            "type" : 0,
                            "icon_id" : 1424,
                            "imported_icon_id" : 1425
                        },
                        {
                            "name" : "FF Wine Red",
                            "description" : "",
                            "path" : "C:\\Users\\ferre\\AppData\\Roaming\\Blender Foundation\\Blender\\2.80\\scripts\\addons\\flip_fluids_addon\\materials\\material_library\\surface\\FF Wine Red.blend",
                            "type" : 0,
                            "icon_id" : 1426,
                            "imported_icon_id" : 1427
                        },
                        {
                            "name" : "FF Bubble",
                            "description" : "",
                            "path" : "C:\\Users\\ferre\\AppData\\Roaming\\Blender Foundation\\Blender\\2.80\\scripts\\addons\\flip_fluids_addon\\materials\\material_library\\whitewater\\FF Bubble.blend",
                            "type" : 1,
                            "icon_id" : 1428,
                            "imported_icon_id" : 1429
                        },
                        {
                            "name" : "FF Foam",
                            "description" : "",
                            "path" : "C:\\Users\\ferre\\AppData\\Roaming\\Blender Foundation\\Blender\\2.80\\scripts\\addons\\flip_fluids_addon\\materials\\material_library\\whitewater\\FF Foam.blend",
                            "type" : 1,
                            "icon_id" : 1430,
                            "imported_icon_id" : 1431
                        },
                        {
                            "name" : "FF Spray",
                            "description" : "",
                            "path" : "C:\\Users\\ferre\\AppData\\Roaming\\Blender Foundation\\Blender\\2.80\\scripts\\addons\\flip_fluids_addon\\materials\\material_library\\whitewater\\FF Spray.blend",
                            "type" : 1,
                            "icon_id" : 1432,
                            "imported_icon_id" : 1433
                        }
                    ]
                },
                "DM" : {
                    "revision" : "5c3a5c5c945c9d963f9111b2eef7f475570e4897BM"
                }
            },
            "name" : "Scene",
            "nodes" : [
                0
            ]
        }
    ],
    "nodes" : [
        {
            "extras" : {},
            "mesh" : 0,
            "name" : "bedside_table",
            "scale" : [
                0.5516913533210754,
                0.6870329976081848,
                0.5498878359794617
            ]
        }
    ],
    "meshes" : [
        {
            "name" : "Cube.001",
            "primitives" : [
                {
                    "attributes" : {
                        "POSITION" : 0,
                        "NORMAL" : 1,
                        "TEXCOORD_0" : 2
                    },
                    "indices" : 3
                }
            ]
        }
    ],
    "accessors" : [
        {
            "bufferView" : 0,
            "componentType" : 5126,
            "count" : 2388,
            "max" : [
                0.3453017473220825,
                0.5915290713310242,
                0.34756678342819214
            ],
            "min" : [
                -0.34530171751976013,
                0,
                -0.3453017473220825
            ],
            "type" : "VEC3"
        },
        {
            "bufferView" : 1,
            "componentType" : 5126,
            "count" : 2388,
            "type" : "VEC3"
        },
        {
            "bufferView" : 2,
            "componentType" : 5126,
            "count" : 2388,
            "type" : "VEC2"
        },
        {
            "bufferView" : 3,
            "componentType" : 5123,
            "count" : 6552,
            "type" : "SCALAR"
        }
    ],
    "bufferViews" : [
        {
            "buffer" : 0,
            "byteLength" : 28656,
            "byteOffset" : 0
        },
        {
            "buffer" : 0,
            "byteLength" : 28656,
            "byteOffset" : 28656
        },
        {
            "buffer" : 0,
            "byteLength" : 19104,
            "byteOffset" : 57312
        },
        {
            "buffer" : 0,
            "byteLength" : 13104,
            "byteOffset" : 76416
        }
    ],
    "buffers" : [
        {
            "byteLength" : 89520,
            "uri" : "bedside_table.bin"
        }
    ]
}
