{
    "asset" : {
        "copyright" : "Creative Commons Attribution 4.0 International Public License 2021 V-Sekai. 2019 Wonder Unit. See https://github.com/V-Sekai/blue-tin-fox-models for attributed files.",
        "generator" : "Khronos glTF Blender I/O v1.6.16",
        "version" : "2.0"
    },
    "scene" : 0,
    "scenes" : [
        {
            "name" : "Scene",
            "nodes" : [
                0,
                1,
                2,
                3,
                4,
                5
            ]
        }
    ],
    "nodes" : [
        {
            "mesh" : 0,
            "name" : "Cube.005",
            "translation" : [
                0,
                0,
                0.024790698662400246
            ]
        },
        {
            "mesh" : 1,
            "name" : "Cube.006",
            "translation" : [
                0,
                1.0099914073944092,
                -0.12756747007369995
            ]
        },
        {
            "mesh" : 2,
            "name" : "Cube.007",
            "translation" : [
                0.38726937770843506,
                1.0099914073944092,
                0
            ]
        },
        {
            "mesh" : 3,
            "name" : "Cube.008",
            "translation" : [
                -0.38747620582580566,
                1.0099914073944092,
                0
            ]
        },
        {
            "mesh" : 4,
            "name" : "Cube.009",
            "translation" : [
                0,
                2.0075244903564453,
                0
            ]
        },
        {
            "mesh" : 5,
            "name" : "Cube.004",
            "translation" : [
                0,
                2.0075244903564453,
                0
            ]
        }
    ],
    "materials" : [
        {
            "doubleSided" : true,
            "name" : "Material",
            "pbrMetallicRoughness" : {
                "baseColorFactor" : [
                    0.800000011920929,
                    0.800000011920929,
                    0.800000011920929,
                    1
                ],
                "metallicFactor" : 0,
                "roughnessFactor" : 0.5
            }
        }
    ],
    "meshes" : [
        {
            "name" : "Cube.005",
            "primitives" : [
                {
                    "attributes" : {
                        "POSITION" : 0,
                        "NORMAL" : 1,
                        "TEXCOORD_0" : 2
                    },
                    "indices" : 3,
                    "material" : 0
                }
            ]
        },
        {
            "name" : "Cube.006",
            "primitives" : [
                {
                    "attributes" : {
                        "POSITION" : 4,
                        "NORMAL" : 5,
                        "TEXCOORD_0" : 6
                    },
                    "indices" : 3,
                    "material" : 0
                }
            ]
        },
        {
            "name" : "Cube.007",
            "primitives" : [
                {
                    "attributes" : {
                        "POSITION" : 7,
                        "NORMAL" : 8,
                        "TEXCOORD_0" : 9
                    },
                    "indices" : 3,
                    "material" : 0
                }
            ]
        },
        {
            "name" : "Cube.008",
            "primitives" : [
                {
                    "attributes" : {
                        "POSITION" : 10,
                        "NORMAL" : 11,
                        "TEXCOORD_0" : 12
                    },
                    "indices" : 3,
                    "material" : 0
                }
            ]
        },
        {
            "name" : "Cube.009",
            "primitives" : [
                {
                    "attributes" : {
                        "POSITION" : 13,
                        "NORMAL" : 14,
                        "TEXCOORD_0" : 15
                    },
                    "indices" : 3,
                    "material" : 0
                }
            ]
        },
        {
            "name" : "Cube.004",
            "primitives" : [
                {
                    "attributes" : {
                        "POSITION" : 16,
                        "NORMAL" : 17,
                        "TEXCOORD_0" : 18
                    },
                    "indices" : 19,
                    "material" : 0
                }
            ]
        }
    ],
    "accessors" : [
        {
            "bufferView" : 0,
            "componentType" : 5126,
            "count" : 20,
            "max" : [
                0.3799999952316284,
                0.0899997353553772,
                0.09000000357627869
            ],
            "min" : [
                -0.3799999952316284,
                -3.835564257315127e-07,
                -0.09000000357627869
            ],
            "type" : "VEC3"
        },
        {
            "bufferView" : 1,
            "componentType" : 5126,
            "count" : 20,
            "type" : "VEC3"
        },
        {
            "bufferView" : 2,
            "componentType" : 5126,
            "count" : 20,
            "type" : "VEC2"
        },
        {
            "bufferView" : 3,
            "componentType" : 5123,
            "count" : 36,
            "type" : "SCALAR"
        },
        {
            "bufferView" : 4,
            "componentType" : 5126,
            "count" : 20,
            "max" : [
                0.37451890110969543,
                1.0099999904632568,
                0.012500000186264515
            ],
            "min" : [
                -0.37451890110969543,
                -1.0099999904632568,
                -0.012500000186264515
            ],
            "type" : "VEC3"
        },
        {
            "bufferView" : 5,
            "componentType" : 5126,
            "count" : 20,
            "type" : "VEC3"
        },
        {
            "bufferView" : 6,
            "componentType" : 5126,
            "count" : 20,
            "type" : "VEC2"
        },
        {
            "bufferView" : 7,
            "componentType" : 5126,
            "count" : 20,
            "max" : [
                0.012500000186264515,
                1.0099999904632568,
                0.14000000059604645
            ],
            "min" : [
                -0.012500000186264515,
                -1.0099999904632568,
                -0.14000000059604645
            ],
            "type" : "VEC3"
        },
        {
            "bufferView" : 8,
            "componentType" : 5126,
            "count" : 20,
            "type" : "VEC3"
        },
        {
            "bufferView" : 9,
            "componentType" : 5126,
            "count" : 20,
            "type" : "VEC2"
        },
        {
            "bufferView" : 10,
            "componentType" : 5126,
            "count" : 20,
            "max" : [
                0.012500000186264515,
                1.0099999904632568,
                0.14000000059604645
            ],
            "min" : [
                -0.012500000186264515,
                -1.0099999904632568,
                -0.14000000059604645
            ],
            "type" : "VEC3"
        },
        {
            "bufferView" : 11,
            "componentType" : 5126,
            "count" : 20,
            "type" : "VEC3"
        },
        {
            "bufferView" : 12,
            "componentType" : 5126,
            "count" : 20,
            "type" : "VEC2"
        },
        {
            "bufferView" : 13,
            "componentType" : 5126,
            "count" : 20,
            "max" : [
                0.37445804476737976,
                0.012500000186264515,
                0.14000000059604645
            ],
            "min" : [
                -0.37445804476737976,
                -0.012500000186264515,
                -0.14000000059604645
            ],
            "type" : "VEC3"
        },
        {
            "bufferView" : 14,
            "componentType" : 5126,
            "count" : 20,
            "type" : "VEC3"
        },
        {
            "bufferView" : 15,
            "componentType" : 5126,
            "count" : 20,
            "type" : "VEC2"
        },
        {
            "bufferView" : 16,
            "componentType" : 5126,
            "count" : 590,
            "max" : [
                0.3997693657875061,
                0.012500000186264515,
                0.14000000059604645
            ],
            "min" : [
                -0.3999761939048767,
                -2.007533073425293,
                -0.1400674730539322
            ],
            "type" : "VEC3"
        },
        {
            "bufferView" : 17,
            "componentType" : 5126,
            "count" : 590,
            "type" : "VEC3"
        },
        {
            "bufferView" : 18,
            "componentType" : 5126,
            "count" : 590,
            "type" : "VEC2"
        },
        {
            "bufferView" : 19,
            "componentType" : 5123,
            "count" : 1356,
            "type" : "SCALAR"
        }
    ],
    "bufferViews" : [
        {
            "buffer" : 0,
            "byteLength" : 240,
            "byteOffset" : 0
        },
        {
            "buffer" : 0,
            "byteLength" : 240,
            "byteOffset" : 240
        },
        {
            "buffer" : 0,
            "byteLength" : 160,
            "byteOffset" : 480
        },
        {
            "buffer" : 0,
            "byteLength" : 72,
            "byteOffset" : 640
        },
        {
            "buffer" : 0,
            "byteLength" : 240,
            "byteOffset" : 712
        },
        {
            "buffer" : 0,
            "byteLength" : 240,
            "byteOffset" : 952
        },
        {
            "buffer" : 0,
            "byteLength" : 160,
            "byteOffset" : 1192
        },
        {
            "buffer" : 0,
            "byteLength" : 240,
            "byteOffset" : 1352
        },
        {
            "buffer" : 0,
            "byteLength" : 240,
            "byteOffset" : 1592
        },
        {
            "buffer" : 0,
            "byteLength" : 160,
            "byteOffset" : 1832
        },
        {
            "buffer" : 0,
            "byteLength" : 240,
            "byteOffset" : 1992
        },
        {
            "buffer" : 0,
            "byteLength" : 240,
            "byteOffset" : 2232
        },
        {
            "buffer" : 0,
            "byteLength" : 160,
            "byteOffset" : 2472
        },
        {
            "buffer" : 0,
            "byteLength" : 240,
            "byteOffset" : 2632
        },
        {
            "buffer" : 0,
            "byteLength" : 240,
            "byteOffset" : 2872
        },
        {
            "buffer" : 0,
            "byteLength" : 160,
            "byteOffset" : 3112
        },
        {
            "buffer" : 0,
            "byteLength" : 7080,
            "byteOffset" : 3272
        },
        {
            "buffer" : 0,
            "byteLength" : 7080,
            "byteOffset" : 10352
        },
        {
            "buffer" : 0,
            "byteLength" : 4720,
            "byteOffset" : 17432
        },
        {
            "buffer" : 0,
            "byteLength" : 2712,
            "byteOffset" : 22152
        }
    ],
    "buffers" : [
        {
            "byteLength" : 24864,
            "uri" : "cabinet-bookshelf.bin"
        }
    ]
}
