{
    "asset" : {
        "copyright" : "Creative Commons Attribution 4.0 International Public License 2021 V-Sekai. 2019 Wonder Unit. See https://github.com/V-Sekai/blue-tin-fox-models for attributed files.",
        "generator" : "Khronos glTF Blender I/O v1.6.16",
        "version" : "2.0"
    },
    "scene" : 0,
    "scenes" : [
        {
            "name" : "Scene",
            "nodes" : [
                0,
                1,
                2,
                3,
                4,
                5,
                6,
                7,
                8,
                9
            ]
        }
    ],
    "nodes" : [
        {
            "mesh" : 0,
            "name" : "Cube.008"
        },
        {
            "mesh" : 1,
            "name" : "Cube.009"
        },
        {
            "mesh" : 2,
            "name" : "Cube.010",
            "translation" : [
                0,
                0,
                -0.013956778682768345
            ]
        },
        {
            "mesh" : 3,
            "name" : "Cube.011"
        },
        {
            "mesh" : 4,
            "name" : "Cube.012",
            "translation" : [
                0.0007742540910840034,
                0,
                0
            ]
        },
        {
            "mesh" : 5,
            "name" : "Cube.013",
            "translation" : [
                -0.35357460379600525,
                0.06011602655053139,
                0.34442049264907837
            ]
        },
        {
            "mesh" : 6,
            "name" : "Cube.014",
            "translation" : [
                0.35358068346977234,
                0.06011602655053139,
                0.34442049264907837
            ]
        },
        {
            "mesh" : 7,
            "name" : "Cube.015",
            "translation" : [
                -0.35357460379600525,
                0.06011602655053139,
                -0.21894866228103638
            ]
        },
        {
            "mesh" : 8,
            "name" : "Cube.016",
            "translation" : [
                0.35358068346977234,
                0.06011602655053139,
                -0.21894866228103638
            ]
        },
        {
            "mesh" : 9,
            "name" : "Cube.007",
            "translation" : [
                0.35358068346977234,
                0.06011602655053139,
                -0.21894866228103638
            ]
        }
    ],
    "meshes" : [
        {
            "name" : "Cube.000",
            "primitives" : [
                {
                    "attributes" : {
                        "POSITION" : 0,
                        "NORMAL" : 1,
                        "TEXCOORD_0" : 2
                    },
                    "indices" : 3
                }
            ]
        },
        {
            "name" : "Cube.001",
            "primitives" : [
                {
                    "attributes" : {
                        "POSITION" : 4,
                        "NORMAL" : 5,
                        "TEXCOORD_0" : 6
                    },
                    "indices" : 7
                }
            ]
        },
        {
            "name" : "Cube.003",
            "primitives" : [
                {
                    "attributes" : {
                        "POSITION" : 8,
                        "NORMAL" : 9,
                        "TEXCOORD_0" : 10
                    },
                    "indices" : 7
                }
            ]
        },
        {
            "name" : "Cube.005",
            "primitives" : [
                {
                    "attributes" : {
                        "POSITION" : 11,
                        "NORMAL" : 12,
                        "TEXCOORD_0" : 13
                    },
                    "indices" : 14
                }
            ]
        },
        {
            "name" : "Cube.006",
            "primitives" : [
                {
                    "attributes" : {
                        "POSITION" : 15,
                        "NORMAL" : 16,
                        "TEXCOORD_0" : 17
                    },
                    "indices" : 18
                }
            ]
        },
        {
            "name" : "Cube.014",
            "primitives" : [
                {
                    "attributes" : {
                        "POSITION" : 19,
                        "NORMAL" : 20,
                        "TEXCOORD_0" : 21
                    },
                    "indices" : 7
                }
            ]
        },
        {
            "name" : "Cube.015",
            "primitives" : [
                {
                    "attributes" : {
                        "POSITION" : 22,
                        "NORMAL" : 23,
                        "TEXCOORD_0" : 24
                    },
                    "indices" : 7
                }
            ]
        },
        {
            "name" : "Cube.016",
            "primitives" : [
                {
                    "attributes" : {
                        "POSITION" : 25,
                        "NORMAL" : 26,
                        "TEXCOORD_0" : 27
                    },
                    "indices" : 7
                }
            ]
        },
        {
            "name" : "Cube.017",
            "primitives" : [
                {
                    "attributes" : {
                        "POSITION" : 28,
                        "NORMAL" : 29,
                        "TEXCOORD_0" : 30
                    },
                    "indices" : 7
                }
            ]
        },
        {
            "name" : "Cube.013",
            "primitives" : [
                {
                    "attributes" : {
                        "POSITION" : 31,
                        "NORMAL" : 32,
                        "TEXCOORD_0" : 33
                    },
                    "indices" : 34
                }
            ]
        }
    ],
    "accessors" : [
        {
            "bufferView" : 0,
            "componentType" : 5126,
            "count" : 8,
            "max" : [
                0.2910661995410919,
                0.4462461471557617,
                0.4404192566871643
            ],
            "min" : [
                -0.2846691310405731,
                0.3061254024505615,
                -0.22230197489261627
            ],
            "type" : "VEC3"
        },
        {
            "bufferView" : 1,
            "componentType" : 5126,
            "count" : 8,
            "type" : "VEC3"
        },
        {
            "bufferView" : 2,
            "componentType" : 5126,
            "count" : 8,
            "type" : "VEC2"
        },
        {
            "bufferView" : 3,
            "componentType" : 5123,
            "count" : 36,
            "type" : "SCALAR"
        },
        {
            "bufferView" : 4,
            "componentType" : 5126,
            "count" : 14,
            "max" : [
                0.2800000011920929,
                0.3933722972869873,
                0.41568756103515625
            ],
            "min" : [
                -0.2800000011920929,
                0.05622377619147301,
                -0.2943124771118164
            ],
            "type" : "VEC3"
        },
        {
            "bufferView" : 5,
            "componentType" : 5126,
            "count" : 14,
            "type" : "VEC3"
        },
        {
            "bufferView" : 6,
            "componentType" : 5126,
            "count" : 14,
            "type" : "VEC2"
        },
        {
            "bufferView" : 7,
            "componentType" : 5123,
            "count" : 36,
            "type" : "SCALAR"
        },
        {
            "bufferView" : 8,
            "componentType" : 5126,
            "count" : 14,
            "max" : [
                0.38252493739128113,
                0.9491051435470581,
                -0.12414774298667908
            ],
            "min" : [
                -0.38252493739128113,
                0.047692686319351196,
                -0.4252869188785553
            ],
            "type" : "VEC3"
        },
        {
            "bufferView" : 9,
            "componentType" : 5126,
            "count" : 14,
            "type" : "VEC3"
        },
        {
            "bufferView" : 10,
            "componentType" : 5126,
            "count" : 14,
            "type" : "VEC2"
        },
        {
            "bufferView" : 11,
            "componentType" : 5126,
            "count" : 60,
            "max" : [
                0.45125773549079895,
                0.620509684085846,
                0.4157208800315857
            ],
            "min" : [
                0.28008049726486206,
                0.04364210367202759,
                -0.3742291331291199
            ],
            "type" : "VEC3"
        },
        {
            "bufferView" : 12,
            "componentType" : 5126,
            "count" : 60,
            "type" : "VEC3"
        },
        {
            "bufferView" : 13,
            "componentType" : 5126,
            "count" : 60,
            "type" : "VEC2"
        },
        {
            "bufferView" : 14,
            "componentType" : 5123,
            "count" : 228,
            "type" : "SCALAR"
        },
        {
            "bufferView" : 15,
            "componentType" : 5126,
            "count" : 60,
            "max" : [
                -0.28008049726486206,
                0.620509684085846,
                0.4157208800315857
            ],
            "min" : [
                -0.45125773549079895,
                0.04364210367202759,
                -0.3742291331291199
            ],
            "type" : "VEC3"
        },
        {
            "bufferView" : 16,
            "componentType" : 5126,
            "count" : 60,
            "type" : "VEC3"
        },
        {
            "bufferView" : 17,
            "componentType" : 5126,
            "count" : 60,
            "type" : "VEC2"
        },
        {
            "bufferView" : 18,
            "componentType" : 5123,
            "count" : 228,
            "type" : "SCALAR"
        },
        {
            "bufferView" : 19,
            "componentType" : 5126,
            "count" : 14,
            "max" : [
                0.03999999910593033,
                0.05999999865889549,
                0.03999999910593033
            ],
            "min" : [
                -0.03999999910593033,
                -0.05999999865889549,
                -0.03999999910593033
            ],
            "type" : "VEC3"
        },
        {
            "bufferView" : 20,
            "componentType" : 5126,
            "count" : 14,
            "type" : "VEC3"
        },
        {
            "bufferView" : 21,
            "componentType" : 5126,
            "count" : 14,
            "type" : "VEC2"
        },
        {
            "bufferView" : 22,
            "componentType" : 5126,
            "count" : 14,
            "max" : [
                0.03999999910593033,
                0.05999999865889549,
                0.03999999910593033
            ],
            "min" : [
                -0.03999999910593033,
                -0.05999999865889549,
                -0.03999999910593033
            ],
            "type" : "VEC3"
        },
        {
            "bufferView" : 23,
            "componentType" : 5126,
            "count" : 14,
            "type" : "VEC3"
        },
        {
            "bufferView" : 24,
            "componentType" : 5126,
            "count" : 14,
            "type" : "VEC2"
        },
        {
            "bufferView" : 25,
            "componentType" : 5126,
            "count" : 14,
            "max" : [
                0.03999999910593033,
                0.05999999865889549,
                0.03999999910593033
            ],
            "min" : [
                -0.03999999910593033,
                -0.05999999865889549,
                -0.03999999910593033
            ],
            "type" : "VEC3"
        },
        {
            "bufferView" : 26,
            "componentType" : 5126,
            "count" : 14,
            "type" : "VEC3"
        },
        {
            "bufferView" : 27,
            "componentType" : 5126,
            "count" : 14,
            "type" : "VEC2"
        },
        {
            "bufferView" : 28,
            "componentType" : 5126,
            "count" : 14,
            "max" : [
                0.03999999910593033,
                0.05999999865889549,
                0.03999999910593033
            ],
            "min" : [
                -0.03999999910593033,
                -0.05999999865889549,
                -0.03999999910593033
            ],
            "type" : "VEC3"
        },
        {
            "bufferView" : 29,
            "componentType" : 5126,
            "count" : 14,
            "type" : "VEC3"
        },
        {
            "bufferView" : 30,
            "componentType" : 5126,
            "count" : 14,
            "type" : "VEC2"
        },
        {
            "bufferView" : 31,
            "componentType" : 5126,
            "count" : 930,
            "max" : [
                0.09767705202102661,
                0.8826000690460205,
                0.6592684984207153
            ],
            "min" : [
                -0.804064154624939,
                -0.05999999865889549,
                -0.2137865126132965
            ],
            "type" : "VEC3"
        },
        {
            "bufferView" : 32,
            "componentType" : 5126,
            "count" : 930,
            "type" : "VEC3"
        },
        {
            "bufferView" : 33,
            "componentType" : 5126,
            "count" : 930,
            "type" : "VEC2"
        },
        {
            "bufferView" : 34,
            "componentType" : 5123,
            "count" : 3684,
            "type" : "SCALAR"
        }
    ],
    "bufferViews" : [
        {
            "buffer" : 0,
            "byteLength" : 96,
            "byteOffset" : 0
        },
        {
            "buffer" : 0,
            "byteLength" : 96,
            "byteOffset" : 96
        },
        {
            "buffer" : 0,
            "byteLength" : 64,
            "byteOffset" : 192
        },
        {
            "buffer" : 0,
            "byteLength" : 72,
            "byteOffset" : 256
        },
        {
            "buffer" : 0,
            "byteLength" : 168,
            "byteOffset" : 328
        },
        {
            "buffer" : 0,
            "byteLength" : 168,
            "byteOffset" : 496
        },
        {
            "buffer" : 0,
            "byteLength" : 112,
            "byteOffset" : 664
        },
        {
            "buffer" : 0,
            "byteLength" : 72,
            "byteOffset" : 776
        },
        {
            "buffer" : 0,
            "byteLength" : 168,
            "byteOffset" : 848
        },
        {
            "buffer" : 0,
            "byteLength" : 168,
            "byteOffset" : 1016
        },
        {
            "buffer" : 0,
            "byteLength" : 112,
            "byteOffset" : 1184
        },
        {
            "buffer" : 0,
            "byteLength" : 720,
            "byteOffset" : 1296
        },
        {
            "buffer" : 0,
            "byteLength" : 720,
            "byteOffset" : 2016
        },
        {
            "buffer" : 0,
            "byteLength" : 480,
            "byteOffset" : 2736
        },
        {
            "buffer" : 0,
            "byteLength" : 456,
            "byteOffset" : 3216
        },
        {
            "buffer" : 0,
            "byteLength" : 720,
            "byteOffset" : 3672
        },
        {
            "buffer" : 0,
            "byteLength" : 720,
            "byteOffset" : 4392
        },
        {
            "buffer" : 0,
            "byteLength" : 480,
            "byteOffset" : 5112
        },
        {
            "buffer" : 0,
            "byteLength" : 456,
            "byteOffset" : 5592
        },
        {
            "buffer" : 0,
            "byteLength" : 168,
            "byteOffset" : 6048
        },
        {
            "buffer" : 0,
            "byteLength" : 168,
            "byteOffset" : 6216
        },
        {
            "buffer" : 0,
            "byteLength" : 112,
            "byteOffset" : 6384
        },
        {
            "buffer" : 0,
            "byteLength" : 168,
            "byteOffset" : 6496
        },
        {
            "buffer" : 0,
            "byteLength" : 168,
            "byteOffset" : 6664
        },
        {
            "buffer" : 0,
            "byteLength" : 112,
            "byteOffset" : 6832
        },
        {
            "buffer" : 0,
            "byteLength" : 168,
            "byteOffset" : 6944
        },
        {
            "buffer" : 0,
            "byteLength" : 168,
            "byteOffset" : 7112
        },
        {
            "buffer" : 0,
            "byteLength" : 112,
            "byteOffset" : 7280
        },
        {
            "buffer" : 0,
            "byteLength" : 168,
            "byteOffset" : 7392
        },
        {
            "buffer" : 0,
            "byteLength" : 168,
            "byteOffset" : 7560
        },
        {
            "buffer" : 0,
            "byteLength" : 112,
            "byteOffset" : 7728
        },
        {
            "buffer" : 0,
            "byteLength" : 11160,
            "byteOffset" : 7840
        },
        {
            "buffer" : 0,
            "byteLength" : 11160,
            "byteOffset" : 19000
        },
        {
            "buffer" : 0,
            "byteLength" : 7440,
            "byteOffset" : 30160
        },
        {
            "buffer" : 0,
            "byteLength" : 7368,
            "byteOffset" : 37600
        }
    ],
    "buffers" : [
        {
            "byteLength" : 44968,
            "uri" : "chair-sofa.bin"
        }
    ]
}
