{
    "asset" : {
        "copyright" : "Creative Commons Attribution 4.0 International Public License 2021 V-Sekai. 2019 Wonder Unit. See https://github.com/V-Sekai/blue-tin-fox-models for attributed files.",
        "generator" : "Khronos glTF Blender I/O v1.6.16",
        "version" : "2.0"
    },
    "scene" : 0,
    "scenes" : [
        {
            "name" : "Scene",
            "nodes" : [
                0,
                1,
                2,
                3,
                4,
                5,
                6,
                7,
                8,
                9,
                10,
                11,
                12
            ]
        }
    ],
    "nodes" : [
        {
            "mesh" : 0,
            "name" : "Cube.000",
            "translation" : [
                -0.18596427142620087,
                0.5001319050788879,
                -0.2222609668970108
            ]
        },
        {
            "mesh" : 1,
            "name" : "Cube.013"
        },
        {
            "mesh" : 2,
            "name" : "Cube.014",
            "translation" : [
                -0.19455714523792267,
                0.23025554418563843,
                0.2056235671043396
            ]
        },
        {
            "mesh" : 3,
            "name" : "Cube.015",
            "translation" : [
                -0.0026899578515440226,
                0,
                0
            ]
        },
        {
            "mesh" : 4,
            "name" : "Cube.016"
        },
        {
            "mesh" : 5,
            "name" : "Cube.017",
            "translation" : [
                0,
                -0.44176942110061646,
                0.20526662468910217
            ]
        },
        {
            "mesh" : 6,
            "name" : "Cube.018",
            "translation" : [
                0,
                -0.44176942110061646,
                -0.2150837481021881
            ]
        },
        {
            "mesh" : 7,
            "name" : "Cube.019",
            "translation" : [
                0,
                0.8656744360923767,
                -0.2641874849796295
            ]
        },
        {
            "mesh" : 8,
            "name" : "Cube.020",
            "translation" : [
                0.18912091851234436,
                -0.44176942110061646,
                -0.008611285127699375
            ]
        },
        {
            "mesh" : 9,
            "name" : "Cube.021",
            "translation" : [
                -0.19026827812194824,
                -0.44176942110061646,
                -0.008611285127699375
            ]
        },
        {
            "mesh" : 10,
            "name" : "Cube.022",
            "translation" : [
                0.1926441490650177,
                0.13489502668380737,
                -0.017539571970701218
            ]
        },
        {
            "mesh" : 11,
            "name" : "Cube.023",
            "translation" : [
                -0.19053635001182556,
                0.13489502668380737,
                -0.017539571970701218
            ]
        },
        {
            "mesh" : 12,
            "name" : "Cube.009",
            "translation" : [
                0.18912091851234436,
                -0.44176942110061646,
                -0.008611285127699375
            ]
        }
    ],
    "meshes" : [
        {
            "name" : "Cube.024",
            "primitives" : [
                {
                    "attributes" : {
                        "POSITION" : 0,
                        "NORMAL" : 1,
                        "TEXCOORD_0" : 2
                    },
                    "indices" : 3
                }
            ]
        },
        {
            "name" : "Cube.025",
            "primitives" : [
                {
                    "attributes" : {
                        "POSITION" : 4,
                        "NORMAL" : 5,
                        "TEXCOORD_0" : 6
                    },
                    "indices" : 7
                }
            ]
        },
        {
            "name" : "Cube.026",
            "primitives" : [
                {
                    "attributes" : {
                        "POSITION" : 8,
                        "NORMAL" : 9,
                        "TEXCOORD_0" : 10
                    },
                    "indices" : 7
                }
            ]
        },
        {
            "name" : "Cube.027",
            "primitives" : [
                {
                    "attributes" : {
                        "POSITION" : 11,
                        "NORMAL" : 12,
                        "TEXCOORD_0" : 13
                    },
                    "indices" : 14
                }
            ]
        },
        {
            "name" : "Cube.028",
            "primitives" : [
                {
                    "attributes" : {
                        "POSITION" : 15,
                        "NORMAL" : 16,
                        "TEXCOORD_0" : 17
                    },
                    "indices" : 7
                }
            ]
        },
        {
            "name" : "Cube.029",
            "primitives" : [
                {
                    "attributes" : {
                        "POSITION" : 18,
                        "NORMAL" : 19,
                        "TEXCOORD_0" : 20
                    },
                    "indices" : 7
                }
            ]
        },
        {
            "name" : "Cube.030",
            "primitives" : [
                {
                    "attributes" : {
                        "POSITION" : 21,
                        "NORMAL" : 22,
                        "TEXCOORD_0" : 23
                    },
                    "indices" : 7
                }
            ]
        },
        {
            "name" : "Cube.031",
            "primitives" : [
                {
                    "attributes" : {
                        "POSITION" : 24,
                        "NORMAL" : 25,
                        "TEXCOORD_0" : 26
                    },
                    "indices" : 7
                }
            ]
        },
        {
            "name" : "Cube.032",
            "primitives" : [
                {
                    "attributes" : {
                        "POSITION" : 27,
                        "NORMAL" : 28,
                        "TEXCOORD_0" : 29
                    },
                    "indices" : 30
                }
            ]
        },
        {
            "name" : "Cube.033",
            "primitives" : [
                {
                    "attributes" : {
                        "POSITION" : 31,
                        "NORMAL" : 32,
                        "TEXCOORD_0" : 33
                    },
                    "indices" : 30
                }
            ]
        },
        {
            "name" : "Cube.034",
            "primitives" : [
                {
                    "attributes" : {
                        "POSITION" : 34,
                        "NORMAL" : 35,
                        "TEXCOORD_0" : 36
                    },
                    "indices" : 30
                }
            ]
        },
        {
            "name" : "Cube.035",
            "primitives" : [
                {
                    "attributes" : {
                        "POSITION" : 37,
                        "NORMAL" : 38,
                        "TEXCOORD_0" : 39
                    },
                    "indices" : 30
                }
            ]
        },
        {
            "name" : "Cube.010",
            "primitives" : [
                {
                    "attributes" : {
                        "POSITION" : 40,
                        "NORMAL" : 41,
                        "TEXCOORD_0" : 42
                    },
                    "indices" : 43
                }
            ]
        }
    ],
    "accessors" : [
        {
            "bufferView" : 0,
            "componentType" : 5126,
            "count" : 62,
            "max" : [
                0.019999999552965164,
                0.5,
                0.019999999552965164
            ],
            "min" : [
                -0.019999999552965164,
                -0.5,
                -0.07622520625591278
            ],
            "type" : "VEC3"
        },
        {
            "bufferView" : 1,
            "componentType" : 5126,
            "count" : 62,
            "type" : "VEC3"
        },
        {
            "bufferView" : 2,
            "componentType" : 5126,
            "count" : 62,
            "type" : "VEC2"
        },
        {
            "bufferView" : 3,
            "componentType" : 5123,
            "count" : 108,
            "type" : "SCALAR"
        },
        {
            "bufferView" : 4,
            "componentType" : 5126,
            "count" : 24,
            "max" : [
                0.21812686324119568,
                0.46025556325912476,
                0.22562356293201447
            ],
            "min" : [
                0.17812687158584595,
                0.00025554001331329346,
                0.18562357127666473
            ],
            "type" : "VEC3"
        },
        {
            "bufferView" : 5,
            "componentType" : 5126,
            "count" : 24,
            "type" : "VEC3"
        },
        {
            "bufferView" : 6,
            "componentType" : 5126,
            "count" : 24,
            "type" : "VEC2"
        },
        {
            "bufferView" : 7,
            "componentType" : 5123,
            "count" : 36,
            "type" : "SCALAR"
        },
        {
            "bufferView" : 8,
            "componentType" : 5126,
            "count" : 24,
            "max" : [
                0.019999999552965164,
                0.23000000417232513,
                0.019999999552965164
            ],
            "min" : [
                -0.019999999552965164,
                -0.23000000417232513,
                -0.019999999552965164
            ],
            "type" : "VEC3"
        },
        {
            "bufferView" : 9,
            "componentType" : 5126,
            "count" : 24,
            "type" : "VEC3"
        },
        {
            "bufferView" : 10,
            "componentType" : 5126,
            "count" : 24,
            "type" : "VEC2"
        },
        {
            "bufferView" : 11,
            "componentType" : 5126,
            "count" : 60,
            "max" : [
                0.20887883007526398,
                1.0001318454742432,
                -0.20226097106933594
            ],
            "min" : [
                0.16887883841991425,
                0.00013190507888793945,
                -0.2984861731529236
            ],
            "type" : "VEC3"
        },
        {
            "bufferView" : 12,
            "componentType" : 5126,
            "count" : 60,
            "type" : "VEC3"
        },
        {
            "bufferView" : 13,
            "componentType" : 5126,
            "count" : 60,
            "type" : "VEC2"
        },
        {
            "bufferView" : 14,
            "componentType" : 5123,
            "count" : 108,
            "type" : "SCALAR"
        },
        {
            "bufferView" : 15,
            "componentType" : 5126,
            "count" : 24,
            "max" : [
                0.22499999403953552,
                0.4800482392311096,
                0.23499999940395355
            ],
            "min" : [
                -0.22499999403953552,
                0.4534195065498352,
                -0.23499999940395355
            ],
            "type" : "VEC3"
        },
        {
            "bufferView" : 16,
            "componentType" : 5126,
            "count" : 24,
            "type" : "VEC3"
        },
        {
            "bufferView" : 17,
            "componentType" : 5126,
            "count" : 24,
            "type" : "VEC2"
        },
        {
            "bufferView" : 18,
            "componentType" : 5126,
            "count" : 24,
            "max" : [
                0.18674997985363007,
                0.898550271987915,
                0.014099986292421818
            ],
            "min" : [
                -0.18674997985363007,
                0.8452928066253662,
                -0.014099986292421818
            ],
            "type" : "VEC3"
        },
        {
            "bufferView" : 19,
            "componentType" : 5126,
            "count" : 24,
            "type" : "VEC3"
        },
        {
            "bufferView" : 20,
            "componentType" : 5126,
            "count" : 24,
            "type" : "VEC2"
        },
        {
            "bufferView" : 21,
            "componentType" : 5126,
            "count" : 24,
            "max" : [
                0.18674997985363007,
                0.898550271987915,
                0.014099986292421818
            ],
            "min" : [
                -0.18674997985363007,
                0.8452928066253662,
                -0.014099986292421818
            ],
            "type" : "VEC3"
        },
        {
            "bufferView" : 22,
            "componentType" : 5126,
            "count" : 24,
            "type" : "VEC3"
        },
        {
            "bufferView" : 23,
            "componentType" : 5126,
            "count" : 24,
            "type" : "VEC2"
        },
        {
            "bufferView" : 24,
            "componentType" : 5126,
            "count" : 24,
            "max" : [
                0.18674997985363007,
                0.08089142292737961,
                0.022037699818611145
            ],
            "min" : [
                -0.18674997985363007,
                -0.0809246078133583,
                -0.022319164127111435
            ],
            "type" : "VEC3"
        },
        {
            "bufferView" : 25,
            "componentType" : 5126,
            "count" : 24,
            "type" : "VEC3"
        },
        {
            "bufferView" : 26,
            "componentType" : 5126,
            "count" : 24,
            "type" : "VEC2"
        },
        {
            "bufferView" : 27,
            "componentType" : 5126,
            "count" : 24,
            "max" : [
                0.019675981253385544,
                0.898550271987915,
                0.2150958627462387
            ],
            "min" : [
                -0.019349437206983566,
                0.8452928066253662,
                -0.2158259004354477
            ],
            "type" : "VEC3"
        },
        {
            "bufferView" : 28,
            "componentType" : 5126,
            "count" : 24,
            "type" : "VEC3"
        },
        {
            "bufferView" : 29,
            "componentType" : 5126,
            "count" : 24,
            "type" : "VEC2"
        },
        {
            "bufferView" : 30,
            "componentType" : 5123,
            "count" : 36,
            "type" : "SCALAR"
        },
        {
            "bufferView" : 31,
            "componentType" : 5126,
            "count" : 24,
            "max" : [
                0.019349437206983566,
                0.898550271987915,
                0.2150958627462387
            ],
            "min" : [
                -0.019675981253385544,
                0.8452928066253662,
                -0.2158259004354477
            ],
            "type" : "VEC3"
        },
        {
            "bufferView" : 32,
            "componentType" : 5126,
            "count" : 24,
            "type" : "VEC3"
        },
        {
            "bufferView" : 33,
            "componentType" : 5126,
            "count" : 24,
            "type" : "VEC2"
        },
        {
            "bufferView" : 34,
            "componentType" : 5126,
            "count" : 24,
            "max" : [
                0.016044946387410164,
                0.0180258359760046,
                0.2309582531452179
            ],
            "min" : [
                -0.015862222760915756,
                -0.0180253516882658,
                -0.23195143043994904
            ],
            "type" : "VEC3"
        },
        {
            "bufferView" : 35,
            "componentType" : 5126,
            "count" : 24,
            "type" : "VEC3"
        },
        {
            "bufferView" : 36,
            "componentType" : 5126,
            "count" : 24,
            "type" : "VEC2"
        },
        {
            "bufferView" : 37,
            "componentType" : 5126,
            "count" : 24,
            "max" : [
                0.015680862590670586,
                0.0180258359760046,
                0.230971559882164
            ],
            "min" : [
                -0.015852278098464012,
                -0.0180253516882658,
                -0.23194873332977295
            ],
            "type" : "VEC3"
        },
        {
            "bufferView" : 38,
            "componentType" : 5126,
            "count" : 24,
            "type" : "VEC3"
        },
        {
            "bufferView" : 39,
            "componentType" : 5126,
            "count" : 24,
            "type" : "VEC2"
        },
        {
            "bufferView" : 40,
            "componentType" : 5126,
            "count" : 1492,
            "max" : [
                0.035767048597335815,
                1.4419013261795044,
                0.24361129105091095
            ],
            "min" : [
                -0.41400888562202454,
                0.4419013261795044,
                -0.28944605588912964
            ],
            "type" : "VEC3"
        },
        {
            "bufferView" : 41,
            "componentType" : 5126,
            "count" : 1492,
            "type" : "VEC3"
        },
        {
            "bufferView" : 42,
            "componentType" : 5126,
            "count" : 1492,
            "type" : "VEC2"
        },
        {
            "bufferView" : 43,
            "componentType" : 5123,
            "count" : 2160,
            "type" : "SCALAR"
        }
    ],
    "bufferViews" : [
        {
            "buffer" : 0,
            "byteLength" : 744,
            "byteOffset" : 0
        },
        {
            "buffer" : 0,
            "byteLength" : 744,
            "byteOffset" : 744
        },
        {
            "buffer" : 0,
            "byteLength" : 496,
            "byteOffset" : 1488
        },
        {
            "buffer" : 0,
            "byteLength" : 216,
            "byteOffset" : 1984
        },
        {
            "buffer" : 0,
            "byteLength" : 288,
            "byteOffset" : 2200
        },
        {
            "buffer" : 0,
            "byteLength" : 288,
            "byteOffset" : 2488
        },
        {
            "buffer" : 0,
            "byteLength" : 192,
            "byteOffset" : 2776
        },
        {
            "buffer" : 0,
            "byteLength" : 72,
            "byteOffset" : 2968
        },
        {
            "buffer" : 0,
            "byteLength" : 288,
            "byteOffset" : 3040
        },
        {
            "buffer" : 0,
            "byteLength" : 288,
            "byteOffset" : 3328
        },
        {
            "buffer" : 0,
            "byteLength" : 192,
            "byteOffset" : 3616
        },
        {
            "buffer" : 0,
            "byteLength" : 720,
            "byteOffset" : 3808
        },
        {
            "buffer" : 0,
            "byteLength" : 720,
            "byteOffset" : 4528
        },
        {
            "buffer" : 0,
            "byteLength" : 480,
            "byteOffset" : 5248
        },
        {
            "buffer" : 0,
            "byteLength" : 216,
            "byteOffset" : 5728
        },
        {
            "buffer" : 0,
            "byteLength" : 288,
            "byteOffset" : 5944
        },
        {
            "buffer" : 0,
            "byteLength" : 288,
            "byteOffset" : 6232
        },
        {
            "buffer" : 0,
            "byteLength" : 192,
            "byteOffset" : 6520
        },
        {
            "buffer" : 0,
            "byteLength" : 288,
            "byteOffset" : 6712
        },
        {
            "buffer" : 0,
            "byteLength" : 288,
            "byteOffset" : 7000
        },
        {
            "buffer" : 0,
            "byteLength" : 192,
            "byteOffset" : 7288
        },
        {
            "buffer" : 0,
            "byteLength" : 288,
            "byteOffset" : 7480
        },
        {
            "buffer" : 0,
            "byteLength" : 288,
            "byteOffset" : 7768
        },
        {
            "buffer" : 0,
            "byteLength" : 192,
            "byteOffset" : 8056
        },
        {
            "buffer" : 0,
            "byteLength" : 288,
            "byteOffset" : 8248
        },
        {
            "buffer" : 0,
            "byteLength" : 288,
            "byteOffset" : 8536
        },
        {
            "buffer" : 0,
            "byteLength" : 192,
            "byteOffset" : 8824
        },
        {
            "buffer" : 0,
            "byteLength" : 288,
            "byteOffset" : 9016
        },
        {
            "buffer" : 0,
            "byteLength" : 288,
            "byteOffset" : 9304
        },
        {
            "buffer" : 0,
            "byteLength" : 192,
            "byteOffset" : 9592
        },
        {
            "buffer" : 0,
            "byteLength" : 72,
            "byteOffset" : 9784
        },
        {
            "buffer" : 0,
            "byteLength" : 288,
            "byteOffset" : 9856
        },
        {
            "buffer" : 0,
            "byteLength" : 288,
            "byteOffset" : 10144
        },
        {
            "buffer" : 0,
            "byteLength" : 192,
            "byteOffset" : 10432
        },
        {
            "buffer" : 0,
            "byteLength" : 288,
            "byteOffset" : 10624
        },
        {
            "buffer" : 0,
            "byteLength" : 288,
            "byteOffset" : 10912
        },
        {
            "buffer" : 0,
            "byteLength" : 192,
            "byteOffset" : 11200
        },
        {
            "buffer" : 0,
            "byteLength" : 288,
            "byteOffset" : 11392
        },
        {
            "buffer" : 0,
            "byteLength" : 288,
            "byteOffset" : 11680
        },
        {
            "buffer" : 0,
            "byteLength" : 192,
            "byteOffset" : 11968
        },
        {
            "buffer" : 0,
            "byteLength" : 17904,
            "byteOffset" : 12160
        },
        {
            "buffer" : 0,
            "byteLength" : 17904,
            "byteOffset" : 30064
        },
        {
            "buffer" : 0,
            "byteLength" : 11936,
            "byteOffset" : 47968
        },
        {
            "buffer" : 0,
            "byteLength" : 4320,
            "byteOffset" : 59904
        }
    ],
    "buffers" : [
        {
            "byteLength" : 64224,
            "uri" : "chair-box.bin"
        }
    ]
}
