{
    "asset" : {
        "copyright" : "Creative Commons Attribution 4.0 International Public License 2021 V-Sekai. 2019 Wonder Unit. See https://github.com/V-Sekai/blue-tin-fox-models for attributed files.",
        "generator" : "Khronos glTF Blender I/O v1.6.16",
        "version" : "2.0"
    },
    "scene" : 0,
    "scenes" : [
        {
            "extras" : {
                "M3" : {
                    "pass_through" : 0,
                    "show_edit_mesh_wire" : 0
                },
                "flip_fluid" : {
                    "is_custom_icons_loaded" : 1
                },
                "flip_fluid_material_library" : {
                    "library_path" : "C:\\Users\\ferre\\AppData\\Roaming\\Blender Foundation\\Blender\\2.80\\scripts\\addons\\flip_fluids_addon\\materials\\material_library",
                    "material_list" : [
                        {
                            "name" : "FF Apple Juice",
                            "description" : "",
                            "path" : "C:\\Users\\ferre\\AppData\\Roaming\\Blender Foundation\\Blender\\2.80\\scripts\\addons\\flip_fluids_addon\\materials\\material_library\\surface\\FF Apple Juice.blend",
                            "type" : 0,
                            "icon_id" : 1396,
                            "imported_icon_id" : 1397
                        },
                        {
                            "name" : "FF Beer",
                            "description" : "",
                            "path" : "C:\\Users\\ferre\\AppData\\Roaming\\Blender Foundation\\Blender\\2.80\\scripts\\addons\\flip_fluids_addon\\materials\\material_library\\surface\\FF Beer.blend",
                            "type" : 0,
                            "icon_id" : 1398,
                            "imported_icon_id" : 1399
                        },
                        {
                            "name" : "FF Blood",
                            "description" : "",
                            "path" : "C:\\Users\\ferre\\AppData\\Roaming\\Blender Foundation\\Blender\\2.80\\scripts\\addons\\flip_fluids_addon\\materials\\material_library\\surface\\FF Blood.blend",
                            "type" : 0,
                            "icon_id" : 1400,
                            "imported_icon_id" : 1401
                        },
                        {
                            "name" : "FF Caramel",
                            "description" : "",
                            "path" : "C:\\Users\\ferre\\AppData\\Roaming\\Blender Foundation\\Blender\\2.80\\scripts\\addons\\flip_fluids_addon\\materials\\material_library\\surface\\FF Caramel.blend",
                            "type" : 0,
                            "icon_id" : 1402,
                            "imported_icon_id" : 1403
                        },
                        {
                            "name" : "FF Chocolate",
                            "description" : "",
                            "path" : "C:\\Users\\ferre\\AppData\\Roaming\\Blender Foundation\\Blender\\2.80\\scripts\\addons\\flip_fluids_addon\\materials\\material_library\\surface\\FF Chocolate.blend",
                            "type" : 0,
                            "icon_id" : 1404,
                            "imported_icon_id" : 1405
                        },
                        {
                            "name" : "FF Coffee",
                            "description" : "",
                            "path" : "C:\\Users\\ferre\\AppData\\Roaming\\Blender Foundation\\Blender\\2.80\\scripts\\addons\\flip_fluids_addon\\materials\\material_library\\surface\\FF Coffee.blend",
                            "type" : 0,
                            "icon_id" : 1406,
                            "imported_icon_id" : 1407
                        },
                        {
                            "name" : "FF Copper",
                            "description" : "",
                            "path" : "C:\\Users\\ferre\\AppData\\Roaming\\Blender Foundation\\Blender\\2.80\\scripts\\addons\\flip_fluids_addon\\materials\\material_library\\surface\\FF Copper.blend",
                            "type" : 0,
                            "icon_id" : 1408,
                            "imported_icon_id" : 1409
                        },
                        {
                            "name" : "FF Milk",
                            "description" : "",
                            "path" : "C:\\Users\\ferre\\AppData\\Roaming\\Blender Foundation\\Blender\\2.80\\scripts\\addons\\flip_fluids_addon\\materials\\material_library\\surface\\FF Milk.blend",
                            "type" : 0,
                            "icon_id" : 1410,
                            "imported_icon_id" : 1411
                        },
                        {
                            "name" : "FF Orange Juice",
                            "description" : "",
                            "path" : "C:\\Users\\ferre\\AppData\\Roaming\\Blender Foundation\\Blender\\2.80\\scripts\\addons\\flip_fluids_addon\\materials\\material_library\\surface\\FF Orange Juice.blend",
                            "type" : 0,
                            "icon_id" : 1412,
                            "imported_icon_id" : 1413
                        },
                        {
                            "name" : "FF Water (clear)",
                            "description" : "",
                            "path" : "C:\\Users\\ferre\\AppData\\Roaming\\Blender Foundation\\Blender\\2.80\\scripts\\addons\\flip_fluids_addon\\materials\\material_library\\surface\\FF Water (clear).blend",
                            "type" : 0,
                            "icon_id" : 1414,
                            "imported_icon_id" : 1415
                        },
                        {
                            "name" : "FF Water (iced)",
                            "description" : "",
                            "path" : "C:\\Users\\ferre\\AppData\\Roaming\\Blender Foundation\\Blender\\2.80\\scripts\\addons\\flip_fluids_addon\\materials\\material_library\\surface\\FF Water (iced).blend",
                            "type" : 0,
                            "icon_id" : 1416,
                            "imported_icon_id" : 1417
                        },
                        {
                            "name" : "FF Water (ocean 1)",
                            "description" : "",
                            "path" : "C:\\Users\\ferre\\AppData\\Roaming\\Blender Foundation\\Blender\\2.80\\scripts\\addons\\flip_fluids_addon\\materials\\material_library\\surface\\FF Water (ocean 1).blend",
                            "type" : 0,
                            "icon_id" : 1418,
                            "imported_icon_id" : 1419
                        },
                        {
                            "name" : "FF Water (ocean 2)",
                            "description" : "",
                            "path" : "C:\\Users\\ferre\\AppData\\Roaming\\Blender Foundation\\Blender\\2.80\\scripts\\addons\\flip_fluids_addon\\materials\\material_library\\surface\\FF Water (ocean 2).blend",
                            "type" : 0,
                            "icon_id" : 1420,
                            "imported_icon_id" : 1421
                        },
                        {
                            "name" : "FF Water (ocean volumetric)",
                            "description" : "",
                            "path" : "C:\\Users\\ferre\\AppData\\Roaming\\Blender Foundation\\Blender\\2.80\\scripts\\addons\\flip_fluids_addon\\materials\\material_library\\surface\\FF Water (ocean volumetric).blend",
                            "type" : 0,
                            "icon_id" : 1422,
                            "imported_icon_id" : 1423
                        },
                        {
                            "name" : "FF Wax",
                            "description" : "",
                            "path" : "C:\\Users\\ferre\\AppData\\Roaming\\Blender Foundation\\Blender\\2.80\\scripts\\addons\\flip_fluids_addon\\materials\\material_library\\surface\\FF Wax.blend",
                            "type" : 0,
                            "icon_id" : 1424,
                            "imported_icon_id" : 1425
                        },
                        {
                            "name" : "FF Wine Red",
                            "description" : "",
                            "path" : "C:\\Users\\ferre\\AppData\\Roaming\\Blender Foundation\\Blender\\2.80\\scripts\\addons\\flip_fluids_addon\\materials\\material_library\\surface\\FF Wine Red.blend",
                            "type" : 0,
                            "icon_id" : 1426,
                            "imported_icon_id" : 1427
                        },
                        {
                            "name" : "FF Bubble",
                            "description" : "",
                            "path" : "C:\\Users\\ferre\\AppData\\Roaming\\Blender Foundation\\Blender\\2.80\\scripts\\addons\\flip_fluids_addon\\materials\\material_library\\whitewater\\FF Bubble.blend",
                            "type" : 1,
                            "icon_id" : 1428,
                            "imported_icon_id" : 1429
                        },
                        {
                            "name" : "FF Foam",
                            "description" : "",
                            "path" : "C:\\Users\\ferre\\AppData\\Roaming\\Blender Foundation\\Blender\\2.80\\scripts\\addons\\flip_fluids_addon\\materials\\material_library\\whitewater\\FF Foam.blend",
                            "type" : 1,
                            "icon_id" : 1430,
                            "imported_icon_id" : 1431
                        },
                        {
                            "name" : "FF Spray",
                            "description" : "",
                            "path" : "C:\\Users\\ferre\\AppData\\Roaming\\Blender Foundation\\Blender\\2.80\\scripts\\addons\\flip_fluids_addon\\materials\\material_library\\whitewater\\FF Spray.blend",
                            "type" : 1,
                            "icon_id" : 1432,
                            "imported_icon_id" : 1433
                        }
                    ]
                },
                "DM" : {
                    "revision" : "5c3a5c5c945c9d963f9111b2eef7f475570e4897BM"
                }
            },
            "name" : "Scene",
            "nodes" : [
                0,
                1,
                2,
                3
            ]
        }
    ],
    "nodes" : [
        {
            "extras" : {},
            "mesh" : 0,
            "name" : "Circle",
            "translation" : [
                0,
                0.48767998814582825,
                0
            ]
        },
        {
            "extras" : {},
            "mesh" : 1,
            "name" : "Cube"
        },
        {
            "extras" : {},
            "mesh" : 2,
            "name" : "Circle.001",
            "translation" : [
                0,
                0.5373544692993164,
                0
            ]
        },
        {
            "extras" : {},
            "mesh" : 3,
            "name" : "Circle.002",
            "scale" : [
                1,
                1.2990343570709229,
                1
            ],
            "translation" : [
                0,
                0.5148574113845825,
                0
            ]
        }
    ],
    "meshes" : [
        {
            "name" : "Circle",
            "primitives" : [
                {
                    "attributes" : {
                        "POSITION" : 0,
                        "NORMAL" : 1,
                        "TEXCOORD_0" : 2
                    },
                    "indices" : 3
                }
            ]
        },
        {
            "name" : "Cube.003",
            "primitives" : [
                {
                    "attributes" : {
                        "POSITION" : 4,
                        "NORMAL" : 5,
                        "TEXCOORD_0" : 6,
                        "TEXCOORD_1" : 7
                    },
                    "indices" : 8
                }
            ]
        },
        {
            "name" : "Circle.001",
            "primitives" : [
                {
                    "attributes" : {
                        "POSITION" : 9,
                        "NORMAL" : 10,
                        "TEXCOORD_0" : 11
                    },
                    "indices" : 3
                }
            ]
        },
        {
            "name" : "Circle.002",
            "primitives" : [
                {
                    "attributes" : {
                        "POSITION" : 12,
                        "NORMAL" : 13,
                        "TEXCOORD_0" : 14
                    },
                    "indices" : 15
                }
            ]
        }
    ],
    "accessors" : [
        {
            "bufferView" : 0,
            "componentType" : 5126,
            "count" : 1472,
            "max" : [
                0.7268257737159729,
                -1.0473082511452958e-05,
                0.7268257141113281
            ],
            "min" : [
                -0.7268257141113281,
                -0.057067692279815674,
                -0.7268258333206177
            ],
            "type" : "VEC3"
        },
        {
            "bufferView" : 1,
            "componentType" : 5126,
            "count" : 1472,
            "type" : "VEC3"
        },
        {
            "bufferView" : 2,
            "componentType" : 5126,
            "count" : 1472,
            "type" : "VEC2"
        },
        {
            "bufferView" : 3,
            "componentType" : 5123,
            "count" : 8820,
            "type" : "SCALAR"
        },
        {
            "bufferView" : 4,
            "componentType" : 5126,
            "count" : 771,
            "max" : [
                0.5635695457458496,
                0.43740564584732056,
                0.5635695457458496
            ],
            "min" : [
                -0.5635694861412048,
                -0.00039318203926086426,
                -0.5635696053504944
            ],
            "type" : "VEC3"
        },
        {
            "bufferView" : 5,
            "componentType" : 5126,
            "count" : 771,
            "type" : "VEC3"
        },
        {
            "bufferView" : 6,
            "componentType" : 5126,
            "count" : 771,
            "type" : "VEC2"
        },
        {
            "bufferView" : 7,
            "componentType" : 5126,
            "count" : 771,
            "type" : "VEC2"
        },
        {
            "bufferView" : 8,
            "componentType" : 5123,
            "count" : 4092,
            "type" : "SCALAR"
        },
        {
            "bufferView" : 9,
            "componentType" : 5126,
            "count" : 1472,
            "max" : [
                0.3244803249835968,
                -4.675548552768305e-06,
                0.3244802951812744
            ],
            "min" : [
                -0.3244802951812744,
                -0.025477003306150436,
                -0.3244803547859192
            ],
            "type" : "VEC3"
        },
        {
            "bufferView" : 10,
            "componentType" : 5126,
            "count" : 1472,
            "type" : "VEC3"
        },
        {
            "bufferView" : 11,
            "componentType" : 5126,
            "count" : 1472,
            "type" : "VEC2"
        },
        {
            "bufferView" : 12,
            "componentType" : 5126,
            "count" : 512,
            "max" : [
                0.028079234063625336,
                -4.679212725022808e-05,
                0.028079237788915634
            ],
            "min" : [
                -0.028079239651560783,
                -0.025418831035494804,
                -0.028079239651560783
            ],
            "type" : "VEC3"
        },
        {
            "bufferView" : 13,
            "componentType" : 5126,
            "count" : 512,
            "type" : "VEC3"
        },
        {
            "bufferView" : 14,
            "componentType" : 5126,
            "count" : 512,
            "type" : "VEC2"
        },
        {
            "bufferView" : 15,
            "componentType" : 5123,
            "count" : 2688,
            "type" : "SCALAR"
        }
    ],
    "bufferViews" : [
        {
            "buffer" : 0,
            "byteLength" : 17664,
            "byteOffset" : 0
        },
        {
            "buffer" : 0,
            "byteLength" : 17664,
            "byteOffset" : 17664
        },
        {
            "buffer" : 0,
            "byteLength" : 11776,
            "byteOffset" : 35328
        },
        {
            "buffer" : 0,
            "byteLength" : 17640,
            "byteOffset" : 47104
        },
        {
            "buffer" : 0,
            "byteLength" : 9252,
            "byteOffset" : 64744
        },
        {
            "buffer" : 0,
            "byteLength" : 9252,
            "byteOffset" : 73996
        },
        {
            "buffer" : 0,
            "byteLength" : 6168,
            "byteOffset" : 83248
        },
        {
            "buffer" : 0,
            "byteLength" : 6168,
            "byteOffset" : 89416
        },
        {
            "buffer" : 0,
            "byteLength" : 8184,
            "byteOffset" : 95584
        },
        {
            "buffer" : 0,
            "byteLength" : 17664,
            "byteOffset" : 103768
        },
        {
            "buffer" : 0,
            "byteLength" : 17664,
            "byteOffset" : 121432
        },
        {
            "buffer" : 0,
            "byteLength" : 11776,
            "byteOffset" : 139096
        },
        {
            "buffer" : 0,
            "byteLength" : 6144,
            "byteOffset" : 150872
        },
        {
            "buffer" : 0,
            "byteLength" : 6144,
            "byteOffset" : 157016
        },
        {
            "buffer" : 0,
            "byteLength" : 4096,
            "byteOffset" : 163160
        },
        {
            "buffer" : 0,
            "byteLength" : 5376,
            "byteOffset" : 167256
        }
    ],
    "buffers" : [
        {
            "byteLength" : 172632,
            "uri" : "coffee_table_variation.bin"
        }
    ]
}
