{
    "asset" : {
        "copyright" : "Creative Commons Attribution 4.0 International Public License 2021 V-Sekai. 2019 Wonder Unit. See https://github.com/V-Sekai/blue-tin-fox-models for attributed files.",
        "generator" : "Khronos glTF Blender I/O v1.6.16",
        "version" : "2.0"
    },
    "scene" : 0,
    "scenes" : [
        {
            "extras" : {
                "M3" : {
                    "pass_through" : 0,
                    "show_edit_mesh_wire" : 0
                },
                "flip_fluid" : {
                    "is_custom_icons_loaded" : 1
                },
                "flip_fluid_material_library" : {
                    "library_path" : "C:\\Users\\ferre\\AppData\\Roaming\\Blender Foundation\\Blender\\2.80\\scripts\\addons\\flip_fluids_addon\\materials\\material_library",
                    "material_list" : [
                        {
                            "name" : "FF Apple Juice",
                            "description" : "",
                            "path" : "C:\\Users\\ferre\\AppData\\Roaming\\Blender Foundation\\Blender\\2.80\\scripts\\addons\\flip_fluids_addon\\materials\\material_library\\surface\\FF Apple Juice.blend",
                            "type" : 0,
                            "icon_id" : 1286,
                            "imported_icon_id" : 1287
                        },
                        {
                            "name" : "FF Beer",
                            "description" : "",
                            "path" : "C:\\Users\\ferre\\AppData\\Roaming\\Blender Foundation\\Blender\\2.80\\scripts\\addons\\flip_fluids_addon\\materials\\material_library\\surface\\FF Beer.blend",
                            "type" : 0,
                            "icon_id" : 1288,
                            "imported_icon_id" : 1289
                        },
                        {
                            "name" : "FF Blood",
                            "description" : "",
                            "path" : "C:\\Users\\ferre\\AppData\\Roaming\\Blender Foundation\\Blender\\2.80\\scripts\\addons\\flip_fluids_addon\\materials\\material_library\\surface\\FF Blood.blend",
                            "type" : 0,
                            "icon_id" : 1290,
                            "imported_icon_id" : 1291
                        },
                        {
                            "name" : "FF Caramel",
                            "description" : "",
                            "path" : "C:\\Users\\ferre\\AppData\\Roaming\\Blender Foundation\\Blender\\2.80\\scripts\\addons\\flip_fluids_addon\\materials\\material_library\\surface\\FF Caramel.blend",
                            "type" : 0,
                            "icon_id" : 1292,
                            "imported_icon_id" : 1293
                        },
                        {
                            "name" : "FF Chocolate",
                            "description" : "",
                            "path" : "C:\\Users\\ferre\\AppData\\Roaming\\Blender Foundation\\Blender\\2.80\\scripts\\addons\\flip_fluids_addon\\materials\\material_library\\surface\\FF Chocolate.blend",
                            "type" : 0,
                            "icon_id" : 1294,
                            "imported_icon_id" : 1295
                        },
                        {
                            "name" : "FF Coffee",
                            "description" : "",
                            "path" : "C:\\Users\\ferre\\AppData\\Roaming\\Blender Foundation\\Blender\\2.80\\scripts\\addons\\flip_fluids_addon\\materials\\material_library\\surface\\FF Coffee.blend",
                            "type" : 0,
                            "icon_id" : 1296,
                            "imported_icon_id" : 1297
                        },
                        {
                            "name" : "FF Copper",
                            "description" : "",
                            "path" : "C:\\Users\\ferre\\AppData\\Roaming\\Blender Foundation\\Blender\\2.80\\scripts\\addons\\flip_fluids_addon\\materials\\material_library\\surface\\FF Copper.blend",
                            "type" : 0,
                            "icon_id" : 1298,
                            "imported_icon_id" : 1299
                        },
                        {
                            "name" : "FF Milk",
                            "description" : "",
                            "path" : "C:\\Users\\ferre\\AppData\\Roaming\\Blender Foundation\\Blender\\2.80\\scripts\\addons\\flip_fluids_addon\\materials\\material_library\\surface\\FF Milk.blend",
                            "type" : 0,
                            "icon_id" : 1300,
                            "imported_icon_id" : 1301
                        },
                        {
                            "name" : "FF Orange Juice",
                            "description" : "",
                            "path" : "C:\\Users\\ferre\\AppData\\Roaming\\Blender Foundation\\Blender\\2.80\\scripts\\addons\\flip_fluids_addon\\materials\\material_library\\surface\\FF Orange Juice.blend",
                            "type" : 0,
                            "icon_id" : 1302,
                            "imported_icon_id" : 1303
                        },
                        {
                            "name" : "FF Water (clear)",
                            "description" : "",
                            "path" : "C:\\Users\\ferre\\AppData\\Roaming\\Blender Foundation\\Blender\\2.80\\scripts\\addons\\flip_fluids_addon\\materials\\material_library\\surface\\FF Water (clear).blend",
                            "type" : 0,
                            "icon_id" : 1304,
                            "imported_icon_id" : 1305
                        },
                        {
                            "name" : "FF Water (iced)",
                            "description" : "",
                            "path" : "C:\\Users\\ferre\\AppData\\Roaming\\Blender Foundation\\Blender\\2.80\\scripts\\addons\\flip_fluids_addon\\materials\\material_library\\surface\\FF Water (iced).blend",
                            "type" : 0,
                            "icon_id" : 1306,
                            "imported_icon_id" : 1307
                        },
                        {
                            "name" : "FF Water (ocean 1)",
                            "description" : "",
                            "path" : "C:\\Users\\ferre\\AppData\\Roaming\\Blender Foundation\\Blender\\2.80\\scripts\\addons\\flip_fluids_addon\\materials\\material_library\\surface\\FF Water (ocean 1).blend",
                            "type" : 0,
                            "icon_id" : 1308,
                            "imported_icon_id" : 1309
                        },
                        {
                            "name" : "FF Water (ocean 2)",
                            "description" : "",
                            "path" : "C:\\Users\\ferre\\AppData\\Roaming\\Blender Foundation\\Blender\\2.80\\scripts\\addons\\flip_fluids_addon\\materials\\material_library\\surface\\FF Water (ocean 2).blend",
                            "type" : 0,
                            "icon_id" : 1310,
                            "imported_icon_id" : 1311
                        },
                        {
                            "name" : "FF Water (ocean volumetric)",
                            "description" : "",
                            "path" : "C:\\Users\\ferre\\AppData\\Roaming\\Blender Foundation\\Blender\\2.80\\scripts\\addons\\flip_fluids_addon\\materials\\material_library\\surface\\FF Water (ocean volumetric).blend",
                            "type" : 0,
                            "icon_id" : 1312,
                            "imported_icon_id" : 1313
                        },
                        {
                            "name" : "FF Wax",
                            "description" : "",
                            "path" : "C:\\Users\\ferre\\AppData\\Roaming\\Blender Foundation\\Blender\\2.80\\scripts\\addons\\flip_fluids_addon\\materials\\material_library\\surface\\FF Wax.blend",
                            "type" : 0,
                            "icon_id" : 1314,
                            "imported_icon_id" : 1315
                        },
                        {
                            "name" : "FF Wine Red",
                            "description" : "",
                            "path" : "C:\\Users\\ferre\\AppData\\Roaming\\Blender Foundation\\Blender\\2.80\\scripts\\addons\\flip_fluids_addon\\materials\\material_library\\surface\\FF Wine Red.blend",
                            "type" : 0,
                            "icon_id" : 1316,
                            "imported_icon_id" : 1317
                        },
                        {
                            "name" : "FF Bubble",
                            "description" : "",
                            "path" : "C:\\Users\\ferre\\AppData\\Roaming\\Blender Foundation\\Blender\\2.80\\scripts\\addons\\flip_fluids_addon\\materials\\material_library\\whitewater\\FF Bubble.blend",
                            "type" : 1,
                            "icon_id" : 1318,
                            "imported_icon_id" : 1319
                        },
                        {
                            "name" : "FF Foam",
                            "description" : "",
                            "path" : "C:\\Users\\ferre\\AppData\\Roaming\\Blender Foundation\\Blender\\2.80\\scripts\\addons\\flip_fluids_addon\\materials\\material_library\\whitewater\\FF Foam.blend",
                            "type" : 1,
                            "icon_id" : 1320,
                            "imported_icon_id" : 1321
                        },
                        {
                            "name" : "FF Spray",
                            "description" : "",
                            "path" : "C:\\Users\\ferre\\AppData\\Roaming\\Blender Foundation\\Blender\\2.80\\scripts\\addons\\flip_fluids_addon\\materials\\material_library\\whitewater\\FF Spray.blend",
                            "type" : 1,
                            "icon_id" : 1322,
                            "imported_icon_id" : 1323
                        }
                    ]
                }
            },
            "name" : "Scene",
            "nodes" : [
                0,
                1,
                3,
                4,
                5
            ]
        }
    ],
    "nodes" : [
        {
            "extras" : {},
            "mesh" : 0,
            "name" : "Deck",
            "rotation" : [
                0.5578879117965698,
                0.5578877925872803,
                0.43446648120880127,
                0.43446657061576843
            ],
            "translation" : [
                -0.18381251394748688,
                0.4197688400745392,
                -0.10277149081230164
            ]
        },
        {
            "extras" : {},
            "mesh" : 1,
            "name" : "Plane",
            "translation" : [
                0,
                0,
                3.050447702407837
            ]
        },
        {
            "camera" : 0,
            "name" : "Camera_Orientation",
            "rotation" : [
                -0.7071067690849304,
                0,
                0,
                0.7071067690849304
            ]
        },
        {
            "children" : [
                2
            ],
            "extras" : {},
            "name" : "Camera",
            "rotation" : [
                0.5372235774993896,
                -0.44028526544570923,
                0.39219415187835693,
                0.6030949354171753
            ],
            "translation" : [
                -1.4676824808120728,
                0.5337886810302734,
                0.5178371667861938
            ]
        },
        {
            "extras" : {},
            "mesh" : 2,
            "name" : "Deck.001",
            "rotation" : [
                0.42823463678359985,
                0.4282345473766327,
                -0.5626856684684753,
                -0.5626857876777649
            ],
            "translation" : [
                -0.23104719817638397,
                0.4197688400745392,
                0.2588036358356476
            ]
        },
        {
            "extras" : {},
            "mesh" : 3,
            "name" : "Deck.002",
            "rotation" : [
                -0.05016271024942398,
                0.6044106483459473,
                -0.03817649930715561,
                -0.7941752076148987
            ],
            "translation" : [
                -0.43774208426475525,
                0.0938294529914856,
                0.18515390157699585
            ]
        }
    ],
    "cameras" : [
        {
            "name" : "Camera",
            "perspective" : {
                "aspectRatio" : 0.9653092006033183,
                "yfov" : 0.6911112070083618,
                "zfar" : 1000,
                "znear" : 0.10000000149011612
            },
            "type" : "perspective"
        }
    ],
    "materials" : [
        {
            "doubleSided" : true,
            "extras" : {},
            "name" : "Deck",
            "pbrMetallicRoughness" : {}
        },
        {
            "doubleSided" : true,
            "extras" : {},
            "name" : "Material",
            "pbrMetallicRoughness" : {
                "baseColorFactor" : [
                    0.01341056078672409,
                    0.01341056078672409,
                    0.01341056078672409,
                    1
                ],
                "metallicFactor" : 0,
                "roughnessFactor" : 0.675000011920929
            }
        }
    ],
    "meshes" : [
        {
            "name" : "Deck.001_Plane.010",
            "primitives" : [
                {
                    "attributes" : {
                        "POSITION" : 0,
                        "NORMAL" : 1,
                        "TEXCOORD_0" : 2
                    },
                    "indices" : 3,
                    "material" : 0
                }
            ]
        },
        {
            "name" : "Plane",
            "primitives" : [
                {
                    "attributes" : {
                        "POSITION" : 4,
                        "NORMAL" : 5,
                        "TEXCOORD_0" : 6
                    },
                    "indices" : 7,
                    "material" : 1
                }
            ]
        },
        {
            "name" : "Deck.001_Plane.004",
            "primitives" : [
                {
                    "attributes" : {
                        "POSITION" : 8,
                        "NORMAL" : 9,
                        "TEXCOORD_0" : 10
                    },
                    "indices" : 3,
                    "material" : 0
                }
            ]
        },
        {
            "name" : "Deck.001_Plane.005",
            "primitives" : [
                {
                    "attributes" : {
                        "POSITION" : 11,
                        "NORMAL" : 12,
                        "TEXCOORD_0" : 13
                    },
                    "indices" : 3,
                    "material" : 0
                }
            ]
        }
    ],
    "accessors" : [
        {
            "bufferView" : 0,
            "componentType" : 5126,
            "count" : 16760,
            "max" : [
                0.4051089882850647,
                0.10159999877214432,
                1.997762183236773e-06
            ],
            "min" : [
                -0.4200969934463501,
                -0.10159999877214432,
                -0.12469872832298279
            ],
            "type" : "VEC3"
        },
        {
            "bufferView" : 1,
            "componentType" : 5126,
            "count" : 16760,
            "type" : "VEC3"
        },
        {
            "bufferView" : 2,
            "componentType" : 5126,
            "count" : 16760,
            "type" : "VEC2"
        },
        {
            "bufferView" : 3,
            "componentType" : 5123,
            "count" : 82092,
            "type" : "SCALAR"
        },
        {
            "bufferView" : 4,
            "componentType" : 5126,
            "count" : 31,
            "max" : [
                1.4514710903167725,
                2.458495616912842,
                1.564799427986145
            ],
            "min" : [
                -12.756465911865234,
                0,
                -12.756465911865234
            ],
            "type" : "VEC3"
        },
        {
            "bufferView" : 5,
            "componentType" : 5126,
            "count" : 31,
            "type" : "VEC3"
        },
        {
            "bufferView" : 6,
            "componentType" : 5126,
            "count" : 31,
            "type" : "VEC2"
        },
        {
            "bufferView" : 7,
            "componentType" : 5123,
            "count" : 114,
            "type" : "SCALAR"
        },
        {
            "bufferView" : 8,
            "componentType" : 5126,
            "count" : 16760,
            "max" : [
                0.4051089882850647,
                0.10159999877214432,
                1.997762183236773e-06
            ],
            "min" : [
                -0.4200969934463501,
                -0.10159999877214432,
                -0.12469872832298279
            ],
            "type" : "VEC3"
        },
        {
            "bufferView" : 9,
            "componentType" : 5126,
            "count" : 16760,
            "type" : "VEC3"
        },
        {
            "bufferView" : 10,
            "componentType" : 5126,
            "count" : 16760,
            "type" : "VEC2"
        },
        {
            "bufferView" : 11,
            "componentType" : 5126,
            "count" : 16760,
            "max" : [
                0.4051089882850647,
                0.10159999877214432,
                1.997762183236773e-06
            ],
            "min" : [
                -0.4200969934463501,
                -0.10159999877214432,
                -0.12469872832298279
            ],
            "type" : "VEC3"
        },
        {
            "bufferView" : 12,
            "componentType" : 5126,
            "count" : 16760,
            "type" : "VEC3"
        },
        {
            "bufferView" : 13,
            "componentType" : 5126,
            "count" : 16760,
            "type" : "VEC2"
        }
    ],
    "bufferViews" : [
        {
            "buffer" : 0,
            "byteLength" : 201120,
            "byteOffset" : 0
        },
        {
            "buffer" : 0,
            "byteLength" : 201120,
            "byteOffset" : 201120
        },
        {
            "buffer" : 0,
            "byteLength" : 134080,
            "byteOffset" : 402240
        },
        {
            "buffer" : 0,
            "byteLength" : 164184,
            "byteOffset" : 536320
        },
        {
            "buffer" : 0,
            "byteLength" : 372,
            "byteOffset" : 700504
        },
        {
            "buffer" : 0,
            "byteLength" : 372,
            "byteOffset" : 700876
        },
        {
            "buffer" : 0,
            "byteLength" : 248,
            "byteOffset" : 701248
        },
        {
            "buffer" : 0,
            "byteLength" : 228,
            "byteOffset" : 701496
        },
        {
            "buffer" : 0,
            "byteLength" : 201120,
            "byteOffset" : 701724
        },
        {
            "buffer" : 0,
            "byteLength" : 201120,
            "byteOffset" : 902844
        },
        {
            "buffer" : 0,
            "byteLength" : 134080,
            "byteOffset" : 1103964
        },
        {
            "buffer" : 0,
            "byteLength" : 201120,
            "byteOffset" : 1238044
        },
        {
            "buffer" : 0,
            "byteLength" : 201120,
            "byteOffset" : 1439164
        },
        {
            "buffer" : 0,
            "byteLength" : 134080,
            "byteOffset" : 1640284
        }
    ],
    "buffers" : [
        {
            "byteLength" : 1774364,
            "uri" : "Deck.08.bin"
        }
    ]
}
