{
    "asset" : {
        "copyright" : "Creative Commons Attribution 4.0 International Public License 2021 V-Sekai. 2019 Wonder Unit. See https://github.com/V-Sekai/blue-tin-fox-models for attributed files.",
        "generator" : "Khronos glTF Blender I/O v1.6.16",
        "version" : "2.0"
    },
    "scene" : 0,
    "scenes" : [
        {
            "extras" : {
                "M3" : {
                    "pass_through" : 0,
                    "show_edit_mesh_wire" : 0
                },
                "flip_fluid" : {
                    "is_custom_icons_loaded" : 1
                },
                "flip_fluid_material_library" : {
                    "library_path" : "C:\\Users\\ferre\\AppData\\Roaming\\Blender Foundation\\Blender\\2.80\\scripts\\addons\\flip_fluids_addon\\materials\\material_library",
                    "material_list" : [
                        {
                            "name" : "FF Apple Juice",
                            "description" : "",
                            "path" : "C:\\Users\\ferre\\AppData\\Roaming\\Blender Foundation\\Blender\\2.80\\scripts\\addons\\flip_fluids_addon\\materials\\material_library\\surface\\FF Apple Juice.blend",
                            "type" : 0,
                            "icon_id" : 1286,
                            "imported_icon_id" : 1287
                        },
                        {
                            "name" : "FF Beer",
                            "description" : "",
                            "path" : "C:\\Users\\ferre\\AppData\\Roaming\\Blender Foundation\\Blender\\2.80\\scripts\\addons\\flip_fluids_addon\\materials\\material_library\\surface\\FF Beer.blend",
                            "type" : 0,
                            "icon_id" : 1288,
                            "imported_icon_id" : 1289
                        },
                        {
                            "name" : "FF Blood",
                            "description" : "",
                            "path" : "C:\\Users\\ferre\\AppData\\Roaming\\Blender Foundation\\Blender\\2.80\\scripts\\addons\\flip_fluids_addon\\materials\\material_library\\surface\\FF Blood.blend",
                            "type" : 0,
                            "icon_id" : 1290,
                            "imported_icon_id" : 1291
                        },
                        {
                            "name" : "FF Caramel",
                            "description" : "",
                            "path" : "C:\\Users\\ferre\\AppData\\Roaming\\Blender Foundation\\Blender\\2.80\\scripts\\addons\\flip_fluids_addon\\materials\\material_library\\surface\\FF Caramel.blend",
                            "type" : 0,
                            "icon_id" : 1292,
                            "imported_icon_id" : 1293
                        },
                        {
                            "name" : "FF Chocolate",
                            "description" : "",
                            "path" : "C:\\Users\\ferre\\AppData\\Roaming\\Blender Foundation\\Blender\\2.80\\scripts\\addons\\flip_fluids_addon\\materials\\material_library\\surface\\FF Chocolate.blend",
                            "type" : 0,
                            "icon_id" : 1294,
                            "imported_icon_id" : 1295
                        },
                        {
                            "name" : "FF Coffee",
                            "description" : "",
                            "path" : "C:\\Users\\ferre\\AppData\\Roaming\\Blender Foundation\\Blender\\2.80\\scripts\\addons\\flip_fluids_addon\\materials\\material_library\\surface\\FF Coffee.blend",
                            "type" : 0,
                            "icon_id" : 1296,
                            "imported_icon_id" : 1297
                        },
                        {
                            "name" : "FF Copper",
                            "description" : "",
                            "path" : "C:\\Users\\ferre\\AppData\\Roaming\\Blender Foundation\\Blender\\2.80\\scripts\\addons\\flip_fluids_addon\\materials\\material_library\\surface\\FF Copper.blend",
                            "type" : 0,
                            "icon_id" : 1298,
                            "imported_icon_id" : 1299
                        },
                        {
                            "name" : "FF Milk",
                            "description" : "",
                            "path" : "C:\\Users\\ferre\\AppData\\Roaming\\Blender Foundation\\Blender\\2.80\\scripts\\addons\\flip_fluids_addon\\materials\\material_library\\surface\\FF Milk.blend",
                            "type" : 0,
                            "icon_id" : 1300,
                            "imported_icon_id" : 1301
                        },
                        {
                            "name" : "FF Orange Juice",
                            "description" : "",
                            "path" : "C:\\Users\\ferre\\AppData\\Roaming\\Blender Foundation\\Blender\\2.80\\scripts\\addons\\flip_fluids_addon\\materials\\material_library\\surface\\FF Orange Juice.blend",
                            "type" : 0,
                            "icon_id" : 1302,
                            "imported_icon_id" : 1303
                        },
                        {
                            "name" : "FF Water (clear)",
                            "description" : "",
                            "path" : "C:\\Users\\ferre\\AppData\\Roaming\\Blender Foundation\\Blender\\2.80\\scripts\\addons\\flip_fluids_addon\\materials\\material_library\\surface\\FF Water (clear).blend",
                            "type" : 0,
                            "icon_id" : 1304,
                            "imported_icon_id" : 1305
                        },
                        {
                            "name" : "FF Water (iced)",
                            "description" : "",
                            "path" : "C:\\Users\\ferre\\AppData\\Roaming\\Blender Foundation\\Blender\\2.80\\scripts\\addons\\flip_fluids_addon\\materials\\material_library\\surface\\FF Water (iced).blend",
                            "type" : 0,
                            "icon_id" : 1306,
                            "imported_icon_id" : 1307
                        },
                        {
                            "name" : "FF Water (ocean 1)",
                            "description" : "",
                            "path" : "C:\\Users\\ferre\\AppData\\Roaming\\Blender Foundation\\Blender\\2.80\\scripts\\addons\\flip_fluids_addon\\materials\\material_library\\surface\\FF Water (ocean 1).blend",
                            "type" : 0,
                            "icon_id" : 1308,
                            "imported_icon_id" : 1309
                        },
                        {
                            "name" : "FF Water (ocean 2)",
                            "description" : "",
                            "path" : "C:\\Users\\ferre\\AppData\\Roaming\\Blender Foundation\\Blender\\2.80\\scripts\\addons\\flip_fluids_addon\\materials\\material_library\\surface\\FF Water (ocean 2).blend",
                            "type" : 0,
                            "icon_id" : 1310,
                            "imported_icon_id" : 1311
                        },
                        {
                            "name" : "FF Water (ocean volumetric)",
                            "description" : "",
                            "path" : "C:\\Users\\ferre\\AppData\\Roaming\\Blender Foundation\\Blender\\2.80\\scripts\\addons\\flip_fluids_addon\\materials\\material_library\\surface\\FF Water (ocean volumetric).blend",
                            "type" : 0,
                            "icon_id" : 1312,
                            "imported_icon_id" : 1313
                        },
                        {
                            "name" : "FF Wax",
                            "description" : "",
                            "path" : "C:\\Users\\ferre\\AppData\\Roaming\\Blender Foundation\\Blender\\2.80\\scripts\\addons\\flip_fluids_addon\\materials\\material_library\\surface\\FF Wax.blend",
                            "type" : 0,
                            "icon_id" : 1314,
                            "imported_icon_id" : 1315
                        },
                        {
                            "name" : "FF Wine Red",
                            "description" : "",
                            "path" : "C:\\Users\\ferre\\AppData\\Roaming\\Blender Foundation\\Blender\\2.80\\scripts\\addons\\flip_fluids_addon\\materials\\material_library\\surface\\FF Wine Red.blend",
                            "type" : 0,
                            "icon_id" : 1316,
                            "imported_icon_id" : 1317
                        },
                        {
                            "name" : "FF Bubble",
                            "description" : "",
                            "path" : "C:\\Users\\ferre\\AppData\\Roaming\\Blender Foundation\\Blender\\2.80\\scripts\\addons\\flip_fluids_addon\\materials\\material_library\\whitewater\\FF Bubble.blend",
                            "type" : 1,
                            "icon_id" : 1318,
                            "imported_icon_id" : 1319
                        },
                        {
                            "name" : "FF Foam",
                            "description" : "",
                            "path" : "C:\\Users\\ferre\\AppData\\Roaming\\Blender Foundation\\Blender\\2.80\\scripts\\addons\\flip_fluids_addon\\materials\\material_library\\whitewater\\FF Foam.blend",
                            "type" : 1,
                            "icon_id" : 1320,
                            "imported_icon_id" : 1321
                        },
                        {
                            "name" : "FF Spray",
                            "description" : "",
                            "path" : "C:\\Users\\ferre\\AppData\\Roaming\\Blender Foundation\\Blender\\2.80\\scripts\\addons\\flip_fluids_addon\\materials\\material_library\\whitewater\\FF Spray.blend",
                            "type" : 1,
                            "icon_id" : 1322,
                            "imported_icon_id" : 1323
                        }
                    ]
                }
            },
            "name" : "Scene",
            "nodes" : [
                0
            ]
        }
    ],
    "nodes" : [
        {
            "extras" : {},
            "mesh" : 0,
            "name" : "Plane.002",
            "scale" : [
                1,
                1.026695966720581,
                1
            ],
            "translation" : [
                -0.35473695397377014,
                -0.6055853962898254,
                -0.054440658539533615
            ]
        }
    ],
    "meshes" : [
        {
            "name" : "CUPlane.002",
            "primitives" : [
                {
                    "attributes" : {
                        "POSITION" : 0,
                        "NORMAL" : 1,
                        "TEXCOORD_0" : 2
                    },
                    "indices" : 3
                }
            ]
        }
    ],
    "accessors" : [
        {
            "bufferView" : 0,
            "componentType" : 5126,
            "count" : 3975,
            "max" : [
                0.5183369517326355,
                0.7410016059875488,
                0.2830406427383423
            ],
            "min" : [
                -0.3214883506298065,
                -0.001184999942779541,
                -0.18719276785850525
            ],
            "type" : "VEC3"
        },
        {
            "bufferView" : 1,
            "componentType" : 5126,
            "count" : 3975,
            "type" : "VEC3"
        },
        {
            "bufferView" : 2,
            "componentType" : 5126,
            "count" : 3975,
            "type" : "VEC2"
        },
        {
            "bufferView" : 3,
            "componentType" : 5123,
            "count" : 21720,
            "type" : "SCALAR"
        }
    ],
    "bufferViews" : [
        {
            "buffer" : 0,
            "byteLength" : 47700,
            "byteOffset" : 0
        },
        {
            "buffer" : 0,
            "byteLength" : 47700,
            "byteOffset" : 47700
        },
        {
            "buffer" : 0,
            "byteLength" : 31800,
            "byteOffset" : 95400
        },
        {
            "buffer" : 0,
            "byteLength" : 43440,
            "byteOffset" : 127200
        }
    ],
    "buffers" : [
        {
            "byteLength" : 170640,
            "uri" : "desk.bin"
        }
    ]
}
