{
    "asset" : {
        "copyright" : "Creative Commons Attribution 4.0 International Public License 2021 V-Sekai. 2019 Wonder Unit. See https://github.com/V-Sekai/blue-tin-fox-models for attributed files.",
        "generator" : "Khronos glTF Blender I/O v1.6.16",
        "version" : "2.0"
    },
    "scene" : 0,
    "scenes" : [
        {
            "name" : "Scene",
            "nodes" : [
                0,
                1,
                2,
                3,
                4,
                5,
                6,
                7,
                8
            ]
        }
    ],
    "nodes" : [
        {
            "mesh" : 0,
            "name" : "Cube.001"
        },
        {
            "mesh" : 1,
            "name" : "Cube.003"
        },
        {
            "mesh" : 2,
            "name" : "Icosphere.002"
        },
        {
            "mesh" : 3,
            "name" : "Cylinder.004"
        },
        {
            "mesh" : 4,
            "name" : "Cylinder.005"
        },
        {
            "mesh" : 5,
            "name" : "Icosphere.003",
            "translation" : [
                0,
                0,
                0.00021724030375480652
            ]
        },
        {
            "mesh" : 6,
            "name" : "Cylinder.006",
            "translation" : [
                0,
                0,
                0.00021724030375480652
            ]
        },
        {
            "mesh" : 7,
            "name" : "Cylinder.007",
            "translation" : [
                0,
                0,
                0.00021724030375480652
            ]
        },
        {
            "mesh" : 8,
            "name" : "Cube.002"
        }
    ],
    "materials" : [
        {
            "doubleSided" : true,
            "name" : "Material",
            "pbrMetallicRoughness" : {
                "baseColorFactor" : [
                    0.800000011920929,
                    0.800000011920929,
                    0.800000011920929,
                    1
                ],
                "metallicFactor" : 0,
                "roughnessFactor" : 0.5
            }
        }
    ],
    "meshes" : [
        {
            "name" : "Cube.001",
            "primitives" : [
                {
                    "attributes" : {
                        "POSITION" : 0,
                        "NORMAL" : 1,
                        "TEXCOORD_0" : 2
                    },
                    "indices" : 3,
                    "material" : 0
                }
            ]
        },
        {
            "name" : "Cube.003",
            "primitives" : [
                {
                    "attributes" : {
                        "POSITION" : 4,
                        "NORMAL" : 5,
                        "TEXCOORD_0" : 6
                    },
                    "indices" : 7
                }
            ]
        },
        {
            "name" : "Icosphere.002",
            "primitives" : [
                {
                    "attributes" : {
                        "POSITION" : 8,
                        "NORMAL" : 9,
                        "TEXCOORD_0" : 10
                    },
                    "indices" : 11
                }
            ]
        },
        {
            "name" : "Cylinder.004",
            "primitives" : [
                {
                    "attributes" : {
                        "POSITION" : 12,
                        "NORMAL" : 13,
                        "TEXCOORD_0" : 14
                    },
                    "indices" : 15
                }
            ]
        },
        {
            "name" : "Cylinder.005",
            "primitives" : [
                {
                    "attributes" : {
                        "POSITION" : 16,
                        "NORMAL" : 17,
                        "TEXCOORD_0" : 18
                    },
                    "indices" : 19
                }
            ]
        },
        {
            "name" : "Icosphere.003",
            "primitives" : [
                {
                    "attributes" : {
                        "POSITION" : 20,
                        "NORMAL" : 21,
                        "TEXCOORD_0" : 22
                    },
                    "indices" : 23
                }
            ]
        },
        {
            "name" : "Cylinder.006",
            "primitives" : [
                {
                    "attributes" : {
                        "POSITION" : 24,
                        "NORMAL" : 25,
                        "TEXCOORD_0" : 26
                    },
                    "indices" : 27
                }
            ]
        },
        {
            "name" : "Cylinder.007",
            "primitives" : [
                {
                    "attributes" : {
                        "POSITION" : 28,
                        "NORMAL" : 29,
                        "TEXCOORD_0" : 30
                    },
                    "indices" : 31
                }
            ]
        },
        {
            "name" : "Cube.002",
            "primitives" : [
                {
                    "attributes" : {
                        "POSITION" : 32,
                        "NORMAL" : 33,
                        "TEXCOORD_0" : 34
                    },
                    "indices" : 35,
                    "material" : 0
                }
            ]
        }
    ],
    "accessors" : [
        {
            "bufferView" : 0,
            "componentType" : 5126,
            "count" : 20,
            "max" : [
                0.44999998807907104,
                2.000067710876465,
                0.02250000089406967
            ],
            "min" : [
                -0.44999998807907104,
                6.783008575439453e-05,
                -0.02250000089406967
            ],
            "type" : "VEC3"
        },
        {
            "bufferView" : 1,
            "componentType" : 5126,
            "count" : 20,
            "type" : "VEC3"
        },
        {
            "bufferView" : 2,
            "componentType" : 5126,
            "count" : 20,
            "type" : "VEC2"
        },
        {
            "bufferView" : 3,
            "componentType" : 5123,
            "count" : 36,
            "type" : "SCALAR"
        },
        {
            "bufferView" : 4,
            "componentType" : 5126,
            "count" : 38,
            "max" : [
                0.49994969367980957,
                2.050128221511841,
                0.05750013515353203
            ],
            "min" : [
                -0.5001538991928101,
                -1.1086463928222656e-05,
                -0.05749986693263054
            ],
            "type" : "VEC3"
        },
        {
            "bufferView" : 5,
            "componentType" : 5126,
            "count" : 38,
            "type" : "VEC3"
        },
        {
            "bufferView" : 6,
            "componentType" : 5126,
            "count" : 38,
            "type" : "VEC2"
        },
        {
            "bufferView" : 7,
            "componentType" : 5123,
            "count" : 132,
            "type" : "SCALAR"
        },
        {
            "bufferView" : 8,
            "componentType" : 5126,
            "count" : 205,
            "max" : [
                0.3786381483078003,
                1.0223002433776855,
                0.10386789590120316
            ],
            "min" : [
                0.31962597370147705,
                0.9632881283760071,
                0.04485573619604111
            ],
            "type" : "VEC3"
        },
        {
            "bufferView" : 9,
            "componentType" : 5126,
            "count" : 205,
            "type" : "VEC3"
        },
        {
            "bufferView" : 10,
            "componentType" : 5126,
            "count" : 205,
            "type" : "VEC2"
        },
        {
            "bufferView" : 11,
            "componentType" : 5123,
            "count" : 960,
            "type" : "SCALAR"
        },
        {
            "bufferView" : 12,
            "componentType" : 5126,
            "count" : 127,
            "max" : [
                0.38615936040878296,
                1.0295408964157104,
                0.03182816132903099
            ],
            "min" : [
                0.3125431537628174,
                0.9559246897697449,
                0.00859783310443163
            ],
            "type" : "VEC3"
        },
        {
            "bufferView" : 13,
            "componentType" : 5126,
            "count" : 127,
            "type" : "VEC3"
        },
        {
            "bufferView" : 14,
            "componentType" : 5126,
            "count" : 127,
            "type" : "VEC2"
        },
        {
            "bufferView" : 15,
            "componentType" : 5123,
            "count" : 348,
            "type" : "SCALAR"
        },
        {
            "bufferView" : 16,
            "componentType" : 5126,
            "count" : 82,
            "max" : [
                0.36092132329940796,
                1.0043028593063354,
                0.04802600294351578
            ],
            "min" : [
                0.3377811908721924,
                0.9811626672744751,
                0.030177751556038857
            ],
            "type" : "VEC3"
        },
        {
            "bufferView" : 17,
            "componentType" : 5126,
            "count" : 82,
            "type" : "VEC3"
        },
        {
            "bufferView" : 18,
            "componentType" : 5126,
            "count" : 82,
            "type" : "VEC2"
        },
        {
            "bufferView" : 19,
            "componentType" : 5123,
            "count" : 228,
            "type" : "SCALAR"
        },
        {
            "bufferView" : 20,
            "componentType" : 5126,
            "count" : 205,
            "max" : [
                0.3786381483078003,
                1.0223002433776855,
                -0.04485573619604111
            ],
            "min" : [
                0.31962597370147705,
                0.9632881283760071,
                -0.10386789590120316
            ],
            "type" : "VEC3"
        },
        {
            "bufferView" : 21,
            "componentType" : 5126,
            "count" : 205,
            "type" : "VEC3"
        },
        {
            "bufferView" : 22,
            "componentType" : 5126,
            "count" : 205,
            "type" : "VEC2"
        },
        {
            "bufferView" : 23,
            "componentType" : 5123,
            "count" : 960,
            "type" : "SCALAR"
        },
        {
            "bufferView" : 24,
            "componentType" : 5126,
            "count" : 127,
            "max" : [
                0.38615936040878296,
                1.0295408964157104,
                -0.00859783310443163
            ],
            "min" : [
                0.3125431537628174,
                0.9559246897697449,
                -0.03182816132903099
            ],
            "type" : "VEC3"
        },
        {
            "bufferView" : 25,
            "componentType" : 5126,
            "count" : 127,
            "type" : "VEC3"
        },
        {
            "bufferView" : 26,
            "componentType" : 5126,
            "count" : 127,
            "type" : "VEC2"
        },
        {
            "bufferView" : 27,
            "componentType" : 5123,
            "count" : 348,
            "type" : "SCALAR"
        },
        {
            "bufferView" : 28,
            "componentType" : 5126,
            "count" : 82,
            "max" : [
                0.36092132329940796,
                1.0043028593063354,
                -0.030177751556038857
            ],
            "min" : [
                0.3377811908721924,
                0.9811626672744751,
                -0.04802600294351578
            ],
            "type" : "VEC3"
        },
        {
            "bufferView" : 29,
            "componentType" : 5126,
            "count" : 82,
            "type" : "VEC3"
        },
        {
            "bufferView" : 30,
            "componentType" : 5126,
            "count" : 82,
            "type" : "VEC2"
        },
        {
            "bufferView" : 31,
            "componentType" : 5123,
            "count" : 228,
            "type" : "SCALAR"
        },
        {
            "bufferView" : 32,
            "componentType" : 5126,
            "count" : 1031,
            "max" : [
                0.49994969367980957,
                2.050128221511841,
                0.10386789590120316
            ],
            "min" : [
                -0.5001538991928101,
                -1.1086463928222656e-05,
                -0.10365065932273865
            ],
            "type" : "VEC3"
        },
        {
            "bufferView" : 33,
            "componentType" : 5126,
            "count" : 1031,
            "type" : "VEC3"
        },
        {
            "bufferView" : 34,
            "componentType" : 5126,
            "count" : 1031,
            "type" : "VEC2"
        },
        {
            "bufferView" : 35,
            "componentType" : 5123,
            "count" : 3720,
            "type" : "SCALAR"
        }
    ],
    "bufferViews" : [
        {
            "buffer" : 0,
            "byteLength" : 240,
            "byteOffset" : 0
        },
        {
            "buffer" : 0,
            "byteLength" : 240,
            "byteOffset" : 240
        },
        {
            "buffer" : 0,
            "byteLength" : 160,
            "byteOffset" : 480
        },
        {
            "buffer" : 0,
            "byteLength" : 72,
            "byteOffset" : 640
        },
        {
            "buffer" : 0,
            "byteLength" : 456,
            "byteOffset" : 712
        },
        {
            "buffer" : 0,
            "byteLength" : 456,
            "byteOffset" : 1168
        },
        {
            "buffer" : 0,
            "byteLength" : 304,
            "byteOffset" : 1624
        },
        {
            "buffer" : 0,
            "byteLength" : 264,
            "byteOffset" : 1928
        },
        {
            "buffer" : 0,
            "byteLength" : 2460,
            "byteOffset" : 2192
        },
        {
            "buffer" : 0,
            "byteLength" : 2460,
            "byteOffset" : 4652
        },
        {
            "buffer" : 0,
            "byteLength" : 1640,
            "byteOffset" : 7112
        },
        {
            "buffer" : 0,
            "byteLength" : 1920,
            "byteOffset" : 8752
        },
        {
            "buffer" : 0,
            "byteLength" : 1524,
            "byteOffset" : 10672
        },
        {
            "buffer" : 0,
            "byteLength" : 1524,
            "byteOffset" : 12196
        },
        {
            "buffer" : 0,
            "byteLength" : 1016,
            "byteOffset" : 13720
        },
        {
            "buffer" : 0,
            "byteLength" : 696,
            "byteOffset" : 14736
        },
        {
            "buffer" : 0,
            "byteLength" : 984,
            "byteOffset" : 15432
        },
        {
            "buffer" : 0,
            "byteLength" : 984,
            "byteOffset" : 16416
        },
        {
            "buffer" : 0,
            "byteLength" : 656,
            "byteOffset" : 17400
        },
        {
            "buffer" : 0,
            "byteLength" : 456,
            "byteOffset" : 18056
        },
        {
            "buffer" : 0,
            "byteLength" : 2460,
            "byteOffset" : 18512
        },
        {
            "buffer" : 0,
            "byteLength" : 2460,
            "byteOffset" : 20972
        },
        {
            "buffer" : 0,
            "byteLength" : 1640,
            "byteOffset" : 23432
        },
        {
            "buffer" : 0,
            "byteLength" : 1920,
            "byteOffset" : 25072
        },
        {
            "buffer" : 0,
            "byteLength" : 1524,
            "byteOffset" : 26992
        },
        {
            "buffer" : 0,
            "byteLength" : 1524,
            "byteOffset" : 28516
        },
        {
            "buffer" : 0,
            "byteLength" : 1016,
            "byteOffset" : 30040
        },
        {
            "buffer" : 0,
            "byteLength" : 696,
            "byteOffset" : 31056
        },
        {
            "buffer" : 0,
            "byteLength" : 984,
            "byteOffset" : 31752
        },
        {
            "buffer" : 0,
            "byteLength" : 984,
            "byteOffset" : 32736
        },
        {
            "buffer" : 0,
            "byteLength" : 656,
            "byteOffset" : 33720
        },
        {
            "buffer" : 0,
            "byteLength" : 456,
            "byteOffset" : 34376
        },
        {
            "buffer" : 0,
            "byteLength" : 12372,
            "byteOffset" : 34832
        },
        {
            "buffer" : 0,
            "byteLength" : 12372,
            "byteOffset" : 47204
        },
        {
            "buffer" : 0,
            "byteLength" : 8248,
            "byteOffset" : 59576
        },
        {
            "buffer" : 0,
            "byteLength" : 7440,
            "byteOffset" : 67824
        }
    ],
    "buffers" : [
        {
            "byteLength" : 75264,
            "uri" : "door-single.bin"
        }
    ]
}
