{
    "asset" : {
        "copyright" : "Creative Commons Attribution 4.0 International Public License 2021 V-Sekai. 2019 Wonder Unit. See https://github.com/V-Sekai/blue-tin-fox-models for attributed files.",
        "generator" : "Khronos glTF Blender I/O v1.6.16",
        "version" : "2.0"
    },
    "scene" : 0,
    "scenes" : [
        {
            "name" : "Scene",
            "nodes" : [
                0,
                1
            ]
        }
    ],
    "nodes" : [
        {
            "mesh" : 0,
            "name" : "male-adult-meso.001",
            "translation" : [
                0,
                -1.6601736545562744,
                -0.06557376682758331
            ]
        },
        {
            "mesh" : 1,
            "name" : "male-adult-meso.000",
            "translation" : [
                0,
                -1.6601736545562744,
                -0.06557376682758331
            ]
        }
    ],
    "materials" : [
        {
            "doubleSided" : true,
            "name" : "Material.001",
            "pbrMetallicRoughness" : {
                "baseColorTexture" : {
                    "index" : 0
                },
                "metallicFactor" : 0,
                "roughnessFactor" : 0.5
            }
        },
        {
            "doubleSided" : true,
            "name" : "Material.002",
            "pbrMetallicRoughness" : {
                "metallicFactor" : 0,
                "roughnessFactor" : 0.5
            }
        }
    ],
    "meshes" : [
        {
            "name" : "male-adult.001",
            "primitives" : [
                {
                    "attributes" : {
                        "POSITION" : 0,
                        "NORMAL" : 1,
                        "TEXCOORD_0" : 2
                    },
                    "indices" : 3,
                    "material" : 0
                }
            ]
        },
        {
            "name" : "male-adult.003",
            "primitives" : [
                {
                    "attributes" : {
                        "POSITION" : 4,
                        "NORMAL" : 5,
                        "TEXCOORD_0" : 6
                    },
                    "indices" : 7,
                    "material" : 1
                }
            ]
        }
    ],
    "textures" : [
        {
            "sampler" : 0,
            "source" : 0
        }
    ],
    "images" : [
        {
            "mimeType" : "image/png",
            "name" : "mask",
            "uri" : "mask.png"
        }
    ],
    "accessors" : [
        {
            "bufferView" : 0,
            "componentType" : 5126,
            "count" : 726,
            "max" : [
                0.0760001540184021,
                1.7585924863815308,
                0.11467574536800385
            ],
            "min" : [
                -0.0760001540184021,
                1.5699117183685303,
                0.01943853124976158
            ],
            "type" : "VEC3"
        },
        {
            "bufferView" : 1,
            "componentType" : 5126,
            "count" : 726,
            "type" : "VEC3"
        },
        {
            "bufferView" : 2,
            "componentType" : 5126,
            "count" : 726,
            "type" : "VEC2"
        },
        {
            "bufferView" : 3,
            "componentType" : 5123,
            "count" : 4368,
            "type" : "SCALAR"
        },
        {
            "bufferView" : 4,
            "componentType" : 5126,
            "count" : 363,
            "max" : [
                0.07304108142852783,
                1.757544994354248,
                0.1116815134882927
            ],
            "min" : [
                -0.07304108142852783,
                1.5727661848068237,
                0.01943853124976158
            ],
            "type" : "VEC3"
        },
        {
            "bufferView" : 5,
            "componentType" : 5126,
            "count" : 363,
            "type" : "VEC3"
        },
        {
            "bufferView" : 6,
            "componentType" : 5126,
            "count" : 363,
            "type" : "VEC2"
        },
        {
            "bufferView" : 7,
            "componentType" : 5123,
            "count" : 1902,
            "type" : "SCALAR"
        }
    ],
    "bufferViews" : [
        {
            "buffer" : 0,
            "byteLength" : 8712,
            "byteOffset" : 0
        },
        {
            "buffer" : 0,
            "byteLength" : 8712,
            "byteOffset" : 8712
        },
        {
            "buffer" : 0,
            "byteLength" : 5808,
            "byteOffset" : 17424
        },
        {
            "buffer" : 0,
            "byteLength" : 8736,
            "byteOffset" : 23232
        },
        {
            "buffer" : 0,
            "byteLength" : 4356,
            "byteOffset" : 31968
        },
        {
            "buffer" : 0,
            "byteLength" : 4356,
            "byteOffset" : 36324
        },
        {
            "buffer" : 0,
            "byteLength" : 2904,
            "byteOffset" : 40680
        },
        {
            "buffer" : 0,
            "byteLength" : 3804,
            "byteOffset" : 43584
        }
    ],
    "samplers" : [
        {
            "magFilter" : 9729,
            "minFilter" : 9987
        }
    ],
    "buffers" : [
        {
            "byteLength" : 47388,
            "uri" : "mask.bin"
        }
    ]
}
