{
    "asset" : {
        "copyright" : "Creative Commons Attribution 4.0 International Public License 2021 V-Sekai. 2019 Wonder Unit. See https://github.com/V-Sekai/blue-tin-fox-models for attributed files.",
        "generator" : "Khronos glTF Blender I/O v1.6.16",
        "version" : "2.0"
    },
    "scene" : 0,
    "scenes" : [
        {
            "extras" : {
                "M3" : {
                    "pass_through" : 0,
                    "show_edit_mesh_wire" : 0
                },
                "flip_fluid" : {
                    "is_custom_icons_loaded" : 1
                },
                "flip_fluid_material_library" : {
                    "library_path" : "C:\\Users\\ferre\\AppData\\Roaming\\Blender Foundation\\Blender\\2.80\\scripts\\addons\\flip_fluids_addon\\materials\\material_library",
                    "material_list" : [
                        {
                            "name" : "FF Apple Juice",
                            "description" : "",
                            "path" : "C:\\Users\\ferre\\AppData\\Roaming\\Blender Foundation\\Blender\\2.80\\scripts\\addons\\flip_fluids_addon\\materials\\material_library\\surface\\FF Apple Juice.blend",
                            "type" : 0,
                            "icon_id" : 1443,
                            "imported_icon_id" : 1444
                        },
                        {
                            "name" : "FF Beer",
                            "description" : "",
                            "path" : "C:\\Users\\ferre\\AppData\\Roaming\\Blender Foundation\\Blender\\2.80\\scripts\\addons\\flip_fluids_addon\\materials\\material_library\\surface\\FF Beer.blend",
                            "type" : 0,
                            "icon_id" : 1445,
                            "imported_icon_id" : 1446
                        },
                        {
                            "name" : "FF Blood",
                            "description" : "",
                            "path" : "C:\\Users\\ferre\\AppData\\Roaming\\Blender Foundation\\Blender\\2.80\\scripts\\addons\\flip_fluids_addon\\materials\\material_library\\surface\\FF Blood.blend",
                            "type" : 0,
                            "icon_id" : 1447,
                            "imported_icon_id" : 1448
                        },
                        {
                            "name" : "FF Caramel",
                            "description" : "",
                            "path" : "C:\\Users\\ferre\\AppData\\Roaming\\Blender Foundation\\Blender\\2.80\\scripts\\addons\\flip_fluids_addon\\materials\\material_library\\surface\\FF Caramel.blend",
                            "type" : 0,
                            "icon_id" : 1449,
                            "imported_icon_id" : 1450
                        },
                        {
                            "name" : "FF Chocolate",
                            "description" : "",
                            "path" : "C:\\Users\\ferre\\AppData\\Roaming\\Blender Foundation\\Blender\\2.80\\scripts\\addons\\flip_fluids_addon\\materials\\material_library\\surface\\FF Chocolate.blend",
                            "type" : 0,
                            "icon_id" : 1451,
                            "imported_icon_id" : 1452
                        },
                        {
                            "name" : "FF Coffee",
                            "description" : "",
                            "path" : "C:\\Users\\ferre\\AppData\\Roaming\\Blender Foundation\\Blender\\2.80\\scripts\\addons\\flip_fluids_addon\\materials\\material_library\\surface\\FF Coffee.blend",
                            "type" : 0,
                            "icon_id" : 1453,
                            "imported_icon_id" : 1454
                        },
                        {
                            "name" : "FF Copper",
                            "description" : "",
                            "path" : "C:\\Users\\ferre\\AppData\\Roaming\\Blender Foundation\\Blender\\2.80\\scripts\\addons\\flip_fluids_addon\\materials\\material_library\\surface\\FF Copper.blend",
                            "type" : 0,
                            "icon_id" : 1455,
                            "imported_icon_id" : 1456
                        },
                        {
                            "name" : "FF Milk",
                            "description" : "",
                            "path" : "C:\\Users\\ferre\\AppData\\Roaming\\Blender Foundation\\Blender\\2.80\\scripts\\addons\\flip_fluids_addon\\materials\\material_library\\surface\\FF Milk.blend",
                            "type" : 0,
                            "icon_id" : 1457,
                            "imported_icon_id" : 1458
                        },
                        {
                            "name" : "FF Orange Juice",
                            "description" : "",
                            "path" : "C:\\Users\\ferre\\AppData\\Roaming\\Blender Foundation\\Blender\\2.80\\scripts\\addons\\flip_fluids_addon\\materials\\material_library\\surface\\FF Orange Juice.blend",
                            "type" : 0,
                            "icon_id" : 1459,
                            "imported_icon_id" : 1460
                        },
                        {
                            "name" : "FF Water (clear)",
                            "description" : "",
                            "path" : "C:\\Users\\ferre\\AppData\\Roaming\\Blender Foundation\\Blender\\2.80\\scripts\\addons\\flip_fluids_addon\\materials\\material_library\\surface\\FF Water (clear).blend",
                            "type" : 0,
                            "icon_id" : 1461,
                            "imported_icon_id" : 1462
                        },
                        {
                            "name" : "FF Water (iced)",
                            "description" : "",
                            "path" : "C:\\Users\\ferre\\AppData\\Roaming\\Blender Foundation\\Blender\\2.80\\scripts\\addons\\flip_fluids_addon\\materials\\material_library\\surface\\FF Water (iced).blend",
                            "type" : 0,
                            "icon_id" : 1463,
                            "imported_icon_id" : 1464
                        },
                        {
                            "name" : "FF Water (ocean 1)",
                            "description" : "",
                            "path" : "C:\\Users\\ferre\\AppData\\Roaming\\Blender Foundation\\Blender\\2.80\\scripts\\addons\\flip_fluids_addon\\materials\\material_library\\surface\\FF Water (ocean 1).blend",
                            "type" : 0,
                            "icon_id" : 1465,
                            "imported_icon_id" : 1466
                        },
                        {
                            "name" : "FF Water (ocean 2)",
                            "description" : "",
                            "path" : "C:\\Users\\ferre\\AppData\\Roaming\\Blender Foundation\\Blender\\2.80\\scripts\\addons\\flip_fluids_addon\\materials\\material_library\\surface\\FF Water (ocean 2).blend",
                            "type" : 0,
                            "icon_id" : 1467,
                            "imported_icon_id" : 1468
                        },
                        {
                            "name" : "FF Water (ocean volumetric)",
                            "description" : "",
                            "path" : "C:\\Users\\ferre\\AppData\\Roaming\\Blender Foundation\\Blender\\2.80\\scripts\\addons\\flip_fluids_addon\\materials\\material_library\\surface\\FF Water (ocean volumetric).blend",
                            "type" : 0,
                            "icon_id" : 1469,
                            "imported_icon_id" : 1470
                        },
                        {
                            "name" : "FF Wax",
                            "description" : "",
                            "path" : "C:\\Users\\ferre\\AppData\\Roaming\\Blender Foundation\\Blender\\2.80\\scripts\\addons\\flip_fluids_addon\\materials\\material_library\\surface\\FF Wax.blend",
                            "type" : 0,
                            "icon_id" : 1471,
                            "imported_icon_id" : 1472
                        },
                        {
                            "name" : "FF Wine Red",
                            "description" : "",
                            "path" : "C:\\Users\\ferre\\AppData\\Roaming\\Blender Foundation\\Blender\\2.80\\scripts\\addons\\flip_fluids_addon\\materials\\material_library\\surface\\FF Wine Red.blend",
                            "type" : 0,
                            "icon_id" : 1473,
                            "imported_icon_id" : 1474
                        },
                        {
                            "name" : "FF Bubble",
                            "description" : "",
                            "path" : "C:\\Users\\ferre\\AppData\\Roaming\\Blender Foundation\\Blender\\2.80\\scripts\\addons\\flip_fluids_addon\\materials\\material_library\\whitewater\\FF Bubble.blend",
                            "type" : 1,
                            "icon_id" : 1475,
                            "imported_icon_id" : 1476
                        },
                        {
                            "name" : "FF Foam",
                            "description" : "",
                            "path" : "C:\\Users\\ferre\\AppData\\Roaming\\Blender Foundation\\Blender\\2.80\\scripts\\addons\\flip_fluids_addon\\materials\\material_library\\whitewater\\FF Foam.blend",
                            "type" : 1,
                            "icon_id" : 1477,
                            "imported_icon_id" : 1478
                        },
                        {
                            "name" : "FF Spray",
                            "description" : "",
                            "path" : "C:\\Users\\ferre\\AppData\\Roaming\\Blender Foundation\\Blender\\2.80\\scripts\\addons\\flip_fluids_addon\\materials\\material_library\\whitewater\\FF Spray.blend",
                            "type" : 1,
                            "icon_id" : 1479,
                            "imported_icon_id" : 1480
                        }
                    ]
                },
                "DM" : {
                    "revision" : "5c3a5c5c945c9d963f9111b2eef7f475570e4897BM"
                }
            },
            "name" : "Scene",
            "nodes" : [
                0,
                1
            ]
        }
    ],
    "nodes" : [
        {
            "extras" : {},
            "mesh" : 0,
            "name" : "Cylinder.002"
        },
        {
            "extras" : {},
            "mesh" : 1,
            "name" : "Plane.001"
        }
    ],
    "meshes" : [
        {
            "name" : "Cylinder.002",
            "primitives" : [
                {
                    "attributes" : {
                        "POSITION" : 0,
                        "NORMAL" : 1,
                        "TEXCOORD_0" : 2
                    },
                    "indices" : 3
                }
            ]
        },
        {
            "name" : "Plane.004",
            "primitives" : [
                {
                    "attributes" : {
                        "POSITION" : 4,
                        "NORMAL" : 5,
                        "TEXCOORD_0" : 6
                    },
                    "indices" : 7
                }
            ]
        }
    ],
    "accessors" : [
        {
            "bufferView" : 0,
            "componentType" : 5126,
            "count" : 16559,
            "max" : [
                0.23615650832653046,
                0.7942950129508972,
                0.2048952579498291
            ],
            "min" : [
                -0.23615656793117523,
                -1.1712312698364258e-05,
                -0.33486413955688477
            ],
            "type" : "VEC3"
        },
        {
            "bufferView" : 1,
            "componentType" : 5126,
            "count" : 16559,
            "type" : "VEC3"
        },
        {
            "bufferView" : 2,
            "componentType" : 5126,
            "count" : 16559,
            "type" : "VEC2"
        },
        {
            "bufferView" : 3,
            "componentType" : 5123,
            "count" : 75570,
            "type" : "SCALAR"
        },
        {
            "bufferView" : 4,
            "componentType" : 5126,
            "count" : 4,
            "max" : [
                3.561426877975464,
                0,
                3.561426877975464
            ],
            "min" : [
                -3.561426877975464,
                0,
                -3.561426877975464
            ],
            "type" : "VEC3"
        },
        {
            "bufferView" : 5,
            "componentType" : 5126,
            "count" : 4,
            "type" : "VEC3"
        },
        {
            "bufferView" : 6,
            "componentType" : 5126,
            "count" : 4,
            "type" : "VEC2"
        },
        {
            "bufferView" : 7,
            "componentType" : 5123,
            "count" : 6,
            "type" : "SCALAR"
        }
    ],
    "bufferViews" : [
        {
            "buffer" : 0,
            "byteLength" : 198708,
            "byteOffset" : 0
        },
        {
            "buffer" : 0,
            "byteLength" : 198708,
            "byteOffset" : 198708
        },
        {
            "buffer" : 0,
            "byteLength" : 132472,
            "byteOffset" : 397416
        },
        {
            "buffer" : 0,
            "byteLength" : 151140,
            "byteOffset" : 529888
        },
        {
            "buffer" : 0,
            "byteLength" : 48,
            "byteOffset" : 681028
        },
        {
            "buffer" : 0,
            "byteLength" : 48,
            "byteOffset" : 681076
        },
        {
            "buffer" : 0,
            "byteLength" : 32,
            "byteOffset" : 681124
        },
        {
            "buffer" : 0,
            "byteLength" : 12,
            "byteOffset" : 681156
        }
    ],
    "buffers" : [
        {
            "byteLength" : 681168,
            "uri" : "Office_chair_001.bin"
        }
    ]
}
