{
    "asset" : {
        "copyright" : "Creative Commons Attribution 4.0 International Public License 2021 V-Sekai. 2019 Wonder Unit. See https://github.com/V-Sekai/blue-tin-fox-models for attributed files.",
        "generator" : "Khronos glTF Blender I/O v1.6.16",
        "version" : "2.0"
    },
    "scene" : 0,
    "scenes" : [
        {
            "name" : "Scene",
            "nodes" : [
                0
            ]
        }
    ],
    "nodes" : [
        {
            "extras" : {
                "mr displacement use global settings" : 1,
                "mr displacement view dependent" : 1,
                "mr displacement method" : 6,
                "mr displacement smoothing on" : 1,
                "mr displacement edge length" : 2,
                "mr displacement max displace" : 20,
                "mr displacement parametric subdivision level" : 5,
                "MaxHandle" : 4
            },
            "mesh" : 0,
            "name" : "Base 2.001"
        }
    ],
    "materials" : [
        {
            "doubleSided" : true,
            "name" : "Material.001",
            "pbrMetallicRoughness" : {
                "baseColorFactor" : [
                    0.800000011920929,
                    0.800000011920929,
                    0.800000011920929,
                    1
                ],
                "metallicFactor" : 0,
                "roughnessFactor" : 0.5
            }
        }
    ],
    "meshes" : [
        {
            "name" : "Untitled.023",
            "primitives" : [
                {
                    "attributes" : {
                        "POSITION" : 0,
                        "NORMAL" : 1,
                        "TEXCOORD_0" : 2,
                        "TEXCOORD_1" : 3
                    },
                    "indices" : 4,
                    "material" : 0
                }
            ]
        }
    ],
    "accessors" : [
        {
            "bufferView" : 0,
            "componentType" : 5126,
            "count" : 12701,
            "max" : [
                0.0788443312048912,
                0.039518803358078,
                0.07154960930347443
            ],
            "min" : [
                -0.07861766964197159,
                -0.02081109955906868,
                -0.03185221180319786
            ],
            "type" : "VEC3"
        },
        {
            "bufferView" : 1,
            "componentType" : 5126,
            "count" : 12701,
            "type" : "VEC3"
        },
        {
            "bufferView" : 2,
            "componentType" : 5126,
            "count" : 12701,
            "type" : "VEC2"
        },
        {
            "bufferView" : 3,
            "componentType" : 5126,
            "count" : 12701,
            "type" : "VEC2"
        },
        {
            "bufferView" : 4,
            "componentType" : 5123,
            "count" : 49782,
            "type" : "SCALAR"
        }
    ],
    "bufferViews" : [
        {
            "buffer" : 0,
            "byteLength" : 152412,
            "byteOffset" : 0
        },
        {
            "buffer" : 0,
            "byteLength" : 152412,
            "byteOffset" : 152412
        },
        {
            "buffer" : 0,
            "byteLength" : 101608,
            "byteOffset" : 304824
        },
        {
            "buffer" : 0,
            "byteLength" : 101608,
            "byteOffset" : 406432
        },
        {
            "buffer" : 0,
            "byteLength" : 99564,
            "byteOffset" : 508040
        }
    ],
    "buffers" : [
        {
            "byteLength" : 607604,
            "uri" : "ps4-dualshock.bin"
        }
    ]
}
