{
    "asset" : {
        "copyright" : "Creative Commons Attribution 4.0 International Public License 2021 V-Sekai. 2019 Wonder Unit. See https://github.com/V-Sekai/blue-tin-fox-models for attributed files.",
        "generator" : "Khronos glTF Blender I/O v1.6.16",
        "version" : "2.0"
    },
    "scene" : 0,
    "scenes" : [
        {
            "extras" : {},
            "name" : "Scene",
            "nodes" : [
                0,
                1,
                2,
                3,
                4,
                5,
                6,
                7,
                8,
                9,
                11
            ]
        }
    ],
    "nodes" : [
        {
            "mesh" : 0,
            "name" : "S_Female_Dress Form_Torso",
            "rotation" : [
                0,
                0,
                0,
                -1
            ]
        },
        {
            "mesh" : 1,
            "name" : "S_Handle",
            "translation" : [
                0,
                15.143718719482422,
                -0.2981969714164734
            ]
        },
        {
            "mesh" : 2,
            "name" : "S_Stand1",
            "rotation" : [
                0,
                0,
                0,
                -1
            ]
        },
        {
            "mesh" : 3,
            "name" : "S_Stand2",
            "rotation" : [
                0,
                0,
                0,
                -1
            ]
        },
        {
            "mesh" : 4,
            "name" : "S_Cap",
            "rotation" : [
                0,
                0,
                0,
                -1
            ]
        },
        {
            "name" : "Area",
            "rotation" : [
                -0.4666896462440491,
                0,
                0,
                0.884421169757843
            ],
            "scale" : [
                3.211467981338501,
                3.211467981338501,
                3.211467981338501
            ],
            "translation" : [
                0,
                26.14456558227539,
                -30.73118019104004
            ]
        },
        {
            "name" : "Area.001",
            "rotation" : [
                0.5107137560844421,
                0,
                0,
                0.8597508072853088
            ],
            "scale" : [
                3.211467981338501,
                3.211467981338501,
                3.211467981338501
            ],
            "translation" : [
                0,
                30.820344924926758,
                35.07740020751953
            ]
        },
        {
            "name" : "Area.002",
            "rotation" : [
                0.30009952187538147,
                -0.6442068219184875,
                0.3088788688182831,
                0.6320852041244507
            ],
            "scale" : [
                3.211467981338501,
                3.211467981338501,
                3.211467981338501
            ],
            "translation" : [
                -32.33413314819336,
                30.820344924926758,
                0.3095121383666992
            ]
        },
        {
            "name" : "Area.003",
            "rotation" : [
                -0.4131273031234741,
                -0.2591327130794525,
                0.12162116169929504,
                -0.8645139336585999
            ],
            "scale" : [
                3.211467981338501,
                3.211467981338501,
                3.211467981338501
            ],
            "translation" : [
                18.55078125,
                30.820343017578125,
                26.48509979248047
            ]
        },
        {
            "mesh" : 5,
            "name" : "S_BG",
            "scale" : [
                20,
                20,
                20
            ]
        },
        {
            "camera" : 0,
            "name" : "Camera_Orientation",
            "rotation" : [
                -0.7071067690849304,
                0,
                0,
                0.7071067690849304
            ]
        },
        {
            "children" : [
                10
            ],
            "name" : "Camera",
            "rotation" : [
                0.4695814549922943,
                0.21750983595848083,
                -0.12056887894868851,
                0.847139835357666
            ],
            "scale" : [
                7.149653434753418,
                7.149652481079102,
                7.14965295791626
            ],
            "translation" : [
                8.533074378967285,
                19.32889175415039,
                15.048822402954102
            ]
        }
    ],
    "cameras" : [
        {
            "name" : "Camera",
            "perspective" : {
                "aspectRatio" : 1,
                "yfov" : 0.6911112070083618,
                "zfar" : 1000,
                "znear" : 0.10000000149011612
            },
            "type" : "perspective"
        }
    ],
    "materials" : [
        {
            "doubleSided" : true,
            "name" : "Body",
            "pbrMetallicRoughness" : {
                "baseColorFactor" : [
                    0.8003319501876831,
                    0.7310276031494141,
                    0.5446863174438477,
                    1
                ],
                "metallicFactor" : 0,
                "roughnessFactor" : 0.3818182051181793
            }
        },
        {
            "doubleSided" : true,
            "name" : "Metal1",
            "pbrMetallicRoughness" : {
                "baseColorFactor" : [
                    0.800000011920929,
                    0.800000011920929,
                    0.800000011920929,
                    1
                ],
                "roughnessFactor" : 0.30909088253974915
            }
        },
        {
            "doubleSided" : true,
            "name" : "Meta2",
            "pbrMetallicRoughness" : {
                "baseColorFactor" : [
                    0.015430101193487644,
                    0.015430101193487644,
                    0.015430101193487644,
                    1
                ],
                "metallicFactor" : 0,
                "roughnessFactor" : 0.20000000298023224
            }
        },
        {
            "doubleSided" : true,
            "name" : "BG",
            "pbrMetallicRoughness" : {
                "baseColorFactor" : [
                    0.6359477639198303,
                    0.6359477639198303,
                    0.6359477639198303,
                    1
                ],
                "metallicFactor" : 0
            }
        }
    ],
    "meshes" : [
        {
            "name" : "Plane",
            "primitives" : [
                {
                    "attributes" : {
                        "POSITION" : 0,
                        "NORMAL" : 1,
                        "TEXCOORD_0" : 2
                    },
                    "indices" : 3,
                    "material" : 0
                }
            ]
        },
        {
            "name" : "Plane.002",
            "primitives" : [
                {
                    "attributes" : {
                        "POSITION" : 4,
                        "NORMAL" : 5,
                        "TEXCOORD_0" : 6
                    },
                    "indices" : 7,
                    "material" : 1
                }
            ]
        },
        {
            "name" : "Plane.006",
            "primitives" : [
                {
                    "attributes" : {
                        "POSITION" : 8,
                        "NORMAL" : 9,
                        "TEXCOORD_0" : 10
                    },
                    "indices" : 11,
                    "material" : 1
                }
            ]
        },
        {
            "name" : "Plane.008",
            "primitives" : [
                {
                    "attributes" : {
                        "POSITION" : 12,
                        "NORMAL" : 13,
                        "TEXCOORD_0" : 14
                    },
                    "indices" : 15,
                    "material" : 2
                }
            ]
        },
        {
            "name" : "Plane.004",
            "primitives" : [
                {
                    "attributes" : {
                        "POSITION" : 16,
                        "NORMAL" : 17,
                        "TEXCOORD_0" : 18
                    },
                    "indices" : 19,
                    "material" : 1
                }
            ]
        },
        {
            "name" : "Plane.001",
            "primitives" : [
                {
                    "attributes" : {
                        "POSITION" : 20,
                        "NORMAL" : 21,
                        "TEXCOORD_0" : 22
                    },
                    "indices" : 23,
                    "material" : 3
                }
            ]
        }
    ],
    "accessors" : [
        {
            "bufferView" : 0,
            "componentType" : 5126,
            "count" : 3998,
            "max" : [
                1.7128981351852417,
                14.40165901184082,
                1.2497390508651733
            ],
            "min" : [
                -1.7128981351852417,
                6.374632358551025,
                -1.2969963550567627
            ],
            "type" : "VEC3"
        },
        {
            "bufferView" : 1,
            "componentType" : 5126,
            "count" : 3998,
            "type" : "VEC3"
        },
        {
            "bufferView" : 2,
            "componentType" : 5126,
            "count" : 3998,
            "type" : "VEC2"
        },
        {
            "bufferView" : 3,
            "componentType" : 5123,
            "count" : 23856,
            "type" : "SCALAR"
        },
        {
            "bufferView" : 4,
            "componentType" : 5126,
            "count" : 1827,
            "max" : [
                0.1941966712474823,
                0.034010209143161774,
                0.1941966712474823
            ],
            "min" : [
                -0.1941966712474823,
                -0.8546875715255737,
                -0.1941966712474823
            ],
            "type" : "VEC3"
        },
        {
            "bufferView" : 5,
            "componentType" : 5126,
            "count" : 1827,
            "type" : "VEC3"
        },
        {
            "bufferView" : 6,
            "componentType" : 5126,
            "count" : 1827,
            "type" : "VEC2"
        },
        {
            "bufferView" : 7,
            "componentType" : 5123,
            "count" : 9540,
            "type" : "SCALAR"
        },
        {
            "bufferView" : 8,
            "componentType" : 5126,
            "count" : 976,
            "max" : [
                0.21314546465873718,
                6.595487594604492,
                0.21314546465873718
            ],
            "min" : [
                -0.21314546465873718,
                1.7772483825683594,
                -0.21314546465873718
            ],
            "type" : "VEC3"
        },
        {
            "bufferView" : 9,
            "componentType" : 5126,
            "count" : 976,
            "type" : "VEC3"
        },
        {
            "bufferView" : 10,
            "componentType" : 5126,
            "count" : 976,
            "type" : "VEC2"
        },
        {
            "bufferView" : 11,
            "componentType" : 5123,
            "count" : 4680,
            "type" : "SCALAR"
        },
        {
            "bufferView" : 12,
            "componentType" : 5126,
            "count" : 4409,
            "max" : [
                1.9993565082550049,
                2.0915474891662598,
                1.999356985092163
            ],
            "min" : [
                -1.9993565082550049,
                0,
                -1.9993560314178467
            ],
            "type" : "VEC3"
        },
        {
            "bufferView" : 13,
            "componentType" : 5126,
            "count" : 4409,
            "type" : "VEC3"
        },
        {
            "bufferView" : 14,
            "componentType" : 5126,
            "count" : 4409,
            "type" : "VEC2"
        },
        {
            "bufferView" : 15,
            "componentType" : 5123,
            "count" : 24564,
            "type" : "SCALAR"
        },
        {
            "bufferView" : 16,
            "componentType" : 5126,
            "count" : 432,
            "max" : [
                0.4418978989124298,
                14.464069366455078,
                0.2436647117137909
            ],
            "min" : [
                -0.4418978989124298,
                14.105720520019531,
                -0.6491811275482178
            ],
            "type" : "VEC3"
        },
        {
            "bufferView" : 17,
            "componentType" : 5126,
            "count" : 432,
            "type" : "VEC3"
        },
        {
            "bufferView" : 18,
            "componentType" : 5126,
            "count" : 432,
            "type" : "VEC2"
        },
        {
            "bufferView" : 19,
            "componentType" : 5123,
            "count" : 2580,
            "type" : "SCALAR"
        },
        {
            "bufferView" : 20,
            "componentType" : 5126,
            "count" : 16,
            "max" : [
                2.8273563385009766,
                3.3196511268615723,
                2
            ],
            "min" : [
                -2.8941242694854736,
                0,
                -2
            ],
            "type" : "VEC3"
        },
        {
            "bufferView" : 21,
            "componentType" : 5126,
            "count" : 16,
            "type" : "VEC3"
        },
        {
            "bufferView" : 22,
            "componentType" : 5126,
            "count" : 16,
            "type" : "VEC2"
        },
        {
            "bufferView" : 23,
            "componentType" : 5123,
            "count" : 42,
            "type" : "SCALAR"
        }
    ],
    "bufferViews" : [
        {
            "buffer" : 0,
            "byteLength" : 47976,
            "byteOffset" : 0
        },
        {
            "buffer" : 0,
            "byteLength" : 47976,
            "byteOffset" : 47976
        },
        {
            "buffer" : 0,
            "byteLength" : 31984,
            "byteOffset" : 95952
        },
        {
            "buffer" : 0,
            "byteLength" : 47712,
            "byteOffset" : 127936
        },
        {
            "buffer" : 0,
            "byteLength" : 21924,
            "byteOffset" : 175648
        },
        {
            "buffer" : 0,
            "byteLength" : 21924,
            "byteOffset" : 197572
        },
        {
            "buffer" : 0,
            "byteLength" : 14616,
            "byteOffset" : 219496
        },
        {
            "buffer" : 0,
            "byteLength" : 19080,
            "byteOffset" : 234112
        },
        {
            "buffer" : 0,
            "byteLength" : 11712,
            "byteOffset" : 253192
        },
        {
            "buffer" : 0,
            "byteLength" : 11712,
            "byteOffset" : 264904
        },
        {
            "buffer" : 0,
            "byteLength" : 7808,
            "byteOffset" : 276616
        },
        {
            "buffer" : 0,
            "byteLength" : 9360,
            "byteOffset" : 284424
        },
        {
            "buffer" : 0,
            "byteLength" : 52908,
            "byteOffset" : 293784
        },
        {
            "buffer" : 0,
            "byteLength" : 52908,
            "byteOffset" : 346692
        },
        {
            "buffer" : 0,
            "byteLength" : 35272,
            "byteOffset" : 399600
        },
        {
            "buffer" : 0,
            "byteLength" : 49128,
            "byteOffset" : 434872
        },
        {
            "buffer" : 0,
            "byteLength" : 5184,
            "byteOffset" : 484000
        },
        {
            "buffer" : 0,
            "byteLength" : 5184,
            "byteOffset" : 489184
        },
        {
            "buffer" : 0,
            "byteLength" : 3456,
            "byteOffset" : 494368
        },
        {
            "buffer" : 0,
            "byteLength" : 5160,
            "byteOffset" : 497824
        },
        {
            "buffer" : 0,
            "byteLength" : 192,
            "byteOffset" : 502984
        },
        {
            "buffer" : 0,
            "byteLength" : 192,
            "byteOffset" : 503176
        },
        {
            "buffer" : 0,
            "byteLength" : 128,
            "byteOffset" : 503368
        },
        {
            "buffer" : 0,
            "byteLength" : 84,
            "byteOffset" : 503496
        }
    ],
    "buffers" : [
        {
            "byteLength" : 503580,
            "uri" : "S_Female_Dress_Form_Torso.bin"
        }
    ]
}
