{
    "asset" : {
        "copyright" : "Creative Commons Attribution 4.0 International Public License 2021 V-Sekai. 2019 Wonder Unit. See https://github.com/V-Sekai/blue-tin-fox-models for attributed files.",
        "generator" : "Khronos glTF Blender I/O v1.6.16",
        "version" : "2.0"
    },
    "scene" : 0,
    "scenes" : [
        {
            "name" : "Scene",
            "nodes" : [
                0,
                1
            ]
        }
    ],
    "nodes" : [
        {
            "mesh" : 0,
            "name" : "MTA+R46"
        },
        {
            "mesh" : 1,
            "name" : "Plane"
        }
    ],
    "meshes" : [
        {
            "name" : "MTA+R46",
            "primitives" : [
                {
                    "attributes" : {
                        "POSITION" : 0,
                        "NORMAL" : 1
                    },
                    "indices" : 2
                }
            ]
        },
        {
            "name" : "Plane",
            "primitives" : [
                {
                    "attributes" : {
                        "POSITION" : 3,
                        "NORMAL" : 4,
                        "TEXCOORD_0" : 5
                    },
                    "indices" : 6
                }
            ]
        }
    ],
    "accessors" : [
        {
            "bufferView" : 0,
            "componentType" : 5126,
            "count" : 43498,
            "max" : [
                1.474767804145813,
                2.691477060317993,
                3.2019667625427246
            ],
            "min" : [
                -1.5282227993011475,
                -1.1594945192337036,
                -19.418460845947266
            ],
            "type" : "VEC3"
        },
        {
            "bufferView" : 1,
            "componentType" : 5126,
            "count" : 43498,
            "type" : "VEC3"
        },
        {
            "bufferView" : 2,
            "componentType" : 5123,
            "count" : 257253,
            "type" : "SCALAR"
        },
        {
            "bufferView" : 3,
            "componentType" : 5126,
            "count" : 4,
            "max" : [
                1.4695329666137695,
                0.13638368248939514,
                2.7347285747528076
            ],
            "min" : [
                -1.5251131057739258,
                0.13638368248939514,
                -18.790987014770508
            ],
            "type" : "VEC3"
        },
        {
            "bufferView" : 4,
            "componentType" : 5126,
            "count" : 4,
            "type" : "VEC3"
        },
        {
            "bufferView" : 5,
            "componentType" : 5126,
            "count" : 4,
            "type" : "VEC2"
        },
        {
            "bufferView" : 6,
            "componentType" : 5123,
            "count" : 6,
            "type" : "SCALAR"
        }
    ],
    "bufferViews" : [
        {
            "buffer" : 0,
            "byteLength" : 521976,
            "byteOffset" : 0
        },
        {
            "buffer" : 0,
            "byteLength" : 521976,
            "byteOffset" : 521976
        },
        {
            "buffer" : 0,
            "byteLength" : 514506,
            "byteOffset" : 1043952
        },
        {
            "buffer" : 0,
            "byteLength" : 48,
            "byteOffset" : 1558460
        },
        {
            "buffer" : 0,
            "byteLength" : 48,
            "byteOffset" : 1558508
        },
        {
            "buffer" : 0,
            "byteLength" : 32,
            "byteOffset" : 1558556
        },
        {
            "buffer" : 0,
            "byteLength" : 12,
            "byteOffset" : 1558588
        }
    ],
    "buffers" : [
        {
            "byteLength" : 1558600,
            "uri" : "subway-train.bin"
        }
    ]
}
