{
    "asset" : {
        "copyright" : "Creative Commons Attribution 4.0 International Public License 2021 V-Sekai. 2019 Wonder Unit. See https://github.com/V-Sekai/blue-tin-fox-models for attributed files.",
        "generator" : "Khronos glTF Blender I/O v1.6.16",
        "version" : "2.0"
    },
    "scene" : 0,
    "scenes" : [
        {
            "name" : "Scene",
            "nodes" : [
                0,
                1,
                2,
                3,
                4,
                5,
                6,
                7
            ]
        }
    ],
    "nodes" : [
        {
            "mesh" : 0,
            "name" : "Cylinder.003",
            "translation" : [
                0,
                0.7579138278961182,
                0
            ]
        },
        {
            "mesh" : 1,
            "name" : "Cylinder.004",
            "translation" : [
                0,
                0.7200491428375244,
                0
            ]
        },
        {
            "mesh" : 2,
            "name" : "Cylinder.005",
            "translation" : [
                0,
                0.35575956106185913,
                0
            ]
        },
        {
            "mesh" : 3,
            "name" : "Cube.004"
        },
        {
            "mesh" : 4,
            "name" : "Cube.005"
        },
        {
            "mesh" : 5,
            "name" : "Cube.006"
        },
        {
            "mesh" : 6,
            "name" : "Cube.007"
        },
        {
            "mesh" : 7,
            "name" : "Cube.003"
        }
    ],
    "meshes" : [
        {
            "name" : "Cylinder.003",
            "primitives" : [
                {
                    "attributes" : {
                        "POSITION" : 0,
                        "NORMAL" : 1,
                        "TEXCOORD_0" : 2
                    },
                    "indices" : 3
                }
            ]
        },
        {
            "name" : "Cylinder.004",
            "primitives" : [
                {
                    "attributes" : {
                        "POSITION" : 4,
                        "NORMAL" : 5,
                        "TEXCOORD_0" : 6
                    },
                    "indices" : 7
                }
            ]
        },
        {
            "name" : "Cylinder.005",
            "primitives" : [
                {
                    "attributes" : {
                        "POSITION" : 8,
                        "NORMAL" : 9,
                        "TEXCOORD_0" : 10
                    },
                    "indices" : 11
                }
            ]
        },
        {
            "name" : "Cube.000",
            "primitives" : [
                {
                    "attributes" : {
                        "POSITION" : 12,
                        "NORMAL" : 13,
                        "TEXCOORD_0" : 14
                    },
                    "indices" : 15
                }
            ]
        },
        {
            "name" : "Cube.001",
            "primitives" : [
                {
                    "attributes" : {
                        "POSITION" : 16,
                        "NORMAL" : 17,
                        "TEXCOORD_0" : 18
                    },
                    "indices" : 15
                }
            ]
        },
        {
            "name" : "Cube.002",
            "primitives" : [
                {
                    "attributes" : {
                        "POSITION" : 19,
                        "NORMAL" : 20,
                        "TEXCOORD_0" : 21
                    },
                    "indices" : 15
                }
            ]
        },
        {
            "name" : "Cube.003",
            "primitives" : [
                {
                    "attributes" : {
                        "POSITION" : 22,
                        "NORMAL" : 23,
                        "TEXCOORD_0" : 24
                    },
                    "indices" : 15
                }
            ]
        },
        {
            "name" : "Cube.027",
            "primitives" : [
                {
                    "attributes" : {
                        "POSITION" : 25,
                        "NORMAL" : 26,
                        "TEXCOORD_0" : 27
                    },
                    "indices" : 28
                }
            ]
        }
    ],
    "accessors" : [
        {
            "bufferView" : 0,
            "componentType" : 5126,
            "count" : 262,
            "max" : [
                0.5049999952316284,
                0.012500000186264515,
                0.5049999952316284
            ],
            "min" : [
                -0.5049999952316284,
                -0.012500000186264515,
                -0.5049999952316284
            ],
            "type" : "VEC3"
        },
        {
            "bufferView" : 1,
            "componentType" : 5126,
            "count" : 262,
            "type" : "VEC3"
        },
        {
            "bufferView" : 2,
            "componentType" : 5126,
            "count" : 262,
            "type" : "VEC2"
        },
        {
            "bufferView" : 3,
            "componentType" : 5123,
            "count" : 756,
            "type" : "SCALAR"
        },
        {
            "bufferView" : 4,
            "componentType" : 5126,
            "count" : 215,
            "max" : [
                0.4711751937866211,
                0.036390841007232666,
                0.4711751937866211
            ],
            "min" : [
                -0.4711751937866211,
                -0.036390841007232666,
                -0.4711751937866211
            ],
            "type" : "VEC3"
        },
        {
            "bufferView" : 5,
            "componentType" : 5126,
            "count" : 215,
            "type" : "VEC3"
        },
        {
            "bufferView" : 6,
            "componentType" : 5126,
            "count" : 215,
            "type" : "VEC2"
        },
        {
            "bufferView" : 7,
            "componentType" : 5123,
            "count" : 564,
            "type" : "SCALAR"
        },
        {
            "bufferView" : 8,
            "componentType" : 5126,
            "count" : 62,
            "max" : [
                0.054999999701976776,
                0.36500000953674316,
                0.05439241975545883
            ],
            "min" : [
                -0.054999999701976776,
                -0.30327004194259644,
                -0.05560757964849472
            ],
            "type" : "VEC3"
        },
        {
            "bufferView" : 9,
            "componentType" : 5126,
            "count" : 62,
            "type" : "VEC3"
        },
        {
            "bufferView" : 10,
            "componentType" : 5126,
            "count" : 62,
            "type" : "VEC2"
        },
        {
            "bufferView" : 11,
            "componentType" : 5123,
            "count" : 168,
            "type" : "SCALAR"
        },
        {
            "bufferView" : 12,
            "componentType" : 5126,
            "count" : 22,
            "max" : [
                0.41930386424064636,
                0.1547246128320694,
                0.015000006183981895
            ],
            "min" : [
                0.019303858280181885,
                -0.0009479932487010956,
                -0.01499999314546585
            ],
            "type" : "VEC3"
        },
        {
            "bufferView" : 13,
            "componentType" : 5126,
            "count" : 22,
            "type" : "VEC3"
        },
        {
            "bufferView" : 14,
            "componentType" : 5126,
            "count" : 22,
            "type" : "VEC2"
        },
        {
            "bufferView" : 15,
            "componentType" : 5123,
            "count" : 60,
            "type" : "SCALAR"
        },
        {
            "bufferView" : 16,
            "componentType" : 5126,
            "count" : 22,
            "max" : [
                0.01500000525265932,
                0.1547246128320694,
                -0.019303858280181885
            ],
            "min" : [
                -0.015000011771917343,
                -0.0009479932487010956,
                -0.41930386424064636
            ],
            "type" : "VEC3"
        },
        {
            "bufferView" : 17,
            "componentType" : 5126,
            "count" : 22,
            "type" : "VEC3"
        },
        {
            "bufferView" : 18,
            "componentType" : 5126,
            "count" : 22,
            "type" : "VEC2"
        },
        {
            "bufferView" : 19,
            "componentType" : 5126,
            "count" : 22,
            "max" : [
                -0.019303856417536736,
                0.1547246128320694,
                0.01500002946704626
            ],
            "min" : [
                -0.41930386424064636,
                -0.0009479932487010956,
                -0.015000004321336746
            ],
            "type" : "VEC3"
        },
        {
            "bufferView" : 20,
            "componentType" : 5126,
            "count" : 22,
            "type" : "VEC3"
        },
        {
            "bufferView" : 21,
            "componentType" : 5126,
            "count" : 22,
            "type" : "VEC2"
        },
        {
            "bufferView" : 22,
            "componentType" : 5126,
            "count" : 22,
            "max" : [
                0.01779559999704361,
                0.1547246128320694,
                0.4193945527076721
            ],
            "min" : [
                -0.014870953746140003,
                -0.0009479932487010956,
                0.019203409552574158
            ],
            "type" : "VEC3"
        },
        {
            "bufferView" : 23,
            "componentType" : 5126,
            "count" : 22,
            "type" : "VEC3"
        },
        {
            "bufferView" : 24,
            "componentType" : 5126,
            "count" : 22,
            "type" : "VEC2"
        },
        {
            "bufferView" : 25,
            "componentType" : 5126,
            "count" : 859,
            "max" : [
                0.5049999952316284,
                0.7704138159751892,
                0.5049999952316284
            ],
            "min" : [
                -0.5049999952316284,
                -0.0009169605909846723,
                -0.5049999952316284
            ],
            "type" : "VEC3"
        },
        {
            "bufferView" : 26,
            "componentType" : 5126,
            "count" : 859,
            "type" : "VEC3"
        },
        {
            "bufferView" : 27,
            "componentType" : 5126,
            "count" : 859,
            "type" : "VEC2"
        },
        {
            "bufferView" : 28,
            "componentType" : 5123,
            "count" : 2400,
            "type" : "SCALAR"
        }
    ],
    "bufferViews" : [
        {
            "buffer" : 0,
            "byteLength" : 3144,
            "byteOffset" : 0
        },
        {
            "buffer" : 0,
            "byteLength" : 3144,
            "byteOffset" : 3144
        },
        {
            "buffer" : 0,
            "byteLength" : 2096,
            "byteOffset" : 6288
        },
        {
            "buffer" : 0,
            "byteLength" : 1512,
            "byteOffset" : 8384
        },
        {
            "buffer" : 0,
            "byteLength" : 2580,
            "byteOffset" : 9896
        },
        {
            "buffer" : 0,
            "byteLength" : 2580,
            "byteOffset" : 12476
        },
        {
            "buffer" : 0,
            "byteLength" : 1720,
            "byteOffset" : 15056
        },
        {
            "buffer" : 0,
            "byteLength" : 1128,
            "byteOffset" : 16776
        },
        {
            "buffer" : 0,
            "byteLength" : 744,
            "byteOffset" : 17904
        },
        {
            "buffer" : 0,
            "byteLength" : 744,
            "byteOffset" : 18648
        },
        {
            "buffer" : 0,
            "byteLength" : 496,
            "byteOffset" : 19392
        },
        {
            "buffer" : 0,
            "byteLength" : 336,
            "byteOffset" : 19888
        },
        {
            "buffer" : 0,
            "byteLength" : 264,
            "byteOffset" : 20224
        },
        {
            "buffer" : 0,
            "byteLength" : 264,
            "byteOffset" : 20488
        },
        {
            "buffer" : 0,
            "byteLength" : 176,
            "byteOffset" : 20752
        },
        {
            "buffer" : 0,
            "byteLength" : 120,
            "byteOffset" : 20928
        },
        {
            "buffer" : 0,
            "byteLength" : 264,
            "byteOffset" : 21048
        },
        {
            "buffer" : 0,
            "byteLength" : 264,
            "byteOffset" : 21312
        },
        {
            "buffer" : 0,
            "byteLength" : 176,
            "byteOffset" : 21576
        },
        {
            "buffer" : 0,
            "byteLength" : 264,
            "byteOffset" : 21752
        },
        {
            "buffer" : 0,
            "byteLength" : 264,
            "byteOffset" : 22016
        },
        {
            "buffer" : 0,
            "byteLength" : 176,
            "byteOffset" : 22280
        },
        {
            "buffer" : 0,
            "byteLength" : 264,
            "byteOffset" : 22456
        },
        {
            "buffer" : 0,
            "byteLength" : 264,
            "byteOffset" : 22720
        },
        {
            "buffer" : 0,
            "byteLength" : 176,
            "byteOffset" : 22984
        },
        {
            "buffer" : 0,
            "byteLength" : 10308,
            "byteOffset" : 23160
        },
        {
            "buffer" : 0,
            "byteLength" : 10308,
            "byteOffset" : 33468
        },
        {
            "buffer" : 0,
            "byteLength" : 6872,
            "byteOffset" : 43776
        },
        {
            "buffer" : 0,
            "byteLength" : 4800,
            "byteOffset" : 50648
        }
    ],
    "buffers" : [
        {
            "byteLength" : 55448,
            "uri" : "table-sit-circle.bin"
        }
    ]
}
