{
    "asset" : {
        "copyright" : "Creative Commons Attribution 4.0 International Public License 2021 V-Sekai. 2019 Wonder Unit. See https://github.com/V-Sekai/blue-tin-fox-models for attributed files.",
        "generator" : "Khronos glTF Blender I/O v1.6.16",
        "version" : "2.0"
    },
    "scene" : 0,
    "scenes" : [
        {
            "name" : "Scene",
            "nodes" : [
                0,
                1,
                2,
                3,
                4,
                5,
                6,
                7
            ]
        }
    ],
    "nodes" : [
        {
            "mesh" : 0,
            "name" : "Cylinder.003"
        },
        {
            "mesh" : 1,
            "name" : "Cylinder.004"
        },
        {
            "mesh" : 2,
            "name" : "Cylinder.005"
        },
        {
            "mesh" : 3,
            "name" : "Cube.004"
        },
        {
            "mesh" : 4,
            "name" : "Cube.005"
        },
        {
            "mesh" : 5,
            "name" : "Cube.006"
        },
        {
            "mesh" : 6,
            "name" : "Cube.007"
        },
        {
            "mesh" : 7,
            "name" : "Cube"
        }
    ],
    "meshes" : [
        {
            "name" : "Cylinder.003",
            "primitives" : [
                {
                    "attributes" : {
                        "POSITION" : 0,
                        "NORMAL" : 1,
                        "TEXCOORD_0" : 2
                    },
                    "indices" : 3
                }
            ]
        },
        {
            "name" : "Cylinder.004",
            "primitives" : [
                {
                    "attributes" : {
                        "POSITION" : 4,
                        "NORMAL" : 5,
                        "TEXCOORD_0" : 6
                    },
                    "indices" : 7
                }
            ]
        },
        {
            "name" : "Cylinder.005",
            "primitives" : [
                {
                    "attributes" : {
                        "POSITION" : 8,
                        "NORMAL" : 9,
                        "TEXCOORD_0" : 10
                    },
                    "indices" : 11
                }
            ]
        },
        {
            "name" : "Cube.000",
            "primitives" : [
                {
                    "attributes" : {
                        "POSITION" : 12,
                        "NORMAL" : 13,
                        "TEXCOORD_0" : 14
                    },
                    "indices" : 15
                }
            ]
        },
        {
            "name" : "Cube.001",
            "primitives" : [
                {
                    "attributes" : {
                        "POSITION" : 16,
                        "NORMAL" : 17,
                        "TEXCOORD_0" : 18
                    },
                    "indices" : 15
                }
            ]
        },
        {
            "name" : "Cube.002",
            "primitives" : [
                {
                    "attributes" : {
                        "POSITION" : 19,
                        "NORMAL" : 20,
                        "TEXCOORD_0" : 21
                    },
                    "indices" : 15
                }
            ]
        },
        {
            "name" : "Cube.003",
            "primitives" : [
                {
                    "attributes" : {
                        "POSITION" : 22,
                        "NORMAL" : 23,
                        "TEXCOORD_0" : 24
                    },
                    "indices" : 15
                }
            ]
        },
        {
            "name" : "Cube.024",
            "primitives" : [
                {
                    "attributes" : {
                        "POSITION" : 25,
                        "NORMAL" : 26,
                        "TEXCOORD_0" : 27
                    },
                    "indices" : 28
                }
            ]
        }
    ],
    "accessors" : [
        {
            "bufferView" : 0,
            "componentType" : 5126,
            "count" : 262,
            "max" : [
                0.3499999940395355,
                1.0574040412902832,
                0.3499999940395355
            ],
            "min" : [
                -0.3499999940395355,
                1.0324040651321411,
                -0.3499999940395355
            ],
            "type" : "VEC3"
        },
        {
            "bufferView" : 1,
            "componentType" : 5126,
            "count" : 262,
            "type" : "VEC3"
        },
        {
            "bufferView" : 2,
            "componentType" : 5126,
            "count" : 262,
            "type" : "VEC2"
        },
        {
            "bufferView" : 3,
            "componentType" : 5123,
            "count" : 756,
            "type" : "SCALAR"
        },
        {
            "bufferView" : 4,
            "componentType" : 5126,
            "count" : 215,
            "max" : [
                0.15000000596046448,
                1.043430209159851,
                0.15000000596046448
            ],
            "min" : [
                -0.15000000596046448,
                0.9706485271453857,
                -0.15000000596046448
            ],
            "type" : "VEC3"
        },
        {
            "bufferView" : 5,
            "componentType" : 5126,
            "count" : 215,
            "type" : "VEC3"
        },
        {
            "bufferView" : 6,
            "componentType" : 5126,
            "count" : 215,
            "type" : "VEC2"
        },
        {
            "bufferView" : 7,
            "componentType" : 5123,
            "count" : 564,
            "type" : "SCALAR"
        },
        {
            "bufferView" : 8,
            "componentType" : 5126,
            "count" : 62,
            "max" : [
                0.03500000014901161,
                1.049895167350769,
                0.03461335599422455
            ],
            "min" : [
                -0.03500000014901161,
                0.042814046144485474,
                -0.03538664057850838
            ],
            "type" : "VEC3"
        },
        {
            "bufferView" : 9,
            "componentType" : 5126,
            "count" : 62,
            "type" : "VEC3"
        },
        {
            "bufferView" : 10,
            "componentType" : 5126,
            "count" : 62,
            "type" : "VEC2"
        },
        {
            "bufferView" : 11,
            "componentType" : 5123,
            "count" : 168,
            "type" : "SCALAR"
        },
        {
            "bufferView" : 12,
            "componentType" : 5126,
            "count" : 22,
            "max" : [
                0.31270360946655273,
                0.11538874357938766,
                0.011186531744897366
            ],
            "min" : [
                0.01439620926976204,
                -0.0007069834973663092,
                -0.01118652243167162
            ],
            "type" : "VEC3"
        },
        {
            "bufferView" : 13,
            "componentType" : 5126,
            "count" : 22,
            "type" : "VEC3"
        },
        {
            "bufferView" : 14,
            "componentType" : 5126,
            "count" : 22,
            "type" : "VEC2"
        },
        {
            "bufferView" : 15,
            "componentType" : 5123,
            "count" : 60,
            "type" : "SCALAR"
        },
        {
            "bufferView" : 16,
            "componentType" : 5126,
            "count" : 22,
            "max" : [
                0.011186530813574791,
                0.11538874357938766,
                -0.01439620926976204
            ],
            "min" : [
                -0.011186536401510239,
                -0.0007069834973663092,
                -0.31270360946655273
            ],
            "type" : "VEC3"
        },
        {
            "bufferView" : 17,
            "componentType" : 5126,
            "count" : 22,
            "type" : "VEC3"
        },
        {
            "bufferView" : 18,
            "componentType" : 5126,
            "count" : 22,
            "type" : "VEC2"
        },
        {
            "bufferView" : 19,
            "componentType" : 5126,
            "count" : 22,
            "max" : [
                -0.01439620740711689,
                0.11538874357938766,
                0.011186549440026283
            ],
            "min" : [
                -0.31270360946655273,
                -0.0007069834973663092,
                -0.011186530813574791
            ],
            "type" : "VEC3"
        },
        {
            "bufferView" : 20,
            "componentType" : 5126,
            "count" : 22,
            "type" : "VEC3"
        },
        {
            "bufferView" : 21,
            "componentType" : 5126,
            "count" : 22,
            "type" : "VEC2"
        },
        {
            "bufferView" : 22,
            "componentType" : 5126,
            "count" : 22,
            "max" : [
                0.013271397911012173,
                0.11538874357938766,
                0.3127712309360504
            ],
            "min" : [
                -0.011090288870036602,
                -0.0007069834973663092,
                0.014321297407150269
            ],
            "type" : "VEC3"
        },
        {
            "bufferView" : 23,
            "componentType" : 5126,
            "count" : 22,
            "type" : "VEC3"
        },
        {
            "bufferView" : 24,
            "componentType" : 5126,
            "count" : 22,
            "type" : "VEC2"
        },
        {
            "bufferView" : 25,
            "componentType" : 5126,
            "count" : 859,
            "max" : [
                0.3499999940395355,
                1.0574040412902832,
                0.3499999940395355
            ],
            "min" : [
                -0.3499999940395355,
                -0.0006759508396498859,
                -0.3499999940395355
            ],
            "type" : "VEC3"
        },
        {
            "bufferView" : 26,
            "componentType" : 5126,
            "count" : 859,
            "type" : "VEC3"
        },
        {
            "bufferView" : 27,
            "componentType" : 5126,
            "count" : 859,
            "type" : "VEC2"
        },
        {
            "bufferView" : 28,
            "componentType" : 5123,
            "count" : 2400,
            "type" : "SCALAR"
        }
    ],
    "bufferViews" : [
        {
            "buffer" : 0,
            "byteLength" : 3144,
            "byteOffset" : 0
        },
        {
            "buffer" : 0,
            "byteLength" : 3144,
            "byteOffset" : 3144
        },
        {
            "buffer" : 0,
            "byteLength" : 2096,
            "byteOffset" : 6288
        },
        {
            "buffer" : 0,
            "byteLength" : 1512,
            "byteOffset" : 8384
        },
        {
            "buffer" : 0,
            "byteLength" : 2580,
            "byteOffset" : 9896
        },
        {
            "buffer" : 0,
            "byteLength" : 2580,
            "byteOffset" : 12476
        },
        {
            "buffer" : 0,
            "byteLength" : 1720,
            "byteOffset" : 15056
        },
        {
            "buffer" : 0,
            "byteLength" : 1128,
            "byteOffset" : 16776
        },
        {
            "buffer" : 0,
            "byteLength" : 744,
            "byteOffset" : 17904
        },
        {
            "buffer" : 0,
            "byteLength" : 744,
            "byteOffset" : 18648
        },
        {
            "buffer" : 0,
            "byteLength" : 496,
            "byteOffset" : 19392
        },
        {
            "buffer" : 0,
            "byteLength" : 336,
            "byteOffset" : 19888
        },
        {
            "buffer" : 0,
            "byteLength" : 264,
            "byteOffset" : 20224
        },
        {
            "buffer" : 0,
            "byteLength" : 264,
            "byteOffset" : 20488
        },
        {
            "buffer" : 0,
            "byteLength" : 176,
            "byteOffset" : 20752
        },
        {
            "buffer" : 0,
            "byteLength" : 120,
            "byteOffset" : 20928
        },
        {
            "buffer" : 0,
            "byteLength" : 264,
            "byteOffset" : 21048
        },
        {
            "buffer" : 0,
            "byteLength" : 264,
            "byteOffset" : 21312
        },
        {
            "buffer" : 0,
            "byteLength" : 176,
            "byteOffset" : 21576
        },
        {
            "buffer" : 0,
            "byteLength" : 264,
            "byteOffset" : 21752
        },
        {
            "buffer" : 0,
            "byteLength" : 264,
            "byteOffset" : 22016
        },
        {
            "buffer" : 0,
            "byteLength" : 176,
            "byteOffset" : 22280
        },
        {
            "buffer" : 0,
            "byteLength" : 264,
            "byteOffset" : 22456
        },
        {
            "buffer" : 0,
            "byteLength" : 264,
            "byteOffset" : 22720
        },
        {
            "buffer" : 0,
            "byteLength" : 176,
            "byteOffset" : 22984
        },
        {
            "buffer" : 0,
            "byteLength" : 10308,
            "byteOffset" : 23160
        },
        {
            "buffer" : 0,
            "byteLength" : 10308,
            "byteOffset" : 33468
        },
        {
            "buffer" : 0,
            "byteLength" : 6872,
            "byteOffset" : 43776
        },
        {
            "buffer" : 0,
            "byteLength" : 4800,
            "byteOffset" : 50648
        }
    ],
    "buffers" : [
        {
            "byteLength" : 55448,
            "uri" : "table-bar-circle.bin"
        }
    ]
}
