{
    "asset" : {
        "copyright" : "Creative Commons Attribution 4.0 International Public License 2021 V-Sekai. 2019 Wonder Unit. See https://github.com/V-Sekai/blue-tin-fox-models for attributed files.",
        "generator" : "Khronos glTF Blender I/O v1.6.16",
        "version" : "2.0"
    },
    "scene" : 0,
    "scenes" : [
        {
            "name" : "Scene",
            "nodes" : [
                0,
                1,
                2,
                3,
                4,
                5,
                6
            ]
        }
    ],
    "nodes" : [
        {
            "mesh" : 0,
            "name" : "Cube.005"
        },
        {
            "mesh" : 1,
            "name" : "Cube.007"
        },
        {
            "mesh" : 2,
            "name" : "Cube.008"
        },
        {
            "mesh" : 3,
            "name" : "Cube.009"
        },
        {
            "mesh" : 4,
            "name" : "Cube.010"
        },
        {
            "mesh" : 5,
            "name" : "Cube.011"
        },
        {
            "mesh" : 6,
            "name" : "Cube"
        }
    ],
    "meshes" : [
        {
            "name" : "Cube.000",
            "primitives" : [
                {
                    "attributes" : {
                        "POSITION" : 0,
                        "NORMAL" : 1,
                        "TEXCOORD_0" : 2
                    },
                    "indices" : 3
                }
            ]
        },
        {
            "name" : "Cube.002",
            "primitives" : [
                {
                    "attributes" : {
                        "POSITION" : 4,
                        "NORMAL" : 5,
                        "TEXCOORD_0" : 6
                    },
                    "indices" : 3
                }
            ]
        },
        {
            "name" : "Cube.003",
            "primitives" : [
                {
                    "attributes" : {
                        "POSITION" : 7,
                        "NORMAL" : 8,
                        "TEXCOORD_0" : 9
                    },
                    "indices" : 10
                }
            ]
        },
        {
            "name" : "Cube.004",
            "primitives" : [
                {
                    "attributes" : {
                        "POSITION" : 11,
                        "NORMAL" : 12,
                        "TEXCOORD_0" : 13
                    },
                    "indices" : 3
                }
            ]
        },
        {
            "name" : "Cube.005",
            "primitives" : [
                {
                    "attributes" : {
                        "POSITION" : 14,
                        "NORMAL" : 15,
                        "TEXCOORD_0" : 16
                    },
                    "indices" : 3
                }
            ]
        },
        {
            "name" : "Cube.006",
            "primitives" : [
                {
                    "attributes" : {
                        "POSITION" : 17,
                        "NORMAL" : 18,
                        "TEXCOORD_0" : 19
                    },
                    "indices" : 3
                }
            ]
        },
        {
            "name" : "Cube.001",
            "primitives" : [
                {
                    "attributes" : {
                        "POSITION" : 20,
                        "NORMAL" : 21,
                        "TEXCOORD_0" : 22
                    },
                    "indices" : 23
                }
            ]
        }
    ],
    "accessors" : [
        {
            "bufferView" : 0,
            "componentType" : 5126,
            "count" : 14,
            "max" : [
                0.4449999928474426,
                0.772091269493103,
                0.4449999928474426
            ],
            "min" : [
                -0.4449999928474426,
                0.7470912933349609,
                -0.4449999928474426
            ],
            "type" : "VEC3"
        },
        {
            "bufferView" : 1,
            "componentType" : 5126,
            "count" : 14,
            "type" : "VEC3"
        },
        {
            "bufferView" : 2,
            "componentType" : 5126,
            "count" : 14,
            "type" : "VEC2"
        },
        {
            "bufferView" : 3,
            "componentType" : 5123,
            "count" : 36,
            "type" : "SCALAR"
        },
        {
            "bufferView" : 4,
            "componentType" : 5126,
            "count" : 14,
            "max" : [
                -0.2985864579677582,
                0.7651686668395996,
                -0.29900896549224854
            ],
            "min" : [
                -0.35858646035194397,
                0.00016871094703674316,
                -0.3590089678764343
            ],
            "type" : "VEC3"
        },
        {
            "bufferView" : 5,
            "componentType" : 5126,
            "count" : 14,
            "type" : "VEC3"
        },
        {
            "bufferView" : 6,
            "componentType" : 5126,
            "count" : 14,
            "type" : "VEC2"
        },
        {
            "bufferView" : 7,
            "componentType" : 5126,
            "count" : 14,
            "max" : [
                0.3499999940395355,
                0.753803014755249,
                0.3499999940395355
            ],
            "min" : [
                -0.3499999940395355,
                0.663802981376648,
                -0.3499999940395355
            ],
            "type" : "VEC3"
        },
        {
            "bufferView" : 8,
            "componentType" : 5126,
            "count" : 14,
            "type" : "VEC3"
        },
        {
            "bufferView" : 9,
            "componentType" : 5126,
            "count" : 14,
            "type" : "VEC2"
        },
        {
            "bufferView" : 10,
            "componentType" : 5123,
            "count" : 36,
            "type" : "SCALAR"
        },
        {
            "bufferView" : 11,
            "componentType" : 5126,
            "count" : 14,
            "max" : [
                0.35926228761672974,
                0.7651686668395996,
                -0.29900896549224854
            ],
            "min" : [
                0.29926228523254395,
                0.00016871094703674316,
                -0.3590089678764343
            ],
            "type" : "VEC3"
        },
        {
            "bufferView" : 12,
            "componentType" : 5126,
            "count" : 14,
            "type" : "VEC3"
        },
        {
            "bufferView" : 13,
            "componentType" : 5126,
            "count" : 14,
            "type" : "VEC2"
        },
        {
            "bufferView" : 14,
            "componentType" : 5126,
            "count" : 14,
            "max" : [
                -0.2985864579677582,
                0.7651686668395996,
                0.3587130904197693
            ],
            "min" : [
                -0.35858646035194397,
                0.00016871094703674316,
                0.2987130880355835
            ],
            "type" : "VEC3"
        },
        {
            "bufferView" : 15,
            "componentType" : 5126,
            "count" : 14,
            "type" : "VEC3"
        },
        {
            "bufferView" : 16,
            "componentType" : 5126,
            "count" : 14,
            "type" : "VEC2"
        },
        {
            "bufferView" : 17,
            "componentType" : 5126,
            "count" : 14,
            "max" : [
                0.35926228761672974,
                0.7651686668395996,
                0.3587130904197693
            ],
            "min" : [
                0.29926228523254395,
                0.00016871094703674316,
                0.2987130880355835
            ],
            "type" : "VEC3"
        },
        {
            "bufferView" : 18,
            "componentType" : 5126,
            "count" : 14,
            "type" : "VEC3"
        },
        {
            "bufferView" : 19,
            "componentType" : 5126,
            "count" : 14,
            "type" : "VEC2"
        },
        {
            "bufferView" : 20,
            "componentType" : 5126,
            "count" : 84,
            "max" : [
                0.4449999928474426,
                0.772091269493103,
                0.4449999928474426
            ],
            "min" : [
                -0.4449999928474426,
                0.00016871094703674316,
                -0.4449999928474426
            ],
            "type" : "VEC3"
        },
        {
            "bufferView" : 21,
            "componentType" : 5126,
            "count" : 84,
            "type" : "VEC3"
        },
        {
            "bufferView" : 22,
            "componentType" : 5126,
            "count" : 84,
            "type" : "VEC2"
        },
        {
            "bufferView" : 23,
            "componentType" : 5123,
            "count" : 216,
            "type" : "SCALAR"
        }
    ],
    "bufferViews" : [
        {
            "buffer" : 0,
            "byteLength" : 168,
            "byteOffset" : 0
        },
        {
            "buffer" : 0,
            "byteLength" : 168,
            "byteOffset" : 168
        },
        {
            "buffer" : 0,
            "byteLength" : 112,
            "byteOffset" : 336
        },
        {
            "buffer" : 0,
            "byteLength" : 72,
            "byteOffset" : 448
        },
        {
            "buffer" : 0,
            "byteLength" : 168,
            "byteOffset" : 520
        },
        {
            "buffer" : 0,
            "byteLength" : 168,
            "byteOffset" : 688
        },
        {
            "buffer" : 0,
            "byteLength" : 112,
            "byteOffset" : 856
        },
        {
            "buffer" : 0,
            "byteLength" : 168,
            "byteOffset" : 968
        },
        {
            "buffer" : 0,
            "byteLength" : 168,
            "byteOffset" : 1136
        },
        {
            "buffer" : 0,
            "byteLength" : 112,
            "byteOffset" : 1304
        },
        {
            "buffer" : 0,
            "byteLength" : 72,
            "byteOffset" : 1416
        },
        {
            "buffer" : 0,
            "byteLength" : 168,
            "byteOffset" : 1488
        },
        {
            "buffer" : 0,
            "byteLength" : 168,
            "byteOffset" : 1656
        },
        {
            "buffer" : 0,
            "byteLength" : 112,
            "byteOffset" : 1824
        },
        {
            "buffer" : 0,
            "byteLength" : 168,
            "byteOffset" : 1936
        },
        {
            "buffer" : 0,
            "byteLength" : 168,
            "byteOffset" : 2104
        },
        {
            "buffer" : 0,
            "byteLength" : 112,
            "byteOffset" : 2272
        },
        {
            "buffer" : 0,
            "byteLength" : 168,
            "byteOffset" : 2384
        },
        {
            "buffer" : 0,
            "byteLength" : 168,
            "byteOffset" : 2552
        },
        {
            "buffer" : 0,
            "byteLength" : 112,
            "byteOffset" : 2720
        },
        {
            "buffer" : 0,
            "byteLength" : 1008,
            "byteOffset" : 2832
        },
        {
            "buffer" : 0,
            "byteLength" : 1008,
            "byteOffset" : 3840
        },
        {
            "buffer" : 0,
            "byteLength" : 672,
            "byteOffset" : 4848
        },
        {
            "buffer" : 0,
            "byteLength" : 432,
            "byteOffset" : 5520
        }
    ],
    "buffers" : [
        {
            "byteLength" : 5952,
            "uri" : "table-sit-square.bin"
        }
    ]
}
