{
    "asset" : {
        "copyright" : "Creative Commons Attribution 4.0 International Public License 2021 V-Sekai. 2019 Wonder Unit. See https://github.com/V-Sekai/blue-tin-fox-models for attributed files.",
        "generator" : "Khronos glTF Blender I/O v1.6.16",
        "version" : "2.0"
    },
    "scene" : 0,
    "scenes" : [
        {
            "name" : "Scene",
            "nodes" : [
                0,
                1
            ]
        }
    ],
    "nodes" : [
        {
            "mesh" : 0,
            "name" : "Cylinder",
            "scale" : [
                0.42741304636001587,
                0.42741304636001587,
                0.42741304636001587
            ],
            "translation" : [
                0,
                0.06449013203382492,
                0
            ]
        },
        {
            "mesh" : 1,
            "name" : "Icosphere",
            "scale" : [
                0.6373974084854126,
                0.5541133880615234,
                0.6373974084854126
            ],
            "translation" : [
                1.42824387550354,
                2.3636796474456787,
                -0.15804541110992432
            ]
        }
    ],
    "meshes" : [
        {
            "name" : "Cylinder",
            "primitives" : [
                {
                    "attributes" : {
                        "POSITION" : 0,
                        "NORMAL" : 1,
                        "TEXCOORD_0" : 2
                    },
                    "indices" : 3
                }
            ]
        },
        {
            "name" : "Icosphere",
            "primitives" : [
                {
                    "attributes" : {
                        "POSITION" : 4,
                        "NORMAL" : 5,
                        "TEXCOORD_0" : 6
                    },
                    "indices" : 7
                }
            ]
        }
    ],
    "accessors" : [
        {
            "bufferView" : 0,
            "componentType" : 5126,
            "count" : 222,
            "max" : [
                2.9499497413635254,
                8.760576248168945,
                2.704099178314209
            ],
            "min" : [
                -1.9153856039047241,
                -0.150888592004776,
                -2.0294418334960938
            ],
            "type" : "VEC3"
        },
        {
            "bufferView" : 1,
            "componentType" : 5126,
            "count" : 222,
            "type" : "VEC3"
        },
        {
            "bufferView" : 2,
            "componentType" : 5126,
            "count" : 222,
            "type" : "VEC2"
        },
        {
            "bufferView" : 3,
            "componentType" : 5123,
            "count" : 1002,
            "type" : "SCALAR"
        },
        {
            "bufferView" : 4,
            "componentType" : 5126,
            "count" : 574,
            "max" : [
                1.1800389289855957,
                4.1825032234191895,
                3.295332908630371
            ],
            "min" : [
                -4.968352794647217,
                -0.9655625820159912,
                -2.3105649948120117
            ],
            "type" : "VEC3"
        },
        {
            "bufferView" : 5,
            "componentType" : 5126,
            "count" : 574,
            "type" : "VEC3"
        },
        {
            "bufferView" : 6,
            "componentType" : 5126,
            "count" : 574,
            "type" : "VEC2"
        },
        {
            "bufferView" : 7,
            "componentType" : 5123,
            "count" : 1728,
            "type" : "SCALAR"
        }
    ],
    "bufferViews" : [
        {
            "buffer" : 0,
            "byteLength" : 2664,
            "byteOffset" : 0
        },
        {
            "buffer" : 0,
            "byteLength" : 2664,
            "byteOffset" : 2664
        },
        {
            "buffer" : 0,
            "byteLength" : 1776,
            "byteOffset" : 5328
        },
        {
            "buffer" : 0,
            "byteLength" : 2004,
            "byteOffset" : 7104
        },
        {
            "buffer" : 0,
            "byteLength" : 6888,
            "byteOffset" : 9108
        },
        {
            "buffer" : 0,
            "byteLength" : 6888,
            "byteOffset" : 15996
        },
        {
            "buffer" : 0,
            "byteLength" : 4592,
            "byteOffset" : 22884
        },
        {
            "buffer" : 0,
            "byteLength" : 3456,
            "byteOffset" : 27476
        }
    ],
    "buffers" : [
        {
            "byteLength" : 30932,
            "uri" : "tree-bushy.bin"
        }
    ]
}
