{
    "asset" : {
        "copyright" : "Creative Commons Attribution 4.0 International Public License 2021 V-Sekai. 2019 Wonder Unit. See https://github.com/V-Sekai/blue-tin-fox-models for attributed files.",
        "generator" : "Khronos glTF Blender I/O v1.6.16",
        "version" : "2.0"
    },
    "scene" : 0,
    "scenes" : [
        {
            "name" : "Scene",
            "nodes" : [
                0
            ]
        }
    ],
    "nodes" : [
        {
            "mesh" : 0,
            "name" : "bmxbike",
            "translation" : [
                6.45671971142292e-05,
                -0.0027008652687072754,
                -0.0008263997733592987
            ]
        }
    ],
    "materials" : [
        {
            "doubleSided" : true,
            "name" : "Material",
            "pbrMetallicRoughness" : {
                "baseColorFactor" : [
                    0.800000011920929,
                    0.800000011920929,
                    0.800000011920929,
                    1
                ],
                "metallicFactor" : 0,
                "roughnessFactor" : 0.5
            }
        }
    ],
    "meshes" : [
        {
            "name" : "bmxbike",
            "primitives" : [
                {
                    "attributes" : {
                        "POSITION" : 0,
                        "NORMAL" : 1
                    },
                    "indices" : 2,
                    "material" : 0
                }
            ]
        }
    ],
    "accessors" : [
        {
            "bufferView" : 0,
            "componentType" : 5126,
            "count" : 20543,
            "max" : [
                0.27610209584236145,
                0.9217379689216614,
                0.7277474999427795
            ],
            "min" : [
                -0.2738552987575531,
                0.003975719213485718,
                -0.7423523664474487
            ],
            "type" : "VEC3"
        },
        {
            "bufferView" : 1,
            "componentType" : 5126,
            "count" : 20543,
            "type" : "VEC3"
        },
        {
            "bufferView" : 2,
            "componentType" : 5123,
            "count" : 119916,
            "type" : "SCALAR"
        }
    ],
    "bufferViews" : [
        {
            "buffer" : 0,
            "byteLength" : 246516,
            "byteOffset" : 0
        },
        {
            "buffer" : 0,
            "byteLength" : 246516,
            "byteOffset" : 246516
        },
        {
            "buffer" : 0,
            "byteLength" : 239832,
            "byteOffset" : 493032
        }
    ],
    "buffers" : [
        {
            "byteLength" : 732864,
            "uri" : "vehicle-bicycle-bmx.bin"
        }
    ]
}
