{
    "asset" : {
        "copyright" : "Creative Commons Attribution 4.0 International Public License 2021 V-Sekai. 2019 Wonder Unit. See https://github.com/V-Sekai/blue-tin-fox-models for attributed files.",
        "generator" : "Khronos glTF Blender I/O v1.6.16",
        "version" : "2.0"
    },
    "scene" : 0,
    "scenes" : [
        {
            "name" : "Scene",
            "nodes" : [
                0,
                1,
                2
            ]
        }
    ],
    "nodes" : [
        {
            "mesh" : 0,
            "name" : "Cube.001",
            "rotation" : [
                0,
                0.7071068286895752,
                0,
                0.7071068286895752
            ],
            "translation" : [
                -0.30583953857421875,
                0.5000009536743164,
                -47.01067352294922
            ]
        },
        {
            "mesh" : 1,
            "name" : "Cube.002",
            "rotation" : [
                0,
                0.7071068286895752,
                0,
                0.7071068286895752
            ],
            "translation" : [
                0.4846382141113281,
                36.969200134277344,
                -112.3583984375
            ]
        },
        {
            "mesh" : 2,
            "name" : "Grid",
            "rotation" : [
                0,
                0.7071068286895752,
                0,
                0.7071068286895752
            ],
            "translation" : [
                -0.30583953857421875,
                0,
                -47.01067352294922
            ]
        }
    ],
    "meshes" : [
        {
            "name" : "Cube.003",
            "primitives" : [
                {
                    "attributes" : {
                        "POSITION" : 0,
                        "NORMAL" : 1,
                        "TEXCOORD_0" : 2
                    },
                    "indices" : 3
                }
            ]
        },
        {
            "name" : "Cube.004",
            "primitives" : [
                {
                    "attributes" : {
                        "POSITION" : 4,
                        "NORMAL" : 5,
                        "TEXCOORD_0" : 6
                    },
                    "indices" : 7
                }
            ]
        },
        {
            "name" : "Grid",
            "primitives" : [
                {
                    "attributes" : {
                        "POSITION" : 8,
                        "NORMAL" : 9,
                        "TEXCOORD_0" : 10
                    },
                    "indices" : 11
                }
            ]
        }
    ],
    "accessors" : [
        {
            "bufferView" : 0,
            "componentType" : 5126,
            "count" : 68,
            "max" : [
                78.64065551757812,
                21.440563201904297,
                31.844165802001953
            ],
            "min" : [
                -22.58637237548828,
                -0.5,
                -32.7116584777832
            ],
            "type" : "VEC3"
        },
        {
            "bufferView" : 1,
            "componentType" : 5126,
            "count" : 68,
            "type" : "VEC3"
        },
        {
            "bufferView" : 2,
            "componentType" : 5126,
            "count" : 68,
            "type" : "VEC2"
        },
        {
            "bufferView" : 3,
            "componentType" : 5123,
            "count" : 240,
            "type" : "SCALAR"
        },
        {
            "bufferView" : 4,
            "componentType" : 5126,
            "count" : 35,
            "max" : [
                30.07667350769043,
                25.392656326293945,
                27.089841842651367
            ],
            "min" : [
                -30.079944610595703,
                -17.859182357788086,
                -27.08986473083496
            ],
            "type" : "VEC3"
        },
        {
            "bufferView" : 5,
            "componentType" : 5126,
            "count" : 35,
            "type" : "VEC3"
        },
        {
            "bufferView" : 6,
            "componentType" : 5126,
            "count" : 35,
            "type" : "VEC2"
        },
        {
            "bufferView" : 7,
            "componentType" : 5123,
            "count" : 117,
            "type" : "SCALAR"
        },
        {
            "bufferView" : 8,
            "componentType" : 5126,
            "count" : 161,
            "max" : [
                113.3817367553711,
                151.18646240234375,
                100
            ],
            "min" : [
                -100,
                0,
                -114.17431640625
            ],
            "type" : "VEC3"
        },
        {
            "bufferView" : 9,
            "componentType" : 5126,
            "count" : 161,
            "type" : "VEC3"
        },
        {
            "bufferView" : 10,
            "componentType" : 5126,
            "count" : 161,
            "type" : "VEC2"
        },
        {
            "bufferView" : 11,
            "componentType" : 5123,
            "count" : 648,
            "type" : "SCALAR"
        }
    ],
    "bufferViews" : [
        {
            "buffer" : 0,
            "byteLength" : 816,
            "byteOffset" : 0
        },
        {
            "buffer" : 0,
            "byteLength" : 816,
            "byteOffset" : 816
        },
        {
            "buffer" : 0,
            "byteLength" : 544,
            "byteOffset" : 1632
        },
        {
            "buffer" : 0,
            "byteLength" : 480,
            "byteOffset" : 2176
        },
        {
            "buffer" : 0,
            "byteLength" : 420,
            "byteOffset" : 2656
        },
        {
            "buffer" : 0,
            "byteLength" : 420,
            "byteOffset" : 3076
        },
        {
            "buffer" : 0,
            "byteLength" : 280,
            "byteOffset" : 3496
        },
        {
            "buffer" : 0,
            "byteLength" : 234,
            "byteOffset" : 3776
        },
        {
            "buffer" : 0,
            "byteLength" : 1932,
            "byteOffset" : 4012
        },
        {
            "buffer" : 0,
            "byteLength" : 1932,
            "byteOffset" : 5944
        },
        {
            "buffer" : 0,
            "byteLength" : 1288,
            "byteOffset" : 7876
        },
        {
            "buffer" : 0,
            "byteLength" : 1296,
            "byteOffset" : 9164
        }
    ],
    "buffers" : [
        {
            "byteLength" : 10460,
            "uri" : "ziggurat.bin"
        }
    ]
}
